<svg width="24" height="24" viewBox="0 0 24 24" fill="none" xmlns="http://www.w3.org/2000/svg">
<path d="M16.0234 9.34843H21.0154L17.8344 6.16543C16.8103 5.1413 15.5346 4.40482 14.1356 4.03003C12.7366 3.65525 11.2636 3.65536 9.86464 4.03035C8.4657 4.40535 7.19014 5.14202 6.16617 6.1663C5.14221 7.19058 4.40594 8.46637 4.03138 9.86543M2.98537 19.6444V14.6524M2.98537 14.6524H7.97738M2.98537 14.6524L6.16537 17.8354C7.18949 18.8596 8.46517 19.596 9.86416 19.9708C11.2632 20.3456 12.7362 20.3455 14.1351 19.9705C15.534 19.5955 16.8096 18.8588 17.8336 17.8346C18.8575 16.8103 19.5938 15.5345 19.9684 14.1354M21.0154 4.35643V9.34643" stroke="black" stroke-width="1.5" stroke-linecap="round" stroke-linejoin="round"/>
</svg>
