<svg width="20" height="21" viewBox="0 0 20 21" fill="none" xmlns="http://www.w3.org/2000/svg">
<g clip-path="url(#clip0_3523_1733)">
<path d="M19.9417 9.2965C19.9234 9.14327 19.8498 9.00198 19.7347 8.89917C19.6196 8.79636 19.471 8.73911 19.3167 8.73816H10.625C10.4599 8.74032 10.3022 8.80686 10.1855 8.92361C10.0687 9.04035 10.0022 9.19808 10 9.36316V12.2798C10.0022 12.4449 10.0687 12.6026 10.1855 12.7194C10.3022 12.8361 10.4599 12.9027 10.625 12.9048H15.275C14.8277 13.8478 14.1356 14.6536 13.2708 15.238C12.406 15.8224 11.4003 16.1641 10.3585 16.2274C9.31666 16.2907 8.27695 16.0734 7.34776 15.598C6.41856 15.1227 5.63393 14.4067 5.07569 13.5248C4.51745 12.6429 4.20605 11.6274 4.17397 10.5841C4.14189 9.5409 4.39029 8.50817 4.89329 7.59364C5.39628 6.6791 6.13543 5.91628 7.03366 5.38471C7.93188 4.85314 8.95628 4.57231 10 4.5715C11.2726 4.57087 12.5105 4.98643 13.525 5.75483C13.6459 5.85144 13.7987 5.89907 13.9531 5.88826C14.1074 5.87746 14.2521 5.80901 14.3583 5.6965L16.4167 3.6215C16.4789 3.55962 16.5273 3.48535 16.5589 3.40351C16.5905 3.32167 16.6045 3.2341 16.6 3.1465C16.5948 3.0602 16.5721 2.97586 16.5335 2.89853C16.4948 2.8212 16.4409 2.75248 16.375 2.6965C14.6238 1.24746 12.4311 0.438264 10.1584 0.402257C7.88571 0.366249 5.66854 1.10558 3.87228 2.49841C2.07602 3.89124 0.807863 5.85447 0.276789 8.06455C-0.254286 10.2746 -0.0165873 12.5997 0.950714 14.6566C1.91801 16.7135 3.5572 18.3795 5.59814 19.3801C7.63908 20.3806 9.95999 20.656 12.1784 20.1608C14.3968 19.6657 16.3803 18.4296 17.8021 16.6561C19.2239 14.8827 19.9991 12.6778 20 10.4048C20.0014 10.0346 19.9819 9.66456 19.9417 9.2965Z" fill="currentColor"/>
</g>
<defs>
<clipPath id="clip0_3523_1733">
<rect width="20" height="20" fill="white" transform="translate(0 0.404785)"/>
</clipPath>
</defs>
</svg>
