<svg width="24" height="24" viewBox="0 0 24 24" fill="none" xmlns="http://www.w3.org/2000/svg">
<path d="M16.7116 4.32965C17.3114 4.69904 17.8658 5.13735 18.3636 5.63565C18.8736 6.14565 19.3076 6.69965 19.6696 7.28765M16.7116 4.32965L13.2636 8.46765M16.7116 4.32965C15.2937 3.46019 13.6629 3 11.9996 3C10.3364 3 8.70556 3.46019 7.28765 4.32965M19.6696 7.28765L15.5316 10.7356M19.6696 7.28765C20.5391 8.70556 20.9993 10.3364 20.9993 11.9996C20.9993 13.6629 20.5391 15.2937 19.6696 16.7116M13.2636 8.46765C13.7859 8.65435 14.26 8.95495 14.6516 9.34765C15.0444 9.73926 15.345 10.2134 15.5316 10.7356M13.2636 8.46765C12.4462 8.17629 11.5531 8.17629 10.7356 8.46765M7.28765 4.32965L10.7356 8.46765M7.28765 4.32965C6.6879 4.69902 6.13346 5.13733 5.63565 5.63565C5.13734 6.13346 4.69902 6.68791 4.32965 7.28765M15.5316 10.7356C15.823 11.5531 15.823 12.4462 15.5316 13.2636M19.6696 16.7116L15.5316 13.2636M19.6696 16.7116C19.3003 17.3114 18.8619 17.8658 18.3636 18.3636C17.8536 18.8736 17.2996 19.3076 16.7116 19.6696M15.5316 13.2636C15.3506 13.7696 15.0566 14.2456 14.6516 14.6516C14.26 15.0444 13.7859 15.345 13.2636 15.5316M10.7356 8.46765C10.2134 8.65432 9.73926 8.95493 9.34765 9.34765C8.94265 9.75365 8.64865 10.2296 8.46765 10.7356M13.2636 15.5316L16.7116 19.6696M13.2636 15.5316C12.4462 15.823 11.5531 15.823 10.7356 15.5316M16.7116 19.6696C15.2937 20.5391 13.6629 20.9993 11.9996 20.9993C10.3364 20.9993 8.70556 20.5391 7.28765 19.6696M7.28765 19.6696L10.7356 15.5316M7.28765 19.6696C6.6879 19.3003 6.13346 18.862 5.63565 18.3636C5.13735 17.8658 4.69904 17.3114 4.32965 16.7116M10.7356 15.5316C10.2134 15.345 9.73926 15.0444 9.34765 14.6516C8.95495 14.26 8.65435 13.7859 8.46765 13.2636M8.46765 13.2636L4.32965 16.7116M8.46765 13.2636C8.17629 12.4462 8.17629 11.5531 8.46765 10.7356M4.32965 16.7116C3.46019 15.2937 3 13.6629 3 11.9996C3 10.3364 3.46019 8.70556 4.32965 7.28765M4.32965 7.28765L8.46765 10.7356" stroke="black" stroke-width="1.5" stroke-linecap="round" stroke-linejoin="round"/>
</svg>
