<svg width="24" height="24" viewBox="0 0 24 24" fill="none" xmlns="http://www.w3.org/2000/svg">
<path d="M5.25 14.25H18.75M5.25 14.25C4.45435 14.25 3.69129 13.9339 3.12868 13.3713C2.56607 12.8087 2.25 12.0456 2.25 11.25M5.25 14.25C4.45435 14.25 3.69129 14.5661 3.12868 15.1287C2.56607 15.6913 2.25 16.4544 2.25 17.25C2.25 18.0456 2.56607 18.8087 3.12868 19.3713C3.69129 19.9339 4.45435 20.25 5.25 20.25H18.75C19.5456 20.25 20.3087 19.9339 20.8713 19.3713C21.4339 18.8087 21.75 18.0456 21.75 17.25C21.75 16.4544 21.4339 15.6913 20.8713 15.1287C20.3087 14.5661 19.5456 14.25 18.75 14.25M18.75 14.25C19.5456 14.25 20.3087 13.9339 20.8713 13.3713C21.4339 12.8087 21.75 12.0456 21.75 11.25M2.25 11.25C2.25 10.4544 2.56607 9.69129 3.12868 9.12868C3.69129 8.56607 4.45435 8.25 5.25 8.25H18.75C19.5456 8.25 20.3087 8.56607 20.8713 9.12868C21.4339 9.69129 21.75 10.4544 21.75 11.25M2.25 11.25C2.25 10.2763 2.5658 9.32893 3.15 8.55L5.737 5.1C6.05137 4.68084 6.45902 4.34063 6.92765 4.10631C7.39629 3.87199 7.91305 3.75 8.437 3.75H15.563C16.625 3.75 17.625 4.25 18.263 5.1L20.85 8.55C21.4342 9.32893 21.75 10.2763 21.75 11.25M18.75 17.25H18.758V17.258H18.75V17.25ZM18.75 11.25H18.758V11.258H18.75V11.25ZM15.75 17.25H15.758V17.258H15.75V17.25ZM15.75 11.25H15.758V11.258H15.75V11.25Z" stroke="black" stroke-width="1.5" stroke-linecap="round" stroke-linejoin="round"/>
</svg>
