<svg width="72" height="24" viewBox="0 0 72 24" fill="none" xmlns="http://www.w3.org/2000/svg">
<g clip-path="url(#clip0_128_144)">
<mask id="mask0_128_144" style="mask-type:luminance" maskUnits="userSpaceOnUse" x="0" y="0" width="72" height="24">
<path d="M72 0H0V24H72V0Z" fill="white"/>
</mask>
<g mask="url(#mask0_128_144)">
<path d="M16.5223 4.32C16.5223 6.70588 14.5784 8.64 12.1806 8.64C9.78272 8.64 7.83887 6.70588 7.83887 4.32C7.83887 1.93412 9.78272 0 12.1806 0C14.5784 0 16.5223 1.93412 16.5223 4.32Z" fill="#A8A29E"/>
<path d="M11.8467 12.5434C10.32 10.9914 8.49692 9.75865 6.48467 8.91748C4.47242 8.07629 2.31153 7.64368 0.128906 7.64502V16.3714C1.77072 16.3735 3.36868 16.8989 4.68835 17.8707C6.00802 18.8426 6.97996 20.2096 7.46157 21.7714C7.92476 18.317 9.45739 15.0917 11.8467 12.5434Z" fill="#A8A29E"/>
<path d="M24.2324 7.64502V16.3714C22.1998 16.3739 20.2512 17.1785 18.814 18.6086C17.3768 20.0386 16.5682 21.9775 16.5657 23.9998H7.79541C7.79541 14.9818 15.1691 7.64502 24.2324 7.64502Z" fill="#A8A29E"/>
<path d="M71.6817 17.1448L71.9762 18.5003L71.9027 18.6286C71.6449 18.8117 71.2583 18.94 70.7428 18.94C69.4725 18.94 68.8281 18.1339 68.8281 16.8883V13.3712C68.8281 11.9791 67.9997 11.0632 66.6189 11.0632C65.2381 11.0632 64.2992 11.9791 64.2992 13.3712V18.7201H62.2742V11.8875C62.2742 11.3929 62.2005 11.0815 61.8508 11.0815C61.7218 11.0815 61.6298 11.1365 61.5561 11.1914L61.4273 11.1365L61.1328 9.78094L61.2064 9.65271C61.4641 9.46954 61.8508 9.34131 62.3294 9.34131C63.1579 9.34131 63.7653 9.76262 64.0047 10.4953C64.7227 9.78094 65.7721 9.34131 67.0056 9.34131C69.3436 9.34131 70.8348 10.9167 70.8348 13.2064V16.3937C70.8348 16.8883 70.9269 17.1997 71.2583 17.1997C71.3872 17.1997 71.4792 17.1448 71.5528 17.0898L71.6817 17.1448Z" fill="#78716C"/>
<path d="M60.589 17.1448L60.8835 18.5003L60.8098 18.6286C60.5521 18.7934 60.1656 18.94 59.7052 18.94C58.8031 18.94 58.1956 18.4453 57.9931 17.6027C57.1831 18.4087 56.0601 18.94 54.7161 18.94C52.0099 18.94 50.0952 16.815 50.0952 14.1407C50.0952 11.4479 52.0099 9.34131 54.7161 9.34131C56.0601 9.34131 57.1647 9.87254 57.9747 10.6602V9.56112H59.7421V16.3937C59.7421 16.9067 59.8526 17.1997 60.1656 17.1997C60.3312 17.1997 60.4233 17.1264 60.4601 17.0898L60.589 17.1448ZM55.0291 17.1997C56.6308 17.1997 57.9195 16.1006 57.9195 14.1407C57.9195 12.1622 56.6308 11.0815 55.0475 11.0815C53.2618 11.0815 52.1387 12.4554 52.1387 14.1407C52.1387 15.8442 53.2801 17.1997 55.0291 17.1997Z" fill="#78716C"/>
<path d="M46.7858 9.56112H48.7741V17.1264C48.7741 20.0573 46.6385 21.5045 44.1164 21.5045C42.3306 21.5045 40.9315 20.7534 40.0294 19.6361V19.5078L40.9498 18.4087H41.0971C41.7415 19.2514 42.8093 19.9291 44.1348 19.9291C45.626 19.9291 46.8227 19.0499 46.8227 17.3646V16.8883C46.1599 17.5477 45.2394 17.9508 44.0979 17.9508C42.0544 17.9508 40.4344 16.7418 40.4344 14.3238V11.8875C40.4344 11.3929 40.3423 11.0815 40.0109 11.0815C39.882 11.0815 39.79 11.1365 39.7164 11.1914L39.5875 11.1365L39.293 9.78094L39.3665 9.65271C39.6243 9.46954 39.9925 9.34131 40.508 9.34131C41.7415 9.34131 42.4043 10.074 42.4043 11.338V14.1773C42.4043 15.4778 43.2143 16.2472 44.4846 16.2472C45.7917 16.2472 46.7858 15.313 46.7858 13.9391V9.56112Z" fill="#78716C"/>
<path d="M39.4482 17.0529L39.8349 18.4633L39.7796 18.5915C39.4667 18.8113 39.08 18.9396 38.5461 18.9396C37.4232 18.9396 36.4843 18.2619 35.6557 17.2543L32.6733 13.6641L31.6608 14.7631V18.7198H29.6173V9.35927C29.6173 8.75479 29.5437 8.40674 29.1386 8.40674C28.9913 8.40674 28.8624 8.4617 28.8073 8.53497L28.6599 8.48001L28.3286 7.05121L28.4206 6.90466C28.6416 6.75812 29.0833 6.59326 29.6725 6.59326C30.9796 6.59326 31.6608 7.49084 31.6608 8.75479V12.3084L36.7603 6.81308H39.08L39.1537 6.92299L34.1461 12.3634L37.2942 16.1003C37.9754 16.888 38.3621 17.1261 38.7855 17.1261C38.988 17.1261 39.172 17.0711 39.301 16.9979L39.4482 17.0529Z" fill="#78716C"/>
</g>
</g>
<defs>
<clipPath id="clip0_128_144">
<rect width="72" height="24" fill="white"/>
</clipPath>
</defs>
</svg>
