<svg width="107" height="24" viewBox="0 0 107 24" fill="none" xmlns="http://www.w3.org/2000/svg">
<g clip-path="url(#clip0_128_214)">
<mask id="mask0_128_214" style="mask-type:luminance" maskUnits="userSpaceOnUse" x="0" y="0" width="107" height="24">
<path d="M107 0H0V24H107V0Z" fill="white"/>
</mask>
<g mask="url(#mask0_128_214)">
<path d="M9.64104 23.9399H7.81348V-0.0600586L9.64104 1.46861V23.9399Z" fill="#A8A29E"/>
<path d="M3.854 23.94H5.68156V4.5918L3.854 6.12045V23.94Z" fill="#A8A29E"/>
<path d="M1.87395 23.94H0.0463867V10.7064L1.87395 9.17773V23.94Z" fill="#A8A29E"/>
<path d="M17.4082 23.94H15.5806V9.17773L17.4082 10.7064V23.94Z" fill="#A8A29E"/>
<path d="M11.7734 23.94H13.6009V6.12045L11.7734 4.5918V23.94Z" fill="#A8A29E"/>
<path fill-rule="evenodd" clip-rule="evenodd" d="M37.2928 17.1758V16.3507H35.2607V17.1392C35.2607 18.8994 35.8282 20.4717 38.2732 20.4717C40.7183 20.4717 41.3692 18.6978 41.3692 16.8045C41.3692 14.5584 40.7684 13.7012 38.8073 12.2205C37.6557 11.3633 37.4805 10.8453 37.4805 9.96061C37.4805 9.0759 37.6349 8.49373 38.3149 8.49373C38.9951 8.49373 39.1494 9.07132 39.1494 9.98812V10.6436H41.1522V9.92853C41.1522 8.47998 40.7267 6.71973 38.3608 6.71973C35.9951 6.71973 35.4735 8.49373 35.4735 10.2494C35.4735 12.2251 36.2287 12.9585 37.6349 14.0862C39.041 15.2139 39.3456 15.6585 39.3456 17.0934C39.3456 17.9596 39.1202 18.7207 38.3525 18.7207C37.5848 18.7207 37.2928 18.1659 37.2928 17.1758ZM25.4808 20.2791L25.9356 16.7127H27.9592L28.4766 20.2791H30.5879L28.3973 6.93508H25.5433L23.4321 20.2791H25.4808ZM26.9787 8.89243C27.1288 10.4006 27.4126 12.5505 27.713 14.8196H26.2027C26.2431 14.5117 26.2868 14.1823 26.332 13.8414L26.3321 13.841C26.5769 11.999 26.8662 9.82073 26.912 8.89243H26.9787ZM52.6388 20.2791H51.0617C51.0043 19.9492 50.9681 19.6153 50.9531 19.2798C50.5902 20.1691 49.8266 20.4763 48.9837 20.4763C47.0561 20.4763 46.4344 19.0552 46.4344 16.8091V10.5244C46.4344 8.34697 47.2689 6.74257 49.5429 6.74257C52.2925 6.74257 52.5845 8.8008 52.5845 10.2356V10.6665H50.5526V10.1347C50.5526 9.42881 50.4524 8.61744 49.5303 8.61744C48.7918 8.61744 48.4789 9.13542 48.4789 10.2035V17.029C48.4789 18.0972 48.7835 18.6518 49.5137 18.6518C50.3899 18.6518 50.6027 17.9092 50.6027 16.534V14.5858H49.4678V12.8163H52.6388V20.2791ZM59.6905 20.2791L60.1495 16.7127H62.1564L62.6738 20.2791H64.7767L62.5861 6.93505H59.7323L57.6461 20.2791H59.6905ZM61.1926 8.89242C61.3428 10.4006 61.6265 12.5504 61.9269 14.8195H60.3999C60.4403 14.5116 60.484 14.182 60.5293 13.841V13.8406L60.5294 13.8404C60.7741 11.9985 61.0634 9.8206 61.1092 8.89242H61.1926ZM71.6859 14.3152V20.2744H69.6665V6.93505H72.462C74.4564 6.93505 75.6331 7.75101 75.6331 10.1439V10.6527C75.6331 12.7017 74.7986 13.2243 74.302 13.4352C75.0655 13.8019 75.4995 14.352 75.4995 16.1856C75.4662 17.553 75.5066 18.9214 75.6205 20.2837H73.6679C73.5201 19.591 73.528 17.8594 73.5329 16.7768C73.5336 16.6056 73.5343 16.4506 73.5343 16.3185C73.5343 14.6912 73.3257 14.3199 72.1532 14.3199L71.6859 14.3152ZM71.6859 12.6146H72.1491C73.2171 12.6146 73.6094 12.202 73.6094 10.7535V10.2951C73.6094 9.26373 73.4008 8.63572 72.2575 8.63572H71.6859V12.6146ZM83.8571 6.93505H81.0574V20.2791H83.8571C86.9697 20.2791 87.3118 18.0375 87.3118 15.9976V10.8819C87.3118 8.40193 86.6359 6.93505 83.8571 6.93505ZM83.7445 18.528H83.0977V8.70448H83.732C85.0671 8.70448 85.2757 9.49293 85.2757 10.7169V16.2772C85.2757 17.657 85.0755 18.528 83.7445 18.528ZM94.7802 6.93505V20.2791H92.7607V6.93505H94.7802ZM101.781 20.2791L102.24 16.7127H104.256L104.769 20.2791H106.88L104.69 6.93505H101.836L99.7244 20.2791H101.781ZM103.908 14.0138C103.943 14.2801 103.978 14.549 104.014 14.8195H102.495C102.52 14.631 102.547 14.4343 102.574 14.2318C102.83 12.3181 103.155 9.88733 103.204 8.89242H103.279C103.412 10.2207 103.651 12.0469 103.908 14.0138Z" fill="#78716C"/>
</g>
</g>
<defs>
<clipPath id="clip0_128_214">
<rect width="107" height="24" fill="white"/>
</clipPath>
</defs>
</svg>
