<svg width="94" height="24" viewBox="0 0 94 24" fill="none" xmlns="http://www.w3.org/2000/svg">
<path d="M1.70182 19.9309C3.5006 22.9309 7.82914 23.0041 9.62553 19.9981C10.1943 19.0461 10.5139 17.965 10.5548 16.8553L10.6121 15.3181C10.6121 15.3181 7.88289 17.8201 6.75776 17.6665C6.37793 17.6149 6.66698 16.9069 6.80434 16.5565C7.32629 15.2365 10.4974 11.9893 10.4974 11.9893C10.4974 11.9893 10.7495 7.38974 11.1974 6.12854C11.4291 5.47574 11.6978 5.17694 11.9439 5.05814C12.1899 5.17814 12.4587 5.47574 12.6904 6.12854C13.1383 7.38974 13.3903 11.9893 13.3903 11.9893C13.3903 11.9893 16.5615 15.2293 17.0834 16.5565C17.2208 16.9069 17.5098 17.6149 17.13 17.6665C16.0037 17.8201 13.2756 15.3181 13.2756 15.3181L13.333 16.8553C13.3761 18.0275 13.7304 19.1669 14.359 20.1553C16.1625 22.9897 20.3489 22.9153 22.1107 20.0557C23.2596 18.1908 23.8746 16.0438 23.888 13.8505C23.9369 7.33694 18.7138 1.91414 12.2305 1.76174C10.0934 1.71032 7.98162 2.23613 6.11569 3.28429C4.24975 4.33244 2.69801 5.86453 1.62241 7.72068C0.546812 9.57681 -0.0132251 11.689 0.000743329 13.8367C0.0147119 15.9845 0.602174 18.0891 1.70182 19.9309Z" fill="#78716C"/>
<mask id="mask0_128_83" style="mask-type:luminance" maskUnits="userSpaceOnUse" x="0" y="1" width="24" height="22">
<path d="M1.70182 19.9309C3.5006 22.9309 7.82914 23.0041 9.62553 19.9981C10.1943 19.0461 10.5139 17.965 10.5548 16.8553L10.6121 15.3181C10.6121 15.3181 7.88289 17.8201 6.75776 17.6665C6.37793 17.6149 6.66698 16.9069 6.80434 16.5565C7.32629 15.2365 10.4974 11.9893 10.4974 11.9893C10.4974 11.9893 10.7495 7.38974 11.1974 6.12854C11.4291 5.47574 11.6978 5.17694 11.9439 5.05814C12.1899 5.17814 12.4587 5.47574 12.6904 6.12854C13.1383 7.38974 13.3903 11.9893 13.3903 11.9893C13.3903 11.9893 16.5615 15.2293 17.0834 16.5565C17.2208 16.9069 17.5098 17.6149 17.13 17.6665C16.0037 17.8201 13.2756 15.3181 13.2756 15.3181L13.333 16.8553C13.3761 18.0275 13.7304 19.1669 14.359 20.1553C16.1625 22.9897 20.3489 22.9153 22.1107 20.0557C23.2596 18.1908 23.8746 16.0438 23.888 13.8505C23.9369 7.33694 18.7138 1.91414 12.2305 1.76174C10.0934 1.71032 7.98162 2.23613 6.11569 3.28429C4.24975 4.33244 2.69801 5.86453 1.62241 7.72068C0.546812 9.57681 -0.0132251 11.689 0.000743329 13.8367C0.0147119 15.9845 0.602174 18.0891 1.70182 19.9309Z" fill="white"/>
</mask>
<g mask="url(#mask0_128_83)">
<path d="M1.70182 19.9309C3.5006 22.9309 7.82914 23.0041 9.62553 19.9981C10.1943 19.0461 10.5139 17.965 10.5548 16.8553L10.6121 15.3181C10.6121 15.3181 7.88289 17.8201 6.75776 17.6665C6.37793 17.6149 6.66698 16.9069 6.80434 16.5565C7.32629 15.2365 10.4974 11.9893 10.4974 11.9893C10.4974 11.9893 10.7495 7.38974 11.1974 6.12854C11.4291 5.47574 11.6978 5.17694 11.9439 5.05814C12.1899 5.17814 12.4587 5.47574 12.6904 6.12854C13.1383 7.38974 13.3903 11.9893 13.3903 11.9893C13.3903 11.9893 16.5615 15.2293 17.0834 16.5565C17.2208 16.9069 17.5098 17.6149 17.13 17.6665C16.0037 17.8201 13.2756 15.3181 13.2756 15.3181L13.333 16.8553C13.3761 18.0275 13.7304 19.1669 14.359 20.1553C16.1625 22.9897 20.3489 22.9153 22.1107 20.0557C23.2596 18.1908 23.8746 16.0438 23.888 13.8505C23.9369 7.33694 18.7138 1.91414 12.2305 1.76174C10.0934 1.71032 7.98162 2.23613 6.11569 3.28429C4.24975 4.33244 2.69801 5.86453 1.62241 7.72068C0.546812 9.57681 -0.0132251 11.689 0.000743329 13.8367C0.0147119 15.9845 0.602174 18.0891 1.70182 19.9309Z" fill="#A8A29E"/>
</g>
<path d="M34.5806 10.4735H37.5499V7.19991H34.5806V3.50391L31.1909 4.53351V7.19991H28.9048V10.4735H31.1909V15.9647C31.1909 19.5287 32.7938 20.9279 37.5499 20.3999V17.3111C35.6054 17.4167 34.5806 17.3903 34.5806 15.9647V10.4735Z" fill="#78716C"/>
<path fill-rule="evenodd" clip-rule="evenodd" d="M54.0166 17.681C52.2298 17.681 50.7845 16.9418 50.3116 15.1994H60.218C60.2968 14.7506 60.3494 14.3018 60.3494 13.8002C60.3494 9.91937 57.5903 6.83057 53.7013 6.83057C49.5758 6.83057 46.7642 9.86657 46.7642 13.8002C46.7642 17.7338 49.5495 20.7698 53.9641 20.7698C56.4867 20.7698 58.4574 19.7402 59.6924 17.945L56.9596 16.361C56.3815 17.1266 55.3305 17.681 54.0166 17.681ZM56.9596 12.5594H50.259C50.6532 10.8698 51.8882 9.89297 53.7013 9.89297C55.1202 9.89297 56.5392 10.6586 56.9596 12.5594Z" fill="#78716C"/>
<path fill-rule="evenodd" clip-rule="evenodd" d="M87.4986 7.20017H84.1089V8.75777C83.1629 7.56977 81.744 6.83057 79.8257 6.83057C76.3309 6.83057 73.4404 9.86657 73.4404 13.8002C73.4404 17.7338 76.3309 20.7698 79.8257 20.7698C81.744 20.7698 83.1629 20.0306 84.1089 18.8426V20.4002H87.4986V7.20017ZM84.1089 13.8002C84.1089 16.0178 82.5585 17.5226 80.4564 17.5226C78.3805 17.5226 76.8302 16.0178 76.8302 13.8002C76.8302 11.5826 78.3805 10.0778 80.4564 10.0778C82.5585 10.0778 84.1089 11.5826 84.1089 13.8002Z" fill="#78716C"/>
<path d="M89.5215 18.4994C89.5215 19.7402 90.52 20.7434 91.755 20.7434C92.9901 20.7434 93.9886 19.7402 93.9886 18.4994C93.9886 17.2586 92.9901 16.2554 91.755 16.2554C90.52 16.2554 89.5215 17.2586 89.5215 18.4994Z" fill="#78716C"/>
<path d="M70.059 7.2002H73.7904L68.7977 20.4002H64.935L59.9424 7.2002H63.6737L66.8532 16.4402L70.059 7.2002Z" fill="#78716C"/>
<path d="M42.7467 9.47044C43.4299 7.67524 45.0853 6.93604 46.7408 6.93604V10.7376C44.9802 10.5264 42.7467 11.3184 42.7467 14.0905V20.4001H39.3569V7.20004H42.7467V9.47044Z" fill="#78716C"/>
</svg>
