<svg width="60" height="24" viewBox="0 0 60 24" fill="none" xmlns="http://www.w3.org/2000/svg">
<g clip-path="url(#clip0_128_134)">
<path d="M20.922 0H15.4883C14.2507 0 13.0637 0.490668 12.1886 1.36406C11.3134 2.23746 10.8218 3.42203 10.8218 4.6572V10.08H16.2554C17.4931 10.08 18.6801 9.58933 19.5552 8.71594C20.4303 7.84254 20.922 6.65797 20.922 5.4228V0Z" fill="#A8A29E"/>
<path d="M5.9603 10.0799H10.1002V5.9483C10.1002 5.0072 9.72558 4.10466 9.05879 3.43921C8.392 2.77375 7.48765 2.3999 6.54466 2.3999H2.40479V6.5315C2.40479 6.99749 2.49676 7.45891 2.67543 7.88941C2.85411 8.31992 3.11601 8.7111 3.44618 9.04059C3.77633 9.3701 4.16829 9.63147 4.59967 9.80979C5.03103 9.98811 5.49338 10.0799 5.9603 10.0799Z" fill="#A8A29E"/>
<path d="M4.66653 10.7998H10.1002V16.2226C10.1002 17.4578 9.60855 18.6424 8.7334 19.5158C7.85826 20.3891 6.67131 20.8798 5.43367 20.8798H0V15.457C0 14.2218 0.491651 13.0372 1.3668 12.1638C2.24194 11.2905 3.42889 10.7998 4.66653 10.7998Z" fill="#A8A29E"/>
<path d="M16.9324 23.9998H24.0482V16.8982C24.0482 15.2808 23.4045 13.7296 22.2585 12.586C21.1126 11.4423 19.5582 10.7998 17.9376 10.7998H10.8218V17.9014C10.8218 19.5188 11.4656 21.07 12.6116 22.2136C13.7574 23.3573 15.3118 23.9998 16.9324 23.9998Z" fill="#A8A29E"/>
<path d="M35.0559 7.47186C35.9637 7.47186 36.6986 6.7352 36.6986 5.8252C36.6986 4.93686 35.9637 4.2002 35.0559 4.2002C34.1696 4.2002 33.4346 4.93686 33.4346 5.8252C33.4346 6.7352 34.1696 7.47186 35.0559 7.47186Z" fill="#78716C"/>
<path d="M33.8887 19.5398V8.70654H36.2448V19.5398H33.8887Z" fill="#78716C"/>
<path d="M41.1317 10.8301C40.5697 9.27011 39.8347 8.44678 38.5161 8.44678C37.9325 8.44678 37.5002 8.59845 37.2407 8.77177L37.1543 8.94511L37.5218 10.5918L37.6731 10.6568C37.8244 10.5268 38.0406 10.4834 38.2135 10.5051C38.5594 10.5268 38.8404 10.8734 39.2079 11.7618L42.4503 19.5401H44.2229L48.6757 8.85845L48.5893 8.70678H46.4709L43.3366 16.5935L41.1317 10.8301Z" fill="#78716C"/>
<path fill-rule="evenodd" clip-rule="evenodd" d="M59.8796 19.2802L59.5338 17.6768L59.3824 17.6118C59.296 17.6768 59.1879 17.7418 59.0366 17.7418C58.6475 17.7418 58.5394 17.3735 58.5394 16.7885V12.6067C58.5394 9.48678 55.8807 8.44678 53.5461 8.44678C51.6872 8.44678 50.1956 9.11844 49.0283 10.2451V10.4184L50.2172 11.5451H50.3901C51.1467 10.8084 52.0978 10.2884 53.3299 10.2884C54.8215 10.2884 56.2265 11.0468 56.2265 12.6067V13.2134C55.4483 12.9318 54.5405 12.7151 53.3732 12.7151C50.7144 12.7151 48.5527 13.8202 48.5527 16.2251C48.5527 18.5651 50.6063 19.8001 52.8328 19.8001C54.2595 19.8001 55.5997 19.2802 56.5291 18.3918C56.8101 19.2802 57.5235 19.8001 58.4961 19.8001C59.0366 19.8001 59.4905 19.6484 59.7932 19.4318L59.8796 19.2802ZM56.2265 14.8168V15.6185C56.2265 17.1352 54.7998 18.0668 53.3084 18.0668C52.0761 18.0668 50.909 17.4601 50.909 16.2251C50.909 15.0551 51.9682 14.3184 53.6758 14.3184C54.735 14.3184 55.6645 14.6002 56.2265 14.8168Z" fill="#78716C"/>
<path d="M31.0411 4.7998L28.8579 5.1248V17.3448C28.8579 18.8398 29.6145 19.8365 31.106 19.8365C31.6896 19.8365 32.1651 19.6848 32.4678 19.4682L32.5542 19.3165L32.2084 17.7132L32.0571 17.6482C31.9706 17.7132 31.8626 17.7781 31.6896 17.7781C31.3005 17.7781 31.214 17.4098 31.214 16.8248V4.90814L31.0411 4.7998Z" fill="#78716C"/>
</g>
<defs>
<clipPath id="clip0_128_134">
<rect width="60" height="24" fill="white"/>
</clipPath>
</defs>
</svg>
