<svg width="89" height="24" viewBox="0 0 89 24" fill="none" xmlns="http://www.w3.org/2000/svg">
<g clip-path="url(#clip0_128_55)">
<mask id="mask0_128_55" style="mask-type:luminance" maskUnits="userSpaceOnUse" x="0" y="0" width="89" height="24">
<path d="M89 0H0V24H89V0Z" fill="white"/>
</mask>
<g mask="url(#mask0_128_55)">
<path fill-rule="evenodd" clip-rule="evenodd" d="M7.85836 9.44305C7.50711 8.71489 7.35051 7.9085 7.40377 7.10215C7.45703 6.29578 7.71831 5.51686 8.16228 4.84099C8.60625 4.16511 9.21781 3.61525 9.9376 3.24476C10.6574 2.87427 11.461 2.69575 12.2702 2.72653C13.0797 2.75731 13.8672 2.99635 14.5567 3.42043C15.2461 3.84451 15.8139 4.43923 16.205 5.14685C16.5961 5.85449 16.7973 6.65099 16.7889 7.45906C16.7805 8.26712 16.5628 9.05929 16.157 9.75865L12.3661 16.3202L13.5027 18.2846L17.8661 10.7438C18.7273 9.21753 18.9503 7.41387 18.4868 5.72445C18.0233 4.03503 16.9106 2.59622 15.3903 1.72037C13.87 0.844537 12.0648 0.602365 10.3666 1.04644C8.66847 1.49051 7.21439 2.58499 6.3201 4.09225C5.84515 4.90202 5.54941 5.80384 5.45273 6.73711C5.35606 7.67037 5.46071 8.61347 5.75964 9.50305C6.06365 9.46508 6.36971 9.44584 6.6761 9.44545L7.85836 9.44305ZM23.1507 13.259C22.6795 12.4338 22.0347 11.7201 21.2608 11.1672C20.4867 10.6143 19.6019 10.2353 18.6671 10.0562C18.5484 10.3392 18.4122 10.6145 18.2593 10.8806L17.6652 11.9066C18.4761 11.9563 19.2601 12.215 19.9408 12.6574C20.6216 13.0997 21.1758 13.7107 21.5492 14.4305C21.9227 15.1504 22.1026 15.9546 22.0714 16.7646C22.0403 17.5745 21.7993 18.3626 21.3717 19.0518C20.9441 19.7411 20.3447 20.3078 19.6321 20.697C18.9194 21.086 18.1178 21.284 17.3055 21.2717C16.4932 21.2593 15.6979 21.037 14.9975 20.6264C14.297 20.2158 13.7153 19.6309 13.309 18.929L9.52409 12.389H7.25218L11.6036 19.9106C11.7532 20.1673 11.9191 20.4143 12.1003 20.6498L12.1364 20.6966C12.7561 21.4926 13.551 22.1356 14.4598 22.5758C15.3684 23.0162 16.3664 23.242 17.3766 23.2358C18.5467 23.2357 19.6961 22.9283 20.7094 22.3445C21.7226 21.7607 22.5642 20.921 23.1492 19.91C23.7343 18.8989 24.0423 17.7521 24.0423 16.5846C24.0424 15.4171 23.7344 14.2702 23.1495 13.259H23.1507ZM8.84652 20.7425C9.55737 20.3729 10.1616 19.828 10.6017 19.1594L11.1778 20.1602C11.3372 20.4346 11.5148 20.698 11.7093 20.9486C11.0867 21.6712 10.3141 22.2499 9.44494 22.6448C8.57583 23.0398 7.63103 23.2415 6.67604 23.2358C5.79312 23.2477 4.91664 23.0844 4.09748 22.7555C3.27833 22.4266 2.53284 21.9385 1.90428 21.3197C1.27572 20.701 0.776635 19.9638 0.435986 19.1509C0.0953385 18.3382 -0.0800781 17.4659 -0.0800781 16.5848C-0.0800781 15.7038 0.0953385 14.8316 0.435986 14.0188C0.776635 13.206 1.27572 12.4687 1.90428 11.85C2.53284 11.2312 3.27833 10.7432 4.09748 10.4142C4.91664 10.0853 5.79312 9.92201 6.67604 9.93385H15.3944L14.2614 11.8971H6.67604C5.85145 11.8974 5.04148 12.1144 4.3275 12.526C3.6135 12.9376 3.02065 13.5293 2.60846 14.242C2.19628 14.9545 1.97931 15.7627 1.97931 16.5854C1.97932 17.4083 2.19631 18.2165 2.6085 18.929C3.00917 19.6218 3.58085 20.2006 4.26913 20.6105C4.95741 21.0204 5.73939 21.2477 6.54062 21.2708C7.34184 21.2939 8.13568 21.112 8.84652 20.7425Z" fill="#A8A29E"/>
<path d="M40.4302 19.4428L40.0839 17.8012L39.9107 17.7364C39.7808 17.8228 39.6076 17.8876 39.4128 17.8876C39.0664 17.8876 38.7633 17.6932 38.3953 17.2828L35.2779 13.6324L39.5643 9.03162L39.4994 8.88042H36.9665L32.4852 13.8052V5.07882L32.312 4.94922L30.1255 5.27322V19.6804H32.4852V16.0948L33.546 14.95L36.5984 18.622C37.2479 19.4212 38.0705 19.9396 39.1097 19.9396C39.6509 19.9396 40.0622 19.81 40.3436 19.6156L40.4302 19.4428Z" fill="#78716C"/>
<path fill-rule="evenodd" clip-rule="evenodd" d="M71.2532 8.6211C74.5438 8.6211 76.7736 11.1267 76.7736 14.2803C76.7736 17.4339 74.5438 19.9395 71.2532 19.9395C69.7161 19.9395 68.4172 19.3131 67.4863 18.3627V19.6803H65.3647V5.2947L67.5729 4.9707L67.7244 5.0787V9.9819C68.6337 9.1395 69.846 8.6211 71.2532 8.6211ZM70.9717 17.8875C73.0067 17.8875 74.3489 16.2891 74.3489 14.2803C74.3489 12.2931 73.0067 10.6731 70.9717 10.6731C69.0667 10.6731 67.5513 11.9259 67.5513 14.2803C67.5513 16.6347 69.0667 17.8875 70.9717 17.8875Z" fill="#78716C"/>
<path fill-rule="evenodd" clip-rule="evenodd" d="M88.5693 17.8227L88.9157 19.4211L88.8291 19.5723C88.526 19.7883 88.0714 19.9395 87.5302 19.9395C86.556 19.9395 85.8416 19.4211 85.5601 18.5355C84.6292 19.4211 83.287 19.9395 81.8582 19.9395C79.6284 19.9395 77.5718 18.7083 77.5718 16.3755C77.5718 13.9779 79.7366 12.8763 82.3994 12.8763C83.5684 12.8763 84.4777 13.0923 85.257 13.3731V12.7683C85.257 11.2131 83.8499 10.4571 82.3561 10.4571C81.1222 10.4571 80.1696 10.9755 79.4119 11.7099H79.2387L78.048 10.5867V10.4139C79.2171 9.29069 80.7108 8.62109 82.5726 8.62109C84.9107 8.62109 87.5735 9.65789 87.5735 12.7683V16.9371C87.5735 17.5203 87.6817 17.8875 88.0714 17.8875C88.2229 17.8875 88.3312 17.8227 88.4177 17.7579L88.5693 17.8227ZM85.257 15.7707V14.9715C84.6942 14.7555 83.7633 14.4747 82.7025 14.4747C80.9923 14.4747 79.9315 15.2091 79.9315 16.3755C79.9315 17.6067 81.1005 18.2115 82.3345 18.2115C83.8282 18.2115 85.257 17.2827 85.257 15.7707Z" fill="#78716C"/>
<path d="M63.235 13.1787C63.235 10.4787 61.4815 8.62109 58.7321 8.62109C57.2816 8.62109 56.0477 9.13949 55.2034 9.98189C54.9219 9.11789 54.2508 8.62109 53.255 8.62109C52.6921 8.62109 52.2158 8.77229 51.9128 8.98829L51.8262 9.13949L52.1726 10.7379L52.3241 10.8027C52.4107 10.7379 52.5189 10.6731 52.6705 10.6731C53.0818 10.6731 53.1684 11.0403 53.1684 11.6235V19.6803H55.5497V13.3731C55.5497 11.7315 56.6538 10.6515 58.2775 10.6515C59.9011 10.6515 60.8753 11.7315 60.8753 13.3731V19.6803H63.235V13.1787Z" fill="#78716C"/>
<path fill-rule="evenodd" clip-rule="evenodd" d="M51.2373 17.8227L51.5836 19.4211L51.497 19.5723C51.194 19.7883 50.7393 19.9395 50.1981 19.9395C49.2239 19.9395 48.5095 19.4211 48.2281 18.5355C47.2972 19.4211 45.955 19.9395 44.5262 19.9395C42.2964 19.9395 40.2397 18.7083 40.2397 16.3755C40.2397 13.9779 42.4046 12.8763 45.0674 12.8763C46.2364 12.8763 47.1457 13.0923 47.925 13.3731V12.7683C47.925 11.2131 46.5179 10.4571 45.0241 10.4571C43.7901 10.4571 42.8376 10.9755 42.0799 11.7099H41.9067L40.716 10.5867V10.4139C41.885 9.29069 43.3788 8.62109 45.2406 8.62109C47.5786 8.62109 50.2414 9.65789 50.2414 12.7683V16.9371C50.2414 17.5203 50.3497 17.8875 50.7393 17.8875C50.8909 17.8875 50.9991 17.8227 51.0857 17.7579L51.2373 17.8227ZM47.925 15.7707V14.9715C47.3622 14.7555 46.4313 14.4747 45.3705 14.4747C43.6602 14.4747 42.5995 15.2091 42.5995 16.3755C42.5995 17.6067 43.7685 18.2115 45.0024 18.2115C46.4962 18.2115 47.925 17.2827 47.925 15.7707Z" fill="#78716C"/>
</g>
</g>
<defs>
<clipPath id="clip0_128_55">
<rect width="89" height="24" fill="white"/>
</clipPath>
</defs>
</svg>
