<svg width="81" height="24" viewBox="0 0 81 24" fill="none" xmlns="http://www.w3.org/2000/svg">
<g clip-path="url(#clip0_128_122)">
<mask id="mask0_128_122" style="mask-type:luminance" maskUnits="userSpaceOnUse" x="0" y="0" width="81" height="24">
<path d="M81 0H0V24H81V0Z" fill="white"/>
</mask>
<g mask="url(#mask0_128_122)">
<path d="M11.1735 18.2036C9.9158 17.7104 8.09119 11.7968 9.12746 11.0564C10.1625 10.3196 16.2478 11.9996 16.6341 13.0988C17.1083 14.4392 12.4313 18.6968 11.1735 18.2036Z" fill="#A8A29E"/>
<path fill-rule="evenodd" clip-rule="evenodd" d="M19.7468 6.62261C21.664 7.84061 22.8315 10.2382 23.0217 13.3726C23.1733 15.8722 22.6582 18.4798 21.6785 20.1742C21.6556 20.2174 21.6315 20.2558 21.6075 20.2942C20.7229 21.655 19.1654 22.6642 16.9774 23.2942C14.9481 23.8798 12.878 23.9998 11.4987 23.9998C9.25041 23.9998 7.18149 23.6794 5.67462 23.0986L5.65657 23.0914C3.09899 22.0798 1.57407 19.6798 1.11672 15.9514C1.1107 15.9346 1.1107 15.9178 1.1107 15.901C0.920538 14.0278 0.860359 10.5094 2.60553 8.00261L2.63441 7.96181C3.89094 6.23261 5.9033 5.38661 7.9301 5.00501L4.60826 2.43821C4.32193 2.21718 4.1354 1.89179 4.08969 1.53364C4.06706 1.3563 4.07969 1.17625 4.12685 1.00377C4.174 0.831291 4.25477 0.669764 4.36454 0.528408C4.58624 0.24293 4.91258 0.0569473 5.2718 0.0113759C5.44967 -0.0111887 5.63026 0.0013976 5.80325 0.0484161C5.97623 0.0954348 6.13825 0.175965 6.28001 0.285408C6.30168 0.302208 6.32575 0.321408 6.34621 0.339408L11.0485 4.46981L14.7267 1.38701C15.0323 1.13113 15.4274 1.00678 15.8249 1.04133C16.2225 1.07587 16.5901 1.26648 16.8468 1.57121C17.1034 1.87595 17.2281 2.26985 17.1934 2.66626C17.1587 3.06268 16.9676 3.42913 16.662 3.68501C16.6139 3.72461 16.5573 3.76541 16.508 3.79901L14.6352 4.99901C16.6271 5.31101 18.4589 5.86661 19.6625 6.57101L19.7468 6.62261ZM11.4987 21.3502C14.7616 21.3502 18.2592 20.5762 19.3773 18.853C20.83 16.339 20.9263 10.5094 18.3229 8.86181C16.8895 8.02661 13.9684 7.37621 11.1521 7.37621C8.48976 7.37621 6.06217 7.95581 4.93443 9.51581C3.90417 10.9954 3.53107 13.4122 3.75854 15.6358C4.02814 17.8594 4.75389 19.8898 6.63266 20.6302C7.85428 21.0994 9.63796 21.3502 11.4987 21.3502Z" fill="#A8A29E"/>
<path d="M61.1409 12.9943C61.1409 13.9531 61.0106 14.8038 60.7503 15.5465C60.49 16.2892 60.1126 16.9137 59.6187 17.4201C59.1246 17.9265 58.5271 18.3113 57.826 18.5747C57.125 18.8313 56.3339 18.9596 55.4526 18.9596C54.6314 18.9596 53.877 18.8313 53.1893 18.5747C52.5083 18.3113 51.9141 17.9265 51.4068 17.4201C50.8993 16.9137 50.5054 16.2892 50.225 15.5465C49.9513 14.8038 49.8145 13.9531 49.8145 12.9943C49.8145 11.7249 50.0414 10.6514 50.4954 9.7736C50.956 8.89585 51.6103 8.22741 52.4582 7.76828C53.3129 7.30915 54.331 7.07959 55.5127 7.07959C56.6009 7.07959 57.569 7.30915 58.4169 7.76828C59.2649 8.22741 59.9291 8.89585 60.4098 9.7736C60.8971 10.6514 61.1409 11.7249 61.1409 12.9943ZM53.7902 12.9943C53.7902 13.6492 53.8469 14.2029 53.9604 14.6552C54.0739 15.1009 54.2542 15.4418 54.5013 15.6782C54.755 15.9078 55.0854 16.0225 55.4926 16.0225C55.8999 16.0225 56.2237 15.9078 56.464 15.6782C56.7044 15.4418 56.8779 15.1009 56.9848 14.6552C57.0983 14.2029 57.1551 13.6492 57.1551 12.9943C57.1551 12.3393 57.0983 11.7924 56.9848 11.3536C56.8779 10.9147 56.701 10.5838 56.454 10.361C56.2137 10.1382 55.8866 10.0268 55.4727 10.0268C54.8785 10.0268 54.4478 10.2766 54.1807 10.7763C53.9204 11.2759 53.7902 12.0152 53.7902 12.9943Z" fill="#78716C"/>
<path d="M48.6775 12.9943C48.6775 13.9531 48.5474 14.8038 48.2869 15.5465C48.0266 16.2892 47.6494 16.9137 47.1553 17.4201C46.6613 17.9265 46.0637 18.3113 45.3627 18.5747C44.6617 18.8313 43.8706 18.9596 42.9893 18.9596C42.1681 18.9596 41.4136 18.8313 40.726 18.5747C40.045 18.3113 39.4508 17.9265 38.9434 17.4201C38.436 16.9137 38.042 16.2892 37.7616 15.5465C37.4879 14.8038 37.3511 13.9531 37.3511 12.9943C37.3511 11.7249 37.5781 10.6514 38.0321 9.7736C38.4928 8.89585 39.147 8.22741 39.9949 7.76828C40.8495 7.30915 41.8676 7.07959 43.0494 7.07959C44.1376 7.07959 45.1057 7.30915 45.9536 7.76828C46.8015 8.22741 47.4657 8.89585 47.9464 9.7736C48.4339 10.6514 48.6775 11.7249 48.6775 12.9943ZM41.3268 12.9943C41.3268 13.6492 41.3836 14.2029 41.4971 14.6552C41.6106 15.1009 41.7908 15.4418 42.0379 15.6782C42.2916 15.9078 42.6221 16.0225 43.0293 16.0225C43.4365 16.0225 43.7604 15.9078 44.0007 15.6782C44.241 15.4418 44.4147 15.1009 44.5214 14.6552C44.6349 14.2029 44.6917 13.6492 44.6917 12.9943C44.6917 12.3393 44.6349 11.7924 44.5214 11.3536C44.4147 10.9147 44.2378 10.5838 43.9907 10.361C43.7503 10.1382 43.4232 10.0268 43.0093 10.0268C42.4151 10.0268 41.9844 10.2766 41.7174 10.7763C41.457 11.2759 41.3268 12.0152 41.3268 12.9943Z" fill="#78716C"/>
<path d="M36.5943 18.7571H27.2007V16.4986L31.8975 10.3105H27.4711V7.28223H36.374V9.73317L31.8775 15.7289H36.5943V18.7571Z" fill="#78716C"/>
<path d="M74.9298 18.7582L70.7695 7.71826H72.5496L74.9597 14.3966C75.1264 14.8533 75.2964 15.357 75.4698 15.9076C75.6431 16.4582 75.7631 16.9015 75.8298 17.2372H75.8997C75.9798 16.9015 76.1131 16.4582 76.2998 15.9076C76.4865 15.3502 76.6565 14.8466 76.8099 14.3966L79.22 7.71826H81.0001L76.8299 18.7582H74.9298Z" fill="#78716C"/>
<path d="M68.7593 17.5897C69.0328 17.5897 69.3127 17.5662 69.5994 17.5192C69.8861 17.4723 70.1195 17.4151 70.2994 17.3479V18.6474C70.1061 18.7347 69.836 18.8086 69.4894 18.8691C69.1494 18.9294 68.816 18.9597 68.4893 18.9597C67.9093 18.9597 67.3826 18.859 66.9092 18.6575C66.4358 18.4493 66.0559 18.1001 65.7692 17.6099C65.4892 17.1197 65.3491 16.4415 65.3491 15.5752V9.0277H63.7891V8.21178L65.3591 7.55704L66.0191 5.15967H67.0192V7.71821H70.2295V9.0277H67.0192V15.5248C67.0192 16.2165 67.1759 16.7335 67.4893 17.076C67.8093 17.4185 68.2326 17.5897 68.7593 17.5897Z" fill="#78716C"/>
</g>
</g>
<defs>
<clipPath id="clip0_128_122">
<rect width="81" height="24" fill="white"/>
</clipPath>
</defs>
</svg>
