<svg width="94" height="24" viewBox="0 0 94 24" fill="none" xmlns="http://www.w3.org/2000/svg">
<g clip-path="url(#clip0_128_66)">
<mask id="mask0_128_66" style="mask-type:luminance" maskUnits="userSpaceOnUse" x="0" y="0" width="94" height="24">
<path d="M94 0H0V24H94V0Z" fill="white"/>
</mask>
<g mask="url(#mask0_128_66)">
<mask id="mask1_128_66" style="mask-type:luminance" maskUnits="userSpaceOnUse" x="0" y="0" width="25" height="24">
<path d="M24.1025 24V0L-2.47955e-05 0V24H24.1025Z" fill="white"/>
</mask>
<g mask="url(#mask1_128_66)">
<path d="M4.0392e-07 1.00478e-07C-0.000826554 3.18216 1.26817 6.23431 3.52783 8.48509C5.7875 10.7359 8.85275 12.001 12.0493 12.0019V1.00478e-07H4.0392e-07ZM12.0493 12.0019H24.1026V1.00478e-07C22.5194 -0.000203863 20.9516 0.31012 19.489 0.91324C18.0264 1.51636 16.6974 2.40046 15.5781 3.51502C14.4588 4.62959 13.5709 5.95278 12.9655 7.40899C12.36 8.8652 12.0487 10.4259 12.0493 12.0019ZM12.0493 12.0019V24H24.1026C24.1027 22.4243 23.7909 20.864 23.1852 19.4082C22.5795 17.9525 21.6917 16.6297 20.5724 15.5156C19.4532 14.4014 18.1244 13.5176 16.662 12.9148C15.1996 12.3119 13.6322 12.0017 12.0493 12.0019ZM12.0493 12.0019H4.0392e-07V24C3.19604 23.9994 6.26094 22.735 8.52058 20.485C10.7802 18.235 12.0495 15.1836 12.0493 12.0019Z" fill="#A8A29E"/>
</g>
<path d="M93.8821 3.88232V19.5972H92.0815V3.88232H93.8821Z" fill="#78716C"/>
<path d="M84.4819 19.7657C83.3731 19.7657 82.4446 19.481 81.6961 18.9115C80.9547 18.3419 80.584 17.5017 80.584 16.3907C80.584 15.7509 80.7075 15.2306 80.9547 14.8298C81.2088 14.429 81.5443 14.1161 81.961 13.8911C82.3846 13.6591 82.8612 13.4833 83.3908 13.3637C83.9275 13.2442 84.4747 13.1493 85.0326 13.079C85.7458 12.9806 86.3071 12.9068 86.7166 12.8575C87.1263 12.8083 87.4157 12.7274 87.5852 12.6149C87.7617 12.5025 87.8501 12.3056 87.8501 12.0243V11.9188C87.8501 11.3142 87.6311 10.8149 87.1934 10.4212C86.7626 10.0274 86.1553 9.83057 85.3715 9.83057C84.5948 9.83057 83.9557 10.0204 83.4544 10.4001C82.9601 10.7727 82.6918 11.2368 82.6493 11.7923H80.8169C80.8522 11.1102 81.0641 10.5056 81.4525 9.97822C81.8408 9.44384 82.3705 9.02197 83.0412 8.7126C83.7121 8.40322 84.4888 8.24854 85.3715 8.24854C86.6778 8.24854 87.7123 8.58604 88.4749 9.26104C89.2446 9.929 89.6294 10.8149 89.6294 11.9188V19.597H87.8501V18.0149H87.8076C87.6735 18.2822 87.4757 18.5528 87.2145 18.8271C86.9532 19.0942 86.6002 19.3192 86.1553 19.5021C85.7175 19.6778 85.1597 19.7657 84.4819 19.7657ZM84.736 18.1625C85.4704 18.1625 86.0671 18.0325 86.526 17.7724C86.985 17.5052 87.3204 17.1607 87.5323 16.7387C87.7441 16.3169 87.8501 15.8633 87.8501 15.3782V13.9861C87.7158 14.1125 87.3592 14.2286 86.7803 14.3341C86.2012 14.4325 85.5904 14.5274 84.9479 14.6188C84.517 14.6751 84.1075 14.7735 83.7191 14.9141C83.3378 15.0477 83.0271 15.2411 82.7871 15.4942C82.547 15.7403 82.427 16.0743 82.427 16.4962C82.427 17.0165 82.6317 17.4243 83.0412 17.7196C83.4578 18.0149 84.0228 18.1625 84.736 18.1625Z" fill="#78716C"/>
<path d="M70.5904 24.0056V22.4235H71.692C72.3556 22.4235 72.8606 21.9771 73.2066 21.0841L73.821 19.5021L69.4888 8.45947H71.4377L73.8527 14.872C74.008 15.2869 74.1598 15.7052 74.3082 16.1271C74.4635 16.5419 74.6118 16.9568 74.753 17.3716C74.9012 16.9568 75.0496 16.5419 75.1978 16.1271C75.3532 15.7052 75.5086 15.2869 75.664 14.872L78.0365 8.45947H79.9536L74.7954 21.6641C74.5058 22.4095 74.0927 22.9861 73.5561 23.3938C73.0194 23.8017 72.3981 24.0056 71.692 24.0056H70.5904Z" fill="#78716C"/>
<path d="M66.2527 19.5969V8.45938H68.0533V19.5969H66.2527ZM67.1531 6.28672C66.8141 6.28672 66.5246 6.16718 66.2845 5.92812C66.0443 5.68907 65.9243 5.40078 65.9243 5.06328C65.9243 4.72578 66.0443 4.4375 66.2845 4.19844C66.5246 3.95938 66.8141 3.83984 67.1531 3.83984C67.4919 3.83984 67.7814 3.95938 68.0216 4.19844C68.2617 4.4375 68.3817 4.72578 68.3817 5.06328C68.3817 5.40078 68.2617 5.68907 68.0216 5.92812C67.7814 6.16718 67.4919 6.28672 67.1531 6.28672Z" fill="#78716C"/>
<path d="M58.4834 19.8081C57.5161 19.8081 56.6652 19.5655 55.9307 19.0804C55.2035 18.5881 54.6386 17.9097 54.2361 17.0448C53.8336 16.1729 53.6323 15.1675 53.6323 14.0284C53.6323 12.8824 53.8336 11.8769 54.2361 11.012C54.6386 10.1401 55.2035 9.46162 55.9307 8.97646C56.6652 8.49131 57.5161 8.24873 58.4834 8.24873C59.2107 8.24873 59.8851 8.40341 60.5065 8.71279C61.1279 9.01513 61.6187 9.4792 61.9788 10.105H62V3.88232H63.8006V19.5972H62.0423V17.9097H62.0212C61.6187 18.5495 61.1103 19.0276 60.4959 19.344C59.8816 19.6534 59.2107 19.8081 58.4834 19.8081ZM58.7588 18.1944C59.7969 18.1944 60.6195 17.8147 61.2268 17.0554C61.8411 16.296 62.1482 15.2871 62.1482 14.0284C62.1482 12.7698 61.8411 11.7608 61.2268 11.0015C60.6195 10.2351 59.7969 9.85186 58.7588 9.85186C57.7915 9.85186 56.997 10.2069 56.3757 10.9171C55.7613 11.6272 55.4541 12.6643 55.4541 14.0284C55.4541 15.3925 55.7613 16.4296 56.3757 17.1397C56.997 17.8428 57.7915 18.1944 58.7588 18.1944Z" fill="#78716C"/>
<path d="M46.6044 19.7657C45.4958 19.7657 44.5673 19.481 43.8188 18.9115C43.0772 18.3419 42.7065 17.5017 42.7065 16.3907C42.7065 15.7509 42.8301 15.2306 43.0772 14.8298C43.3315 14.429 43.6669 14.1161 44.0835 13.8911C44.5071 13.6591 44.9839 13.4833 45.5134 13.3637C46.05 13.2442 46.5973 13.1493 47.1552 13.079C47.8683 12.9806 48.4297 12.9068 48.8393 12.8575C49.2488 12.8083 49.5384 12.7274 49.7079 12.6149C49.8844 12.5025 49.9726 12.3056 49.9726 12.0243V11.9188C49.9726 11.3142 49.7538 10.8149 49.3159 10.4212C48.8852 10.0274 48.278 9.83057 47.4942 9.83057C46.7173 9.83057 46.0784 10.0204 45.5769 10.4001C45.0827 10.7727 44.8143 11.2368 44.772 11.7923H42.9396C42.9749 11.1102 43.1867 10.5056 43.5751 9.97822C43.9635 9.44384 44.493 9.02197 45.1639 8.7126C45.8347 8.40322 46.6114 8.24854 47.4942 8.24854C48.8004 8.24854 49.8349 8.58604 50.5976 9.26104C51.3672 9.929 51.7521 10.8149 51.7521 11.9188V19.597H49.9726V18.0149H49.9302C49.7961 18.2822 49.5984 18.5528 49.3372 18.8271C49.0759 19.0942 48.7228 19.3192 48.278 19.5021C47.8401 19.6778 47.2823 19.7657 46.6044 19.7657ZM46.8586 18.1625C47.593 18.1625 48.1896 18.0325 48.6487 17.7724C49.1076 17.5052 49.4431 17.1607 49.6548 16.7387C49.8667 16.3169 49.9726 15.8633 49.9726 15.3782V13.9861C49.8385 14.1125 49.4819 14.2286 48.9028 14.3341C48.3238 14.4325 47.713 14.5274 47.0704 14.6188C46.6397 14.6751 46.2301 14.7735 45.8418 14.9141C45.4605 15.0477 45.1498 15.2411 44.9096 15.4942C44.6696 15.7403 44.5495 16.0743 44.5495 16.4962C44.5495 17.0165 44.7543 17.4243 45.1639 17.7196C45.5805 18.0149 46.1454 18.1625 46.8586 18.1625Z" fill="#78716C"/>
<path d="M30.1284 19.5972V3.88232H35.9858C37.6311 3.88232 38.9338 4.31123 39.8942 5.16904C40.8615 6.01982 41.3453 7.17997 41.3453 8.6495C41.3453 9.76747 41.0417 10.7132 40.4344 11.4866C39.8342 12.2601 39.0186 12.805 37.9877 13.1214L41.5359 19.5972H39.3116L35.9858 13.4273C35.9363 13.4273 35.8869 13.4273 35.8375 13.4273H32.0349V19.5972H30.1284ZM32.0349 11.7397H35.9434C37.0379 11.7397 37.8958 11.4655 38.5172 10.9171C39.1457 10.3616 39.46 9.60576 39.46 8.6495C39.46 7.69326 39.1422 6.94091 38.5066 6.39247C37.8782 5.84404 37.0167 5.56982 35.9222 5.56982H32.0349V11.7397Z" fill="#78716C"/>
</g>
</g>
<defs>
<clipPath id="clip0_128_66">
<rect width="94" height="24" fill="white"/>
</clipPath>
</defs>
</svg>
