<svg width="103" height="24" viewBox="0 0 103 24" fill="none" xmlns="http://www.w3.org/2000/svg">
<g clip-path="url(#clip0_128_156)">
<path d="M12.0186 7.6296L0.180176 0V12.3288H23.857V0L12.0186 7.6296Z" fill="#A8A29E"/>
<path d="M12.0186 23.9998L23.857 12.3286L12.0186 7.62939L0.180176 12.3286L12.0186 23.9998Z" fill="#A8A29E"/>
<path d="M9.42139 21.4394L12.0186 24.0002L14.6159 21.4394L12.0186 18.8618L9.42139 21.4394Z" fill="#78716C"/>
<path d="M0.180176 12.3286L12.0186 7.62939L23.857 12.3286L12.0186 18.8614L0.180176 12.3286Z" fill="#8F8884"/>
<path d="M28.4272 18.4741V5.97656H35.7007L35.4102 7.91013H31.0864V11.4501H34.8479V13.3799H31.0864V18.4741H28.4272Z" fill="#78716C"/>
<path d="M46.6759 6.4561C47.5275 6.98774 48.1966 7.76603 48.5938 8.68715C49.4905 10.957 49.4905 13.4822 48.5938 15.7522C48.1935 16.6712 47.5251 17.4487 46.6759 17.9832C45.7776 18.5216 44.7439 18.7926 43.6964 18.764C42.6513 18.791 41.6194 18.5257 40.7171 17.9981C39.8622 17.4671 39.1893 16.689 38.788 15.767C38.3128 14.6485 38.0817 13.4418 38.1102 12.2272C38.0793 11.0267 38.3105 9.83393 38.788 8.73178C39.1929 7.80197 39.8674 7.01454 40.7246 6.47098C41.6191 5.92986 42.6509 5.65749 43.6964 5.6864C44.7425 5.65614 45.7758 5.92306 46.6759 6.4561ZM41.6408 8.75781C41.1765 9.47918 40.9443 10.6356 40.9443 12.2272C40.9443 13.8186 41.1789 14.9737 41.6482 15.6926C41.8633 16.038 42.1661 16.3202 42.5259 16.5109C42.8857 16.7016 43.2895 16.7939 43.6964 16.7784C44.1051 16.7993 44.5119 16.7107 44.8746 16.5217C45.2375 16.3327 45.543 16.0504 45.7597 15.7038C46.219 14.9849 46.4474 13.826 46.445 12.2272C46.4425 10.6282 46.214 9.46803 45.7597 8.74665C45.543 8.4001 45.2375 8.11772 44.8746 7.92876C44.5119 7.73981 44.1051 7.65117 43.6964 7.67202C43.2856 7.65176 42.8769 7.74178 42.5127 7.93274C42.1485 8.12369 41.8423 8.4086 41.6259 8.75781H41.6408Z" fill="#78716C"/>
<path d="M58.1691 11.7364L61.8226 18.4741H58.8916L56.5603 13.525L54.2625 18.4741H51.4209L54.9849 11.8294L51.7114 5.97656H54.6238L56.5939 10.1486L58.657 5.97656H61.4799L58.1691 11.7364Z" fill="#78716C"/>
<path d="M74.5289 18.4741V12.4429H68.5925V18.4927H67.5088V6.12158H68.5925V11.5207H74.5289V6.12158H75.6127V18.4927L74.5289 18.4741Z" fill="#78716C"/>
<path d="M89.415 14.6107C89.467 15.6937 89.0912 16.7539 88.3686 17.5632C87.6684 18.3068 86.6604 18.6787 85.3444 18.6787C84.0286 18.6787 83.0193 18.3068 82.3167 17.5632C81.5884 16.7485 81.2133 15.6787 81.2739 14.5884V6.12158H82.3614V14.5363C82.3614 15.5738 82.6035 16.3696 83.1062 16.9236C83.6089 17.4776 84.3427 17.7528 85.3407 17.7528C86.3389 17.7528 87.1023 17.4739 87.5752 16.9124C88.0959 16.2336 88.3525 15.3895 88.2978 14.5363V6.12158H89.415V14.6107Z" fill="#78716C"/>
<path d="M102.115 12.8147C102.646 13.3105 102.912 14.0542 102.912 15.0458C102.912 16.201 102.519 17.0624 101.735 17.63C100.95 18.1978 99.8591 18.4804 98.4613 18.4778H95.0908V6.12158H97.858C99.2918 6.12158 100.398 6.37815 101.176 6.89873C101.556 7.14841 101.864 7.49287 102.069 7.89793C102.274 8.303 102.369 8.75459 102.346 9.20787C102.38 9.88431 102.157 10.5487 101.72 11.0671C101.288 11.5448 100.704 11.8577 100.066 11.9521C100.825 12.009 101.544 12.3119 102.115 12.8147ZM96.156 7.01028V11.543H98.6512C99.3254 11.5758 99.9881 11.3601 100.513 10.9369C100.749 10.7295 100.935 10.4717 101.057 10.1826C101.179 9.89347 101.233 9.58062 101.217 9.26737C101.247 8.93153 101.186 8.59382 101.042 8.28918C100.897 7.98455 100.673 7.72404 100.394 7.53458C99.8454 7.18505 99.0286 7.01028 97.9436 7.01028H96.156ZM101.794 15.0458C101.823 14.6736 101.763 14.3 101.62 13.9552C101.477 13.6102 101.255 13.3037 100.971 13.0602C100.34 12.6002 99.5696 12.3706 98.789 12.4094H96.1821V17.5744H98.4798C100.69 17.5718 101.794 16.729 101.794 15.0458Z" fill="#78716C"/>
</g>
<defs>
<clipPath id="clip0_128_156">
<rect width="103" height="24" fill="white"/>
</clipPath>
</defs>
</svg>
