<svg width="84" height="24" viewBox="0 0 84 24" fill="none" xmlns="http://www.w3.org/2000/svg">
<g clip-path="url(#clip0_128_201)">
<mask id="mask0_128_201" style="mask-type:luminance" maskUnits="userSpaceOnUse" x="0" y="0" width="84" height="24">
<path d="M84 0H0V24H84V0Z" fill="white"/>
</mask>
<g mask="url(#mask0_128_201)">
<path d="M16.3433 4.32C16.3433 6.70588 14.4064 8.64 12.0171 8.64C9.62782 8.64 7.69092 6.70588 7.69092 4.32C7.69092 1.93412 9.62782 0 12.0171 0C14.4064 0 16.3433 1.93412 16.3433 4.32Z" fill="#A8A29E"/>
<path d="M0.526352 7.52051C0.374936 7.52051 0.224721 7.52051 0.0757082 7.53251C0.0255592 7.97315 0.000283212 8.41625 0 8.85971C0 15.4597 5.38009 20.8141 12.0172 20.8141C12.1686 20.8141 12.3176 20.8141 12.4678 20.8033H12.618C18.9763 20.4913 24.0343 15.2653 24.0343 8.86331C24.034 8.41988 24.0091 7.97681 23.9598 7.53611C17.6015 7.84811 12.5435 13.0741 12.5435 19.4761C12.5435 12.8737 7.16343 7.52051 0.526352 7.52051Z" fill="#A8A29E"/>
<path d="M12.63 21.0394H12.451C12.3814 21.0394 12.3104 21.0418 12.2386 21.0441C12.1653 21.0466 12.0912 21.049 12.0172 21.049C9.19435 21.0497 6.45762 20.0784 4.26851 18.2987C2.07939 16.5191 0.571809 14.0401 0 11.2798C0.120172 18.3262 5.45579 23.9998 12.0172 23.9998C18.5737 23.9998 23.9033 18.3322 24.0343 11.2894C23.4897 13.9494 22.0728 16.3523 20.0074 18.1181C17.9419 19.8839 15.346 20.9118 12.63 21.0394Z" fill="#A8A29E"/>
<path d="M74.6426 7.50732C76.0847 7.50732 77.2528 7.94652 78.1468 8.82492C79.0409 9.68892 79.488 10.9417 79.488 12.5833V19.5601H77.5412V12.8641C77.5412 11.6833 77.2456 10.7833 76.6543 10.1641C76.0631 9.53052 75.2555 9.21372 74.2317 9.21372C73.1934 9.21372 72.3642 9.53772 71.7441 10.1857C71.1384 10.8337 70.8356 11.7769 70.8356 13.0153V19.5601H68.8672V7.72332H70.8356V9.40812C71.225 8.80332 71.7513 8.33532 72.4147 8.00412C73.0924 7.67292 73.8351 7.50732 74.6426 7.50732Z" fill="#78716C"/>
<path d="M82.6819 19.6896C82.307 19.6896 81.9897 19.56 81.7302 19.3008C81.4706 19.0416 81.3408 18.7248 81.3408 18.3504C81.3408 17.976 81.4706 17.6592 81.7302 17.4C81.9897 17.1408 82.307 17.0112 82.6819 17.0112C83.0424 17.0112 83.3453 17.1408 83.5904 17.4C83.85 17.6592 83.9798 17.976 83.9798 18.3504C83.9798 18.7248 83.85 19.0416 83.5904 19.3008C83.3453 19.56 83.0424 19.6896 82.6819 19.6896Z" fill="#78716C"/>
<path fill-rule="evenodd" clip-rule="evenodd" d="M66.8532 14.376C66.8965 13.9584 66.9181 13.5624 66.9181 13.188C66.9181 12.108 66.6801 11.1432 66.2043 10.2936C65.7428 9.42961 65.0795 8.75281 64.2142 8.26321C63.349 7.77361 62.354 7.52881 61.2292 7.52881C60.0755 7.52881 59.0517 7.78081 58.1576 8.28481C57.2779 8.77441 56.5929 9.48001 56.1026 10.4016C55.6123 11.3232 55.3672 12.396 55.3672 13.62C55.3672 14.844 55.6195 15.924 56.1243 16.86C56.629 17.7816 57.3212 18.4944 58.2008 18.9984C59.0949 19.5024 60.1044 19.7544 61.2292 19.7544C62.6424 19.7544 63.8249 19.4016 64.7766 18.696C65.7284 17.976 66.3629 17.0472 66.6802 15.9096H64.5603C64.3296 16.572 63.9258 17.1048 63.349 17.508C62.7866 17.8968 62.08 18.0912 61.2292 18.0912C60.1909 18.0912 59.304 17.7672 58.5686 17.1192C57.8475 16.4568 57.451 15.5424 57.3789 14.376H66.8532ZM64.3873 10.8552C64.7189 11.388 64.8848 12.0288 64.8848 12.7776H57.4005C57.5014 11.6544 57.898 10.776 58.5902 10.1424C59.2968 9.50881 60.1476 9.19201 61.1426 9.19201C61.8348 9.19201 62.4621 9.33601 63.0245 9.62401C63.6013 9.89761 64.0556 10.308 64.3873 10.8552Z" fill="#78716C"/>
<path d="M49.0389 17.7455L52.7162 7.72314H54.8144L50.1637 19.5599H47.8709L43.2202 7.72314H45.34L49.0389 17.7455Z" fill="#78716C"/>
<path fill-rule="evenodd" clip-rule="evenodd" d="M30.6578 10.4232C30.1675 11.3304 29.9224 12.3888 29.9224 13.5984C29.9224 14.7936 30.1675 15.8592 30.6578 16.7952C31.1481 17.7312 31.8187 18.4584 32.6695 18.9768C33.5203 19.4952 34.4721 19.7544 35.5248 19.7544C36.5486 19.7544 37.4427 19.5312 38.207 19.0848C38.9857 18.624 39.5697 18.048 39.9591 17.3568V19.56H41.9491V7.72321H39.9591V9.88321C39.5842 9.20641 39.0146 8.64481 38.2503 8.19841C37.486 7.75201 36.5847 7.52881 35.5464 7.52881C34.4937 7.52881 33.5347 7.78081 32.6695 8.28481C31.8187 8.78881 31.1481 9.50161 30.6578 10.4232ZM39.4183 11.2872C39.7788 11.9496 39.9591 12.7272 39.9591 13.62C39.9591 14.5128 39.7788 15.2976 39.4183 15.9744C39.0578 16.6368 38.5675 17.148 37.9474 17.508C37.3418 17.8536 36.6712 18.0264 35.9358 18.0264C35.2003 18.0264 34.5297 17.8536 33.9241 17.508C33.3184 17.148 32.8353 16.6368 32.4748 15.9744C32.1143 15.2976 31.934 14.5056 31.934 13.5984C31.934 12.7056 32.1143 11.928 32.4748 11.2656C32.8353 10.6032 33.3184 10.0992 33.9241 9.75361C34.5297 9.40801 35.2003 9.23521 35.9358 9.23521C36.6712 9.23521 37.3418 9.41521 37.9474 9.77521C38.5675 10.1208 39.0578 10.6248 39.4183 11.2872Z" fill="#78716C"/>
</g>
</g>
<defs>
<clipPath id="clip0_128_201">
<rect width="84" height="24" fill="white"/>
</clipPath>
</defs>
</svg>
