<svg width="95" height="24" viewBox="0 0 95 24" fill="none" xmlns="http://www.w3.org/2000/svg">
<g clip-path="url(#clip0_128_110)">
<path d="M10.9476 7.27084C11.3142 7.11959 11.7077 7.04483 12.1041 7.05115C12.5034 7.04862 12.8993 7.12508 13.2688 7.27615C13.6384 7.42721 13.9745 7.64989 14.2578 7.93138C14.541 8.21286 14.7659 8.5476 14.9193 8.91634C15.0729 9.28507 15.1519 9.68052 15.152 10.08C15.1483 10.8825 14.8264 11.6508 14.257 12.2162C13.6876 12.7815 12.9171 13.0978 12.1149 13.0956C11.7137 13.0966 11.3161 13.018 10.9455 12.8642C10.5749 12.7104 10.2385 12.4843 9.9559 12.1993C9.67332 11.9142 9.45018 11.5758 9.29944 11.2038C9.1487 10.8317 9.07337 10.4334 9.07782 10.032C9.07516 9.63907 9.15321 9.24984 9.30714 8.8884C9.46106 8.52695 9.68759 8.20099 9.97265 7.93075C10.2493 7.64665 10.5811 7.4221 10.9476 7.27084Z" fill="#A8A29E"/>
<path fill-rule="evenodd" clip-rule="evenodd" d="M3.63335 3.51472C5.88285 1.26428 8.9338 0 12.1151 0C15.2964 0 18.3473 1.26428 20.5968 3.51472C22.8462 5.76516 24.11 8.8174 24.11 12C24.11 15.1826 22.8462 18.2348 20.5968 20.4853C18.3473 22.7357 15.2964 24 12.1151 24H2.9989C2.2354 24 1.50317 23.6965 0.963295 23.1565C0.423417 22.6164 0.120117 21.8838 0.120117 21.12V12C0.120117 8.8174 1.38387 5.76516 3.63335 3.51472ZM10.3266 21.6672L15.9319 14.0892C16.9859 12.6476 17.5128 11.3056 17.5128 10.0632C17.5128 8.6632 16.9718 7.4484 15.8899 6.4188C15.388 5.92026 14.7922 5.52638 14.1371 5.26003C13.4818 4.99368 12.7803 4.86016 12.0731 4.8672C11.3683 4.85794 10.669 4.99267 10.0181 5.26319C9.36716 5.53369 8.77827 5.93428 8.28748 6.4404C7.78146 6.92717 7.38095 7.51286 7.11082 8.16109C6.84071 8.80931 6.70677 9.50618 6.71734 10.2084C6.70582 10.8618 6.82451 11.5109 7.0665 12.1178C7.3085 12.7248 7.66892 13.2775 8.12675 13.7436C9.07594 14.73 10.1991 15.2232 11.4961 15.2232C11.5933 15.2232 11.7096 15.216 11.856 15.2028C12.0023 15.1896 12.1786 15.168 12.3862 15.1404L8.54777 20.3472L10.3266 21.6672Z" fill="#A8A29E"/>
<path d="M50.5903 17.7601V1.56006H48.6294V17.7601H50.5903Z" fill="#78716C"/>
<path d="M77.5127 6.34814V17.7599H75.5518V6.34814H77.5127Z" fill="#78716C"/>
<path d="M75.4038 3.32139C75.4038 3.00498 75.4987 2.7378 75.6885 2.51982C75.8853 2.30186 76.1734 2.19287 76.5529 2.19287C76.9254 2.19287 77.21 2.30186 77.4068 2.51982C77.6106 2.7378 77.7126 3.00498 77.7126 3.32139C77.7126 3.62374 77.6106 3.88389 77.4068 4.10185C77.21 4.3128 76.9254 4.41827 76.5529 4.41827C76.1734 4.41827 75.8853 4.3128 75.6885 4.10185C75.4987 3.88389 75.4038 3.62374 75.4038 3.32139Z" fill="#78716C"/>
<path d="M84.7713 7.8457V6.34804H82.6417V3.57422H80.6914V6.34804H78.604V7.8457H80.6914V14.9226C80.6914 15.6821 80.8074 16.2868 81.0392 16.7368C81.2782 17.1797 81.5979 17.4961 81.9986 17.686C82.3992 17.8758 82.8385 17.9707 83.3165 17.9707C83.6678 17.9707 83.9666 17.9461 84.2125 17.8969C84.4656 17.8547 84.6694 17.809 84.824 17.7598L84.8134 16.1672C84.722 16.1882 84.5851 16.2164 84.4022 16.2516C84.2266 16.2797 84.0579 16.2937 83.8963 16.2937C83.6784 16.2937 83.4746 16.2622 83.2848 16.1988C83.095 16.1356 82.9404 16.0055 82.8209 15.8086C82.7015 15.6118 82.6417 15.3199 82.6417 14.9332V7.8457H84.7713Z" fill="#78716C"/>
<path d="M89.2284 17.6367L85.1567 6.34814H87.2863L90.1412 14.886L92.7895 6.34814H94.877L90.3015 19.5212C90.1961 19.8024 90.0555 20.1048 89.8797 20.4282C89.7111 20.7587 89.4933 21.0716 89.2261 21.367C88.9591 21.6623 88.6357 21.9013 88.2562 22.0841C87.8838 22.2739 87.4375 22.3688 86.9174 22.3688C86.7627 22.3688 86.566 22.3477 86.327 22.3056C86.088 22.2633 85.9194 22.2282 85.821 22.2001L85.8105 20.618C85.8666 20.6251 85.9545 20.6322 86.074 20.6391C86.2005 20.6532 86.2883 20.6603 86.3375 20.6603C86.7804 20.6603 87.1563 20.6005 87.4656 20.481C87.7749 20.3684 88.0349 20.1751 88.2457 19.9009C88.4636 19.6337 88.6499 19.2646 88.8045 18.7934L89.2284 17.6367Z" fill="#78716C"/>
<path d="M70.5905 16.0829C70.1969 16.2727 69.7681 16.3676 69.3043 16.3676C68.6998 16.3676 68.1938 16.2517 67.7862 16.0196C67.3856 15.7806 67.0658 15.4641 66.8268 15.0704C66.5948 14.6767 66.4297 14.2373 66.3313 13.7521C66.233 13.2669 66.1838 12.7747 66.1838 12.2755V11.8325C66.1838 11.3333 66.233 10.8446 66.3313 10.3665C66.4367 9.88135 66.6054 9.4419 66.8374 9.04814C67.0763 8.64737 67.3961 8.33096 67.7967 8.09893C68.2043 7.85987 68.7069 7.74033 69.3043 7.74033C69.8244 7.74033 70.2778 7.85635 70.6642 8.08838C71.0578 8.31338 71.3672 8.61572 71.5921 8.99541C71.8239 9.37511 71.9574 9.8005 71.9926 10.2716H73.8481C73.8129 9.48409 73.6021 8.78096 73.2156 8.16221C72.8361 7.53643 72.3124 7.04424 71.6447 6.68564C70.9771 6.32003 70.1969 6.13721 69.3043 6.13721C68.4469 6.13721 67.6984 6.28838 67.0588 6.59072C66.4262 6.89308 65.8991 7.30791 65.4774 7.83525C65.0627 8.36261 64.75 8.9708 64.5392 9.65987C64.3352 10.3419 64.2334 11.0661 64.2334 11.8325V12.2755C64.2334 13.0419 64.3352 13.7696 64.5392 14.4587C64.75 15.1407 65.0627 15.7454 65.4774 16.2727C65.8991 16.8001 66.4262 17.2149 67.0588 17.5173C67.6984 17.8196 68.4469 17.9708 69.3043 17.9708C70.1126 17.9708 70.854 17.795 71.5287 17.4434C72.2034 17.0849 72.7481 16.6173 73.1628 16.0407C73.5845 15.4572 73.8129 14.8278 73.8481 14.1528H71.9926C71.9574 14.5818 71.8134 14.9649 71.5604 15.3024C71.3073 15.6329 70.984 15.893 70.5905 16.0829Z" fill="#78716C"/>
<path fill-rule="evenodd" clip-rule="evenodd" d="M52.5571 12.1806V11.938C52.5571 11.1153 52.6766 10.3524 52.9155 9.64932C53.1546 8.93916 53.499 8.32393 53.9488 7.80361C54.3986 7.27627 54.9433 6.86846 55.5829 6.58017C56.2224 6.28487 56.9392 6.13721 57.7334 6.13721C58.5347 6.13721 59.2551 6.28487 59.8947 6.58017C60.5413 6.86846 61.0895 7.27627 61.5393 7.80361C61.9962 8.32393 62.344 8.93916 62.583 9.64932C62.8219 10.3524 62.9414 11.1153 62.9414 11.938V12.1806C62.9414 13.0032 62.8219 13.7661 62.583 14.4692C62.344 15.1724 61.9962 15.7875 61.5393 16.3149C61.0895 16.8353 60.5448 17.243 59.9052 17.5383C59.2726 17.8267 58.5558 17.9708 57.7545 17.9708C56.9534 17.9708 56.233 17.8267 55.5934 17.5383C54.9538 17.243 54.4055 16.8353 53.9488 16.3149C53.499 15.7875 53.1546 15.1724 52.9155 14.4692C52.6766 13.7661 52.5571 13.0032 52.5571 12.1806ZM54.5075 11.938V12.1806C54.5075 12.7501 54.5743 13.2879 54.7078 13.7942C54.8413 14.2934 55.0416 14.7365 55.3088 15.1231C55.5829 15.5099 55.9238 15.8157 56.3313 16.0407C56.7389 16.2587 57.2134 16.3676 57.7545 16.3676C58.2887 16.3676 58.7561 16.2587 59.1567 16.0407C59.5643 15.8157 59.9018 15.5099 60.1688 15.1231C60.4359 14.7365 60.6362 14.2934 60.7697 13.7942C60.9103 13.2879 60.9806 12.7501 60.9806 12.1806V11.938C60.9806 11.3755 60.9103 10.8446 60.7697 10.3454C60.6362 9.83916 60.4323 9.39267 60.1582 9.00596C59.8912 8.61221 59.5538 8.30283 59.1462 8.07783C58.7456 7.85283 58.2746 7.74033 57.7334 7.74033C57.1993 7.74033 56.7285 7.85283 56.3208 8.07783C55.9202 8.30283 55.5829 8.61221 55.3088 9.00596C55.0416 9.39267 54.8413 9.83916 54.7078 10.3454C54.5743 10.8446 54.5075 11.3755 54.5075 11.938Z" fill="#78716C"/>
<path fill-rule="evenodd" clip-rule="evenodd" d="M42.4037 17.9708C41.6095 17.9708 40.8891 17.8373 40.2424 17.57C39.6029 17.2958 39.0511 16.9125 38.5873 16.4204C38.1305 15.9282 37.779 15.3446 37.533 14.6696C37.287 13.9946 37.1641 13.2564 37.1641 12.4548V12.0119C37.1641 11.0837 37.3012 10.2575 37.5753 9.5333C37.8493 8.80206 38.2218 8.1833 38.6927 7.67706C39.1636 7.1708 39.6978 6.78761 40.2952 6.52745C40.8926 6.26729 41.511 6.13721 42.1506 6.13721C42.9659 6.13721 43.6688 6.27783 44.2591 6.55909C44.8565 6.84033 45.345 7.23409 45.7245 7.74033C46.104 8.23956 46.3852 8.83017 46.568 9.51221C46.7507 10.1872 46.8421 10.9255 46.8421 11.7271V12.6024H39.1268C39.139 13.0891 39.2122 13.5497 39.3463 13.9841C39.5009 14.4552 39.7223 14.87 40.0106 15.2286C40.3057 15.5873 40.6606 15.8684 41.0754 16.0724C41.497 16.2763 41.975 16.3782 42.5091 16.3782C43.1979 16.3782 43.7812 16.2375 44.2591 15.9564C44.7371 15.6751 45.1552 15.2989 45.5136 14.8278L46.6944 15.7665C46.4484 16.1391 46.1357 16.4942 45.7562 16.8318C45.3766 17.1692 44.9092 17.4434 44.354 17.6544C43.8058 17.8653 43.1557 17.9708 42.4037 17.9708ZM39.1839 11.0099H44.8917V10.8622C44.8636 10.356 44.7582 9.86377 44.5754 9.38564C44.3997 8.90753 44.1186 8.51377 43.732 8.2044C43.3454 7.89503 42.8184 7.74033 42.1506 7.74033C41.7079 7.74033 41.3002 7.83525 40.9277 8.02511C40.5553 8.20791 40.2355 8.48213 39.9684 8.84775C39.7012 9.21338 39.494 9.65987 39.3463 10.1872C39.2749 10.4425 39.2207 10.7167 39.1839 11.0099Z" fill="#78716C"/>
<path d="M31.0013 17.7599L26.8687 6.34814H28.8717L31.7691 15.0913L34.5963 6.34814H36.5888L32.4878 17.7599H31.0013Z" fill="#78716C"/>
</g>
<defs>
<clipPath id="clip0_128_110">
<rect width="95" height="24" fill="white"/>
</clipPath>
</defs>
</svg>
