<svg width="93" height="24" viewBox="0 0 93 24" fill="none" xmlns="http://www.w3.org/2000/svg">
<g clip-path="url(#clip0_128_96)">
<mask id="mask0_128_96" style="mask-type:luminance" maskUnits="userSpaceOnUse" x="0" y="0" width="93" height="24">
<path d="M93 0H0V24H93V0Z" fill="white"/>
</mask>
<g mask="url(#mask0_128_96)">
<path d="M20.3192 3.73313C19.2459 2.58161 17.951 1.65767 16.5118 1.01651C15.0725 0.375351 13.5184 0.0301249 11.9424 0.00145686C10.3664 -0.0272112 8.80078 0.261269 7.33904 0.849661C5.87731 1.43805 4.54947 2.31429 3.43488 3.42601C2.32028 4.53773 1.44177 5.86214 0.851861 7.3201C0.261946 8.77807 -0.0272803 10.3397 0.0014619 11.9116C0.030204 13.4836 0.376325 15.0336 1.01915 16.4692C1.66196 17.9048 2.58829 19.1963 3.74279 20.2667C4.81602 21.4182 6.11094 22.3422 7.55019 22.9834C8.98945 23.6246 10.5435 23.9698 12.1196 23.9984C13.6955 24.027 15.2612 23.7386 16.7229 23.1502C18.1847 22.5618 19.5125 21.6856 20.6271 20.5739C21.7417 19.4621 22.6202 18.1377 23.2102 16.6798C23.8 15.2218 24.0893 13.6602 24.0605 12.0882C24.0318 10.5163 23.6856 8.96624 23.0428 7.5307C22.4 6.09517 21.4737 4.80359 20.3192 3.73313ZM0.180405 11.6999C0.181322 9.60297 0.756072 7.54603 1.84269 5.75086C2.92931 3.9557 4.48658 2.49041 6.34661 1.51298C8.20665 0.535534 10.2989 0.0830212 12.3977 0.204221C14.4967 0.325419 16.5226 1.01573 18.2571 2.20073C16.4606 1.14928 14.4147 0.596555 12.3318 0.599939H11.9107C10.2951 0.599098 8.69987 0.959582 7.24241 1.65487C5.78494 2.35016 4.50233 3.36254 3.48894 4.61753C1.87628 6.4645 0.88512 8.7695 0.655043 11.2079C0.424968 13.6463 0.96757 16.0953 2.20643 18.2099C0.884301 16.2953 0.177653 14.0248 0.180405 11.6999ZM10.5536 21.7907C9.12855 21.6488 7.7508 21.2028 6.51381 20.4831C5.27681 19.7632 4.20951 18.7865 3.38432 17.619C2.55913 16.4516 1.99536 15.1208 1.73125 13.7169C1.46714 12.3129 1.50888 10.8688 1.85363 9.48235C2.19839 8.09594 2.83809 6.79971 3.72934 5.68161C4.62059 4.56351 5.74252 3.6497 7.01904 3.00218C8.29556 2.35466 9.69678 1.98856 11.1276 1.92875C12.5585 1.86895 13.9855 2.11682 15.3119 2.65553C14.0075 2.19955 12.622 2.02025 11.2442 2.12917C9.86632 2.23807 8.52646 2.63277 7.31038 3.28799C6.0943 3.94321 5.0288 4.8445 4.18212 5.93416C3.33543 7.02382 2.72622 8.27783 2.39349 9.61589C2.06076 10.954 2.01184 12.3466 2.24987 13.7045C2.48791 15.0626 3.00765 16.356 3.77581 17.5022C4.54395 18.6482 5.5436 19.6217 6.71073 20.3602C7.87786 21.0987 9.18675 21.5859 10.5536 21.7907ZM12.031 8.84753C15.4093 3.28793 24.2365 11.5427 12.031 18.1835C-0.17451 11.5427 8.65266 3.28793 12.031 8.84753ZM15.7607 21.1751C17.21 20.5892 18.5001 19.6697 19.5257 18.4919C20.5512 17.3141 21.283 15.9112 21.6616 14.3976C22.0403 12.8841 22.0548 11.3026 21.7042 9.78237C21.3536 8.2621 20.6478 6.84601 19.6443 5.64953C18.2806 3.88034 16.3724 2.60642 14.2127 2.02331C12.0532 1.44022 9.76126 1.58017 7.68905 2.42169C5.61683 3.2632 3.87877 4.75978 2.74165 6.68169C1.60454 8.6036 1.13121 10.8446 1.39433 13.0607C1.16161 11.5967 1.23935 10.1002 1.62253 8.66803C2.0057 7.23581 2.68579 5.89969 3.61887 4.74593C4.67848 3.52816 5.98303 2.54627 7.44781 1.86405C8.91259 1.18182 10.5049 0.814497 12.1213 0.785939C14.8097 0.838156 17.3788 1.90304 19.3126 3.76672C21.2463 5.63039 22.4014 8.15482 22.546 10.833C22.6905 13.5112 21.8138 16.1447 20.0918 18.2046C18.3699 20.2647 15.9303 21.5985 13.263 21.9383C14.1249 21.7922 14.9644 21.5356 15.7607 21.1751ZM3.87393 20.1359C2.35529 18.5091 1.34166 16.4783 0.955631 14.289C0.569602 12.0999 0.827703 9.84596 1.69872 7.79993C0.988281 9.80629 0.88786 11.9772 1.41007 14.0403C1.93228 16.1033 3.05383 17.9666 4.63397 19.3961C6.21411 20.8257 8.18241 21.7578 10.2918 22.0755C12.4012 22.3932 14.5577 22.0824 16.4906 21.182C18.4235 20.2816 20.0466 18.8318 21.1563 17.0145C22.266 15.1972 22.8128 13.0935 22.728 10.9673C22.6431 8.84123 21.9307 6.78747 20.6797 5.06385C19.4288 3.34023 17.6954 2.02357 15.6969 1.27913C17.371 1.79008 18.9068 2.67395 20.1881 3.86393C22.2204 6.04769 23.3249 8.93225 23.2694 11.9113C23.2138 14.8904 22.0026 17.732 19.8902 19.8389C17.7779 21.9458 14.9289 23.1539 11.9421 23.2092C8.95537 23.2647 6.06334 22.1631 3.87393 20.1359ZM12.3318 23.8199C10.0009 23.8227 7.72448 23.1178 5.80491 21.7991C8.04407 23.1051 10.654 23.6342 13.2266 23.3036C15.7992 22.973 18.1895 21.8013 20.0236 19.9719C21.8577 18.1425 23.0323 15.7584 23.3638 13.1925C23.6953 10.6265 23.1649 8.02331 21.8556 5.78993C23.0437 7.51997 23.7357 9.54065 23.8572 11.6341C23.9787 13.7276 23.525 15.8144 22.5451 17.6697C21.5652 19.5249 20.096 21.0782 18.2962 22.162C16.4965 23.2457 14.4341 23.8191 12.3318 23.8199Z" fill="#A8A29E"/>
<path d="M41.1677 5.42987C41.4582 5.71966 41.8248 5.86455 42.2676 5.86455C42.7242 5.86455 43.0907 5.71966 43.3675 5.42987C43.658 5.1263 43.8032 4.75372 43.8032 4.31216C43.8032 3.88438 43.658 3.51871 43.3675 3.21513C43.0907 2.91155 42.7242 2.75977 42.2676 2.75977C41.8248 2.75977 41.4582 2.91155 41.1677 3.21513C40.8771 3.51871 40.7319 3.88438 40.7319 4.31216C40.7319 4.75372 40.8771 5.1263 41.1677 5.42987Z" fill="#78716C"/>
<path d="M41.0703 6.89941V17.221H43.8095V6.89941H41.0703Z" fill="#78716C"/>
<path d="M32.0159 16.5454C32.7076 16.918 33.4962 17.1042 34.3816 17.1042C35.267 17.1042 36.0488 16.9249 36.7266 16.5661C37.4184 16.1935 37.951 15.6761 38.3246 15.0137C38.712 14.3514 38.9056 13.5786 38.9056 12.6955V6.8999H36.187V12.6334C36.187 13.2544 36.028 13.7373 35.7097 14.0823C35.3915 14.4273 34.9489 14.5997 34.3816 14.5997C34.0081 14.5997 33.683 14.5239 33.4063 14.3721C33.1296 14.2203 32.922 13.9995 32.7837 13.7097C32.6453 13.4062 32.5761 13.0474 32.5761 12.6334V6.8999H29.8369V12.6955C29.8369 13.5648 30.0306 14.3307 30.418 14.9931C30.8053 15.6553 31.338 16.1728 32.0159 16.5454Z" fill="#78716C"/>
<path d="M87.9778 17.2492C88.462 17.3872 88.967 17.4562 89.4927 17.4562C90.5718 17.4562 91.4226 17.201 92.0452 16.6904C92.6817 16.166 92.9999 15.4692 92.9999 14.5999C92.9999 13.9789 92.8684 13.489 92.6055 13.1302C92.3565 12.7576 92.0245 12.4678 91.6095 12.261C91.1944 12.0402 90.7586 11.8676 90.3021 11.7435C89.8455 11.6055 89.4097 11.4744 88.9946 11.3502C88.5935 11.2122 88.2615 11.0397 87.9986 10.8327C87.7357 10.6119 87.6043 10.3152 87.6043 9.94267C87.6043 9.55631 87.7634 9.24583 88.0816 9.01124C88.4137 8.76286 88.8909 8.63867 89.5135 8.63867C90.053 8.63867 90.5373 8.74217 90.9662 8.94914C91.4088 9.14233 91.7755 9.42521 92.0661 9.79778L92.9999 8.86636C92.6402 8.35579 92.1629 7.96942 91.568 7.70724C90.973 7.44505 90.309 7.31396 89.5757 7.31396C88.884 7.31396 88.2822 7.43125 87.7704 7.66584C87.2723 7.88663 86.8849 8.204 86.6082 8.61797C86.3453 9.01814 86.2139 9.49421 86.2139 10.0462C86.2139 10.6257 86.3384 11.0949 86.5875 11.4537C86.8502 11.8124 87.1893 12.0954 87.6043 12.3024C88.0193 12.4954 88.4552 12.661 88.9116 12.799C89.3682 12.9232 89.7971 13.0544 90.1984 13.1924C90.6133 13.3303 90.9523 13.5166 91.2152 13.7512C91.478 13.9858 91.6095 14.3101 91.6095 14.7241C91.6095 15.1656 91.4226 15.5106 91.0492 15.759C90.6895 16.0074 90.1845 16.1316 89.5342 16.1316C88.9255 16.1316 88.3722 16.0212 87.8741 15.8004C87.3898 15.5658 86.9541 15.2139 86.5667 14.7447L85.6328 15.6969C85.9234 16.0556 86.2623 16.3662 86.6497 16.6282C87.0509 16.8904 87.4937 17.0974 87.9778 17.2492Z" fill="#78716C"/>
<path fill-rule="evenodd" clip-rule="evenodd" d="M79.1299 17.4562C78.1892 17.4562 77.3314 17.2286 76.5567 16.7732C75.7957 16.3178 75.187 15.7038 74.7305 14.9311C74.2878 14.1583 74.0664 13.2958 74.0664 12.3438C74.0664 11.4054 74.2878 10.5567 74.7305 9.79778C75.187 9.03884 75.7957 8.43858 76.5567 7.99702C77.3314 7.54165 78.1892 7.31396 79.1299 7.31396C80.0846 7.31396 80.9423 7.53475 81.7032 7.97632C82.4641 8.41789 83.066 9.02504 83.5086 9.79778C83.9652 10.5567 84.1934 11.4054 84.1934 12.3438C84.1934 13.3096 83.9652 14.1789 83.5086 14.9517C83.066 15.7107 82.4641 16.3178 81.7032 16.7732C80.9423 17.2286 80.0846 17.4562 79.1299 17.4562ZM79.1299 16.0488C79.8217 16.0488 80.4303 15.89 80.9561 15.5727C81.4957 15.2553 81.9176 14.8137 82.222 14.2479C82.5402 13.6822 82.6993 13.0474 82.6993 12.3438C82.6993 11.64 82.5402 11.019 82.222 10.4808C81.9176 9.92888 81.4957 9.49421 80.9561 9.17683C80.4303 8.85946 79.8217 8.70077 79.1299 8.70077C78.4521 8.70077 77.8433 8.85946 77.3037 9.17683C76.7641 9.49421 76.3422 9.92888 76.0378 10.4808C75.7335 11.019 75.5814 11.64 75.5814 12.3438C75.5814 13.0612 75.7335 13.7029 76.0378 14.2687C76.3422 14.8207 76.7641 15.2553 77.3037 15.5727C77.8433 15.89 78.4521 16.0488 79.1299 16.0488Z" fill="#78716C"/>
<path fill-rule="evenodd" clip-rule="evenodd" d="M64.0217 20.9956C64.7965 21.3682 65.675 21.5546 66.6572 21.5546C67.6811 21.5546 68.5734 21.3544 69.3343 20.9542C70.1091 20.568 70.7108 20.0228 71.1398 19.3191C71.5685 18.6153 71.7831 17.7943 71.7831 16.856V7.52095H70.3304V9.14454C70.2971 9.09232 70.2626 9.04098 70.2266 8.99054C69.8669 8.45238 69.3827 8.03842 68.774 7.74863C68.179 7.45885 67.5012 7.31396 66.7402 7.31396C65.841 7.31396 65.0317 7.52785 64.3123 7.95562C63.5928 8.38339 63.0257 8.96985 62.6106 9.715C62.2093 10.4463 62.0088 11.2812 62.0088 12.2196C62.0088 13.1578 62.2163 13.9996 62.6313 14.7447C63.0463 15.4899 63.6136 16.0764 64.3329 16.5042C65.0524 16.9318 65.8617 17.1458 66.7611 17.1458C67.5081 17.1458 68.179 17.0008 68.774 16.711C69.3689 16.4076 69.853 15.9936 70.2266 15.4692C70.2626 15.4174 70.2971 15.3649 70.3304 15.3116V16.856C70.3304 17.8771 69.9984 18.6843 69.3343 19.2777C68.6841 19.8711 67.8055 20.1678 66.6987 20.1678C65.8964 20.1678 65.1976 20.0228 64.6028 19.7331C64.0079 19.4433 63.5168 19.0363 63.1294 18.5119L62.1748 19.464C62.6451 20.1264 63.2609 20.637 64.0217 20.9956ZM68.7947 15.3243C68.2967 15.6141 67.7087 15.759 67.0308 15.759C66.339 15.759 65.7304 15.6141 65.2046 15.3243C64.6788 15.0207 64.2638 14.5999 63.9595 14.0617C63.6551 13.5235 63.5029 12.9094 63.5029 12.2196C63.5029 11.5158 63.6481 10.9017 63.9387 10.3773C64.2431 9.85299 64.6581 9.43901 65.1838 9.13543C65.7234 8.83186 66.3321 8.68007 67.01 8.68007C67.6879 8.68007 68.2829 8.83186 68.7947 9.13543C69.3066 9.43901 69.7008 9.85299 69.9776 10.3773C70.2681 10.9017 70.4134 11.5158 70.4134 12.2196C70.4134 12.937 70.2681 13.5649 69.9776 14.1031C69.7008 14.6275 69.3066 15.0345 68.7947 15.3243Z" fill="#78716C"/>
<path fill-rule="evenodd" clip-rule="evenodd" d="M55.257 17.4562C54.3162 17.4562 53.4585 17.2286 52.6837 16.7732C51.9227 16.3178 51.3141 15.7038 50.8575 14.9311C50.4147 14.1583 50.1934 13.2958 50.1934 12.3438C50.1934 11.4054 50.4147 10.5567 50.8575 9.79778C51.3141 9.03884 51.9227 8.43858 52.6837 7.99702C53.4585 7.54165 54.3162 7.31396 55.257 7.31396C56.2115 7.31396 57.0693 7.53475 57.8302 7.97632C58.5912 8.41789 59.1929 9.02504 59.6357 9.79778C60.0921 10.5567 60.3205 11.4054 60.3205 12.3438C60.3205 13.3096 60.0921 14.1789 59.6357 14.9517C59.1929 15.7107 58.5912 16.3178 57.8302 16.7732C57.0693 17.2286 56.2115 17.4562 55.257 17.4562ZM55.257 16.0488C55.9487 16.0488 56.5574 15.89 57.0832 15.5727C57.6227 15.2553 58.0447 14.8137 58.349 14.2479C58.6672 13.6822 58.8264 13.0474 58.8264 12.3438C58.8264 11.64 58.6672 11.019 58.349 10.4808C58.0447 9.92888 57.6227 9.49421 57.0832 9.17683C56.5574 8.85946 55.9487 8.70077 55.257 8.70077C54.579 8.70077 53.9703 8.85946 53.4308 9.17683C52.8912 9.49421 52.4693 9.92888 52.1649 10.4808C51.8605 11.019 51.7083 11.64 51.7083 12.3438C51.7083 13.0612 51.8605 13.7029 52.1649 14.2687C52.4693 14.8207 52.8912 15.2553 53.4308 15.5727C53.9703 15.89 54.579 16.0488 55.257 16.0488Z" fill="#78716C"/>
<path d="M46.439 2.75977V17.2488H47.8916V2.75977H46.439Z" fill="#78716C"/>
</g>
</g>
<defs>
<clipPath id="clip0_128_96">
<rect width="93" height="24" fill="white"/>
</clipPath>
</defs>
</svg>
