<svg width="100" height="24" viewBox="0 0 100 24" fill="none" xmlns="http://www.w3.org/2000/svg">
<path d="M9.12368 10.7999C9.91929 10.7999 10.5643 10.1552 10.5643 9.35992C10.5643 8.56463 9.91929 7.91992 9.12368 7.91992C8.32808 7.91992 7.68311 8.56463 7.68311 9.35992C7.68311 10.1552 8.32808 10.7999 9.12368 10.7999Z" fill="#A8A29E"/>
<path d="M8.88345 19.1998C9.67905 19.1998 10.324 18.5551 10.324 17.7598C10.324 16.9646 9.67905 16.3198 8.88345 16.3198C8.08784 16.3198 7.44287 16.9646 7.44287 17.7598C7.44287 18.5551 8.08784 19.1998 8.88345 19.1998Z" fill="#A8A29E"/>
<path d="M7.68332 6.96C7.94852 6.96 8.16351 6.74509 8.16351 6.48C8.16351 6.21491 7.94852 6 7.68332 6C7.41812 6 7.20312 6.21491 7.20312 6.48C7.20312 6.74509 7.41812 6.96 7.68332 6.96Z" fill="#A8A29E"/>
<path d="M7.0828 13.68C7.28171 13.68 7.44294 13.5188 7.44294 13.32C7.44294 13.1211 7.28171 12.96 7.0828 12.96C6.88389 12.96 6.72266 13.1211 6.72266 13.32C6.72266 13.5188 6.88389 13.68 7.0828 13.68Z" fill="#A8A29E"/>
<path d="M16.3265 14.0398C16.5254 14.0398 16.6866 13.8787 16.6866 13.6798C16.6866 13.481 16.5254 13.3198 16.3265 13.3198C16.1275 13.3198 15.9663 13.481 15.9663 13.6798C15.9663 13.8787 16.1275 14.0398 16.3265 14.0398Z" fill="#A8A29E"/>
<path d="M12.845 19.4402C13.0439 19.4402 13.2052 19.2791 13.2052 19.0802C13.2052 18.8814 13.0439 18.7202 12.845 18.7202C12.6461 18.7202 12.4849 18.8814 12.4849 19.0802C12.4849 19.2791 12.6461 19.4402 12.845 19.4402Z" fill="#A8A29E"/>
<path d="M12.0046 12C12.2698 12 12.4848 11.7851 12.4848 11.52C12.4848 11.2549 12.2698 11.04 12.0046 11.04C11.7394 11.04 11.5244 11.2549 11.5244 11.52C11.5244 11.7851 11.7394 12 12.0046 12Z" fill="#A8A29E"/>
<path d="M10.2041 14.64C10.6682 14.64 11.0444 14.2639 11.0444 13.8C11.0444 13.336 10.6682 12.96 10.2041 12.96C9.74 12.96 9.36377 13.336 9.36377 13.8C9.36377 14.2639 9.74 14.64 10.2041 14.64Z" fill="#A8A29E"/>
<path d="M15.3663 6.48004C15.7641 6.48004 16.0866 6.15768 16.0866 5.76004C16.0866 5.3624 15.7641 5.04004 15.3663 5.04004C14.9684 5.04004 14.646 5.3624 14.646 5.76004C14.646 6.15768 14.9684 6.48004 15.3663 6.48004Z" fill="#A8A29E"/>
<path d="M15.0662 11.8799C16.1602 11.8799 17.047 10.9934 17.047 9.89992C17.047 8.8064 16.1602 7.91992 15.0662 7.91992C13.9722 7.91992 13.0854 8.8064 13.0854 9.89992C13.0854 10.9934 13.9722 11.8799 15.0662 11.8799Z" fill="#A8A29E"/>
<path d="M11.6449 7.43979C12.2416 7.43979 12.7253 6.95626 12.7253 6.35979C12.7253 5.76331 12.2416 5.27979 11.6449 5.27979C11.0482 5.27979 10.5645 5.76331 10.5645 6.35979C10.5645 6.95626 11.0482 7.43979 11.6449 7.43979Z" fill="#A8A29E"/>
<path d="M14.2856 17.7602C15.2801 17.7602 16.0863 16.9542 16.0863 15.9602C16.0863 14.9661 15.2801 14.1602 14.2856 14.1602C13.2911 14.1602 12.4849 14.9661 12.4849 15.9602C12.4849 16.9542 13.2911 17.7602 14.2856 17.7602Z" fill="#A8A29E"/>
<path d="M3.9928 22.1998C3.55423 22.2096 3.11659 22.155 2.69388 22.0378C2.39271 21.9528 2.12071 21.7868 1.90756 21.5578C1.682 21.2978 1.5219 20.9874 1.44058 20.653C1.32204 20.1645 1.26717 19.6628 1.27731 19.1602V15.2002C1.27731 14.4634 1.16327 13.927 0.929172 13.5622C0.708001 13.2351 0.379277 12.9957 0 12.8854V10.885C0.639856 10.6702 1.28091 10.123 1.28091 8.79581V4.8358C1.28091 3.7102 1.4886 2.9158 1.89676 2.461C2.30492 2.0062 3.02401 1.7998 4.05522 1.7998H5.40216V3.775H5.35654C5.0905 3.77197 4.82457 3.78721 4.56062 3.8206C4.32191 3.84674 4.09714 3.94609 3.91717 4.105C3.74855 4.2739 3.63798 4.492 3.60144 4.7278C3.55759 4.98582 3.5379 5.24734 3.54262 5.509V9.00581C3.54611 9.3552 3.52565 9.70441 3.48139 10.051C3.4528 10.2738 3.39088 10.491 3.29772 10.6954C3.21145 10.8762 3.09169 11.0391 2.94478 11.1754C2.73897 11.3641 2.5208 11.5389 2.29172 11.6986L1.84394 12.0154L2.30132 12.3178C2.52567 12.4607 2.73307 12.6286 2.91957 12.8182C3.06933 12.9754 3.1933 13.1552 3.28691 13.351C3.38538 13.563 3.45096 13.7889 3.48139 14.0206C3.52375 14.3452 3.54379 14.6724 3.54142 14.9998V18.4966C3.5372 18.7515 3.5569 19.0062 3.60024 19.2574C3.6352 19.4868 3.73902 19.7002 3.89796 19.8694C4.06765 20.0313 4.28311 20.1368 4.51501 20.1718C4.7864 20.216 5.06121 20.2356 5.33613 20.2306H5.40216V22.1998H3.9928Z" fill="#A8A29E"/>
<path d="M20.0168 22.2C20.4553 22.2098 20.893 22.1552 21.3157 22.038C21.6169 21.953 21.8889 21.7869 22.102 21.558C22.3259 21.2982 22.4847 20.9889 22.5654 20.6556C22.6839 20.1671 22.7389 19.6653 22.7287 19.1628V15.2028C22.7287 14.466 22.8427 13.9296 23.0768 13.5648C23.2983 13.2356 23.6284 12.9948 24.0096 12.8844V10.8852C23.3697 10.6704 22.7287 10.1232 22.7287 8.79599V4.83599C22.7287 3.71039 22.521 2.91599 22.1128 2.46119C21.7047 2.00639 20.9856 1.79639 19.952 1.79639H18.6074V3.77519H18.653C18.9191 3.77215 19.185 3.78739 19.449 3.82079C19.6876 3.84692 19.9125 3.94627 20.0924 4.10519C20.2611 4.27409 20.3716 4.49219 20.4081 4.72799C20.452 4.986 20.4716 5.24753 20.467 5.50919V9.00599C20.4623 9.35529 20.4815 9.70451 20.5246 10.0512C20.5532 10.274 20.6151 10.4912 20.7083 10.6956C20.7946 10.8764 20.9143 11.0393 21.0612 11.1756C21.267 11.3643 21.4852 11.5391 21.7143 11.6988L22.162 12.0156L21.7047 12.318C21.4803 12.4609 21.273 12.6288 21.0864 12.8184C20.9367 12.9756 20.8127 13.1553 20.7191 13.3512C20.6201 13.5647 20.5546 13.7922 20.5246 14.0256C20.4833 14.3483 20.4641 14.6735 20.467 14.9988V18.4956C20.4712 18.7505 20.4515 19.0052 20.4081 19.2564C20.3795 19.4889 20.2738 19.7052 20.108 19.8708C19.9424 20.0365 19.726 20.1421 19.4934 20.1708C19.2219 20.2149 18.9472 20.2346 18.6722 20.2296H18.6074V22.2H20.0168Z" fill="#A8A29E"/>
<path fill-rule="evenodd" clip-rule="evenodd" d="M56.8543 18.4978C56.5692 18.9411 56.2215 19.2892 55.8115 19.5419C55.3923 19.7977 54.8985 19.9255 54.3302 19.9255C53.7404 19.9255 53.2111 19.8083 52.7422 19.574C52.2804 19.3396 51.8825 18.9916 51.5487 18.53C51.2218 18.0683 50.9732 17.4967 50.8026 16.8148C50.6321 16.1259 50.5469 15.3269 50.5469 14.4179V13.5124C50.5469 12.5679 50.6321 11.7512 50.8026 11.0623C50.9732 10.3663 51.2218 9.78749 51.5487 9.32587C51.8825 8.86425 52.284 8.52335 52.7529 8.3032C53.2218 8.08303 53.7511 7.97296 54.3408 7.97296C54.9163 7.97296 55.4136 8.10433 55.8328 8.36711C56.1781 8.57775 56.4801 8.8631 56.7386 9.22319V3.34961H59.2218V19.7125L56.973 19.723L56.8543 18.4978ZM56.7386 11.2378C56.6715 11.102 56.5968 10.976 56.5148 10.8599C56.3444 10.6184 56.1348 10.4302 55.8861 10.2953C55.6445 10.1532 55.3603 10.0822 55.0335 10.0822C54.6711 10.0822 54.3621 10.1532 54.1063 10.2953C53.8506 10.4302 53.6445 10.6397 53.4882 10.9238C53.3319 11.2008 53.2147 11.5559 53.1366 11.9891C53.0655 12.4151 53.03 12.923 53.03 13.5124V14.4179C53.03 15.0074 53.0655 15.5152 53.1366 15.9413C53.2076 16.3675 53.3213 16.7189 53.4776 16.9959C53.6339 17.2658 53.8399 17.4682 54.0957 17.6031C54.3514 17.731 54.6606 17.7949 55.0229 17.7949C55.4776 17.7949 55.847 17.6812 56.1311 17.4541C56.3848 17.2561 56.5873 16.9989 56.7386 16.6826V11.2378Z" fill="#78716C"/>
<path fill-rule="evenodd" clip-rule="evenodd" d="M63.5329 19.5954C64.1155 19.8156 64.7798 19.9256 65.5258 19.9256C66.1866 19.9256 66.7621 19.8404 67.2522 19.67C67.7496 19.4995 68.1723 19.2829 68.5204 19.0201C68.8685 18.7502 69.1456 18.4769 69.3517 18.1999L68.254 16.6765C67.9485 17.0245 67.5862 17.3086 67.167 17.5288C66.7549 17.7418 66.2611 17.8483 65.6857 17.8483C65.2948 17.8483 64.9503 17.7916 64.6519 17.6779C64.3606 17.5572 64.112 17.3725 63.9059 17.124C63.6999 16.8683 63.5436 16.5416 63.437 16.1438C63.3406 15.7585 63.2909 15.2898 63.288 14.7377H69.4796V13.4914C69.4796 12.5965 69.3944 11.8046 69.2238 11.1157C69.0604 10.4269 68.8047 9.84805 68.4565 9.37932C68.1155 8.9106 67.6785 8.55904 67.1457 8.32468C66.6128 8.09032 65.984 7.97314 65.2594 7.97314C64.6199 7.97314 64.0267 8.08322 63.4796 8.30338C62.9396 8.52354 62.4707 8.86088 62.0729 9.3154C61.675 9.76993 61.3624 10.3523 61.1351 11.0625C60.9148 11.7656 60.8047 12.6036 60.8047 13.5766V14.6844C60.8047 15.5437 60.9113 16.3001 61.1244 16.9535C61.3376 17.5998 61.6466 18.1466 62.0516 18.594C62.4566 19.0344 62.9503 19.3681 63.5329 19.5954ZM63.3066 12.8628C63.3268 12.5064 63.3632 12.1903 63.4157 11.9147C63.501 11.4602 63.6217 11.098 63.778 10.8281C63.9414 10.5582 64.1474 10.3629 64.3962 10.2422C64.6448 10.1215 64.9291 10.0611 65.2487 10.0611C65.6892 10.0611 66.0337 10.1641 66.2825 10.37C66.5382 10.5689 66.7229 10.8601 66.8366 11.2436C66.9503 11.62 67.0143 12.0709 67.0285 12.5965V12.8628H63.3066Z" fill="#78716C"/>
<path fill-rule="evenodd" clip-rule="evenodd" d="M40.3208 14.4181V13.4914C40.3208 12.5965 40.4309 11.8046 40.6512 11.1157C40.8715 10.4269 41.1841 9.8516 41.589 9.38997C42.0011 8.92124 42.4842 8.5697 43.0383 8.33534C43.5925 8.09388 44.2035 7.97314 44.8713 7.97314C45.5535 7.97314 46.1716 8.09388 46.7257 8.33534C47.2869 8.5697 47.7701 8.92124 48.1751 9.38997C48.5872 9.8516 48.9033 10.4269 49.1236 11.1157C49.3439 11.8046 49.4539 12.5965 49.4539 13.4914V14.4181C49.4539 15.313 49.3439 16.1048 49.1236 16.7938C48.9033 17.4826 48.5872 18.0614 48.1751 18.5302C47.7701 18.9918 47.2905 19.3398 46.7364 19.5742C46.1823 19.8085 45.5676 19.9256 44.8927 19.9256C44.2249 19.9256 43.6102 19.8085 43.049 19.5742C42.4949 19.3398 42.0117 18.9918 41.5997 18.5302C41.1875 18.0614 40.8715 17.4826 40.6512 16.7938C40.4309 16.1048 40.3208 15.313 40.3208 14.4181ZM42.8039 13.4914V14.4181C42.8039 14.9934 42.8536 15.4976 42.9531 15.9308C43.0526 16.357 43.1946 16.712 43.3794 16.9961C43.5641 17.2802 43.7843 17.4932 44.0401 17.6353C44.296 17.7773 44.5801 17.8483 44.8927 17.8483C45.2408 17.8483 45.5428 17.7773 45.7986 17.6353C46.0614 17.4932 46.2782 17.2802 46.4486 16.9961C46.6262 16.712 46.7577 16.357 46.843 15.9308C46.9282 15.4976 46.9709 14.9934 46.9709 14.4181V13.4914C46.9709 12.9232 46.9212 12.426 46.8216 11.9999C46.7221 11.5667 46.5801 11.2081 46.3953 10.924C46.2106 10.6328 45.9868 10.4162 45.7239 10.2742C45.4682 10.1321 45.1839 10.0611 44.8713 10.0611C44.5658 10.0611 44.2853 10.1321 44.0294 10.2742C43.7808 10.4162 43.5641 10.6328 43.3794 10.924C43.1946 11.2081 43.0526 11.5667 42.9531 11.9999C42.8536 12.426 42.8039 12.9232 42.8039 13.4914Z" fill="#78716C"/>
<path d="M39.2594 14.6523H36.6803C36.6377 15.4335 36.5276 16.0514 36.3499 16.5059C36.1724 16.9604 35.8988 17.2835 35.5294 17.4753C35.167 17.6671 34.6803 17.7629 34.0694 17.7629C33.5577 17.7629 33.1316 17.6671 32.7905 17.4753C32.4495 17.2765 32.1759 16.9888 31.9699 16.6124C31.7639 16.229 31.6147 15.7637 31.5223 15.2169C31.4299 14.6701 31.3838 14.0415 31.3838 13.3313V10.5616C31.3838 9.82299 31.437 9.18027 31.5436 8.63343C31.6573 8.07947 31.8243 7.6214 32.0445 7.2592C32.2718 6.8899 32.5595 6.61293 32.9077 6.42827C33.2629 6.24363 33.6857 6.1513 34.1759 6.1513C34.7657 6.1513 35.2346 6.25429 35.5827 6.46024C35.9379 6.6662 36.2007 7.00353 36.3713 7.47226C36.5489 7.93389 36.6555 8.55176 36.691 9.32587H39.27C39.2061 8.18246 38.9752 7.21304 38.5773 6.41763C38.1795 5.62221 37.6146 5.01855 36.8828 4.60664C36.151 4.19473 35.2487 3.98877 34.1759 3.98877C33.3376 3.98877 32.5844 4.13791 31.9166 4.43619C31.2558 4.72737 30.6946 5.15704 30.2328 5.72519C29.771 6.29335 29.4157 6.98578 29.1671 7.8025C28.9255 8.61922 28.8047 9.54602 28.8047 10.5829V13.3313C28.8047 14.3683 28.922 15.295 29.1564 16.1117C29.398 16.9285 29.7461 17.6209 30.2008 18.1891C30.6555 18.7501 31.2061 19.1798 31.8527 19.4781C32.5062 19.7763 33.2451 19.9255 34.0694 19.9255C35.1564 19.9255 36.0765 19.7195 36.8295 19.3076C37.5898 18.8957 38.1724 18.2991 38.5773 17.5179C38.9822 16.7296 39.2096 15.7744 39.2594 14.6523Z" fill="#78716C"/>
<path fill-rule="evenodd" clip-rule="evenodd" d="M91.9937 3.34961H93.1872V9.78239C93.3077 9.55911 93.4427 9.35367 93.5922 9.16608C93.8976 8.78257 94.26 8.48784 94.6792 8.28189C95.0983 8.07593 95.5886 7.97296 96.1498 7.97296C96.7467 7.97296 97.276 8.07593 97.7378 8.28189C98.1997 8.48784 98.5904 8.80743 98.9101 9.24065C99.2298 9.67386 99.4713 10.2385 99.6347 10.9344C99.7982 11.6233 99.8798 12.4507 99.8798 13.4165V14.4925C99.8798 15.4228 99.7982 16.229 99.6347 16.9107C99.4713 17.5925 99.2298 18.1571 98.9101 18.6045C98.5904 19.052 98.1997 19.3857 97.7378 19.6059C97.2831 19.8261 96.7609 19.9361 96.1712 19.9361C95.5957 19.9361 95.0913 19.8332 94.6579 19.6271C94.2245 19.4212 93.855 19.1336 93.5496 18.7643C93.4067 18.5876 93.277 18.3945 93.1602 18.1852L93.1019 19.7125H91.9937V3.34961ZM93.1872 11.157V16.8939C93.2586 17.0624 93.3404 17.2277 93.4323 17.3901C93.6738 17.8091 94.0007 18.1499 94.4127 18.4127C94.8249 18.6685 95.3293 18.7963 95.9261 18.7963C96.4093 18.7963 96.8213 18.7111 97.1623 18.5407C97.5105 18.3631 97.7982 18.0968 98.0256 17.7416C98.2528 17.3865 98.4198 16.9426 98.5264 16.4101C98.633 15.8703 98.6863 15.2311 98.6863 14.4925V13.4165C98.6863 12.685 98.633 12.0495 98.5264 11.5097C98.4269 10.9629 98.2635 10.5119 98.0361 10.1568C97.816 9.8017 97.5282 9.53892 97.173 9.36848C96.8249 9.19093 96.4021 9.10216 95.9048 9.10216C95.4145 9.10216 94.9919 9.19449 94.6365 9.37913C94.2885 9.55668 93.9971 9.79459 93.7627 10.0929C93.5353 10.3912 93.3542 10.7178 93.2192 11.0729C93.2083 11.101 93.1976 11.129 93.1872 11.157Z" fill="#78716C"/>
<path fill-rule="evenodd" clip-rule="evenodd" d="M87.5649 18.9456C87.8318 18.685 88.0553 18.4081 88.2355 18.115C88.2442 18.3257 88.2586 18.5422 88.2788 18.7645C88.3143 19.148 88.3712 19.464 88.4494 19.7126H89.7069V19.5742C89.6146 19.3043 89.5399 18.9563 89.4831 18.5302C89.4334 18.104 89.4086 17.6886 89.4086 17.2837V11.3927C89.4086 10.5618 89.2558 9.89421 88.9502 9.38997C88.6519 8.88573 88.2362 8.52354 87.7034 8.30338C87.1705 8.08322 86.5595 7.97314 85.8704 7.97314C85.3091 7.97314 84.7975 8.06546 84.3357 8.25012C83.881 8.43476 83.4902 8.68688 83.1634 9.00646C82.8367 9.31896 82.5844 9.68115 82.4068 10.0931C82.2291 10.4979 82.1404 10.9204 82.1404 11.3608L83.3233 11.3714C83.3233 10.924 83.4264 10.5298 83.6324 10.1889C83.8456 9.84094 84.1404 9.57108 84.5169 9.37932C84.9005 9.18046 85.3375 9.08104 85.8277 9.08104C86.3464 9.08104 86.7834 9.15916 87.1386 9.3154C87.4938 9.47164 87.7638 9.72021 87.9484 10.0611C88.1332 10.3949 88.2256 10.8317 88.2256 11.3714V12.98H86.2753C85.5506 12.98 84.9148 13.0723 84.3676 13.257C83.8206 13.4416 83.366 13.7009 83.0035 14.0346C82.6412 14.3614 82.3678 14.7484 82.183 15.1958C82.0053 15.6432 81.9165 16.1333 81.9165 16.6658C81.9165 17.3832 82.0445 17.9868 82.3002 18.4769C82.5631 18.9668 82.929 19.3326 83.3979 19.5742C83.8739 19.8156 84.4282 19.9363 85.0604 19.9363C85.5861 19.9363 86.0586 19.844 86.4779 19.6594C86.8969 19.4747 87.2594 19.2367 87.5649 18.9456ZM87.8313 17.4968C87.9962 17.27 88.1277 17.0362 88.2256 16.7952V13.992H86.4565C85.9023 13.992 85.4157 14.0524 84.9965 14.1731C84.5772 14.2938 84.2256 14.4678 83.9414 14.6951C83.6643 14.9224 83.4547 15.1922 83.3127 15.5047C83.1705 15.8172 83.0995 16.1723 83.0995 16.57C83.0995 17.0813 83.1812 17.5003 83.3446 17.8271C83.508 18.1466 83.746 18.3845 84.0586 18.5408C84.3783 18.6899 84.7584 18.7645 85.199 18.7645C85.7816 18.7645 86.2931 18.6509 86.7336 18.4236C87.1812 18.1892 87.5471 17.8804 87.8313 17.4968Z" fill="#78716C"/>
<path d="M80.7386 19.7128V18.5729H74.3656V4.20215H73.1294V19.7128H80.7386Z" fill="#78716C"/>
</svg>
