<svg width="76" height="24" viewBox="0 0 76 24" fill="none" xmlns="http://www.w3.org/2000/svg">
<g clip-path="url(#clip0_128_189)">
<path d="M11.1786 9.6336L14.0319 9.9852L16.0629 13.35L7.59519 24L10.6041 14.2416L7.75078 13.89L5.71973 10.5264L14.1156 0L11.1786 9.6336Z" fill="#A8A29E"/>
<path d="M2.70234 11.9998C2.70481 9.91883 3.4946 7.9163 4.91228 6.39645C6.32996 4.87659 8.26996 3.95258 10.3406 3.81098L12.3441 1.29818C9.68072 0.933307 6.97746 1.58014 4.76539 3.11161C2.55331 4.64309 0.992321 6.94852 0.389039 9.57503C-0.214245 12.2015 0.183787 14.9593 1.50494 17.3067C2.82611 19.6539 4.9749 21.4211 7.52924 22.261L8.29283 19.7842C6.66581 19.2363 5.25123 18.1903 4.2483 16.7939C3.24539 15.3973 2.70468 13.7206 2.70234 11.9998Z" fill="#A8A29E"/>
<path d="M14.1936 1.71826L13.4372 4.19986C15.2514 4.79414 16.8015 6.00526 17.8195 7.62388C18.8375 9.2425 19.2595 11.1669 19.0125 13.0644C18.7655 14.9618 17.8649 16.7131 16.4667 18.0156C15.0684 19.318 13.2603 20.0896 11.3547 20.1971L9.36914 22.6931C12.0433 23.0804 14.765 22.4461 16.9945 20.9158C19.224 19.3854 20.7984 17.0708 21.4057 14.4311C22.0129 11.7913 21.6083 9.01917 20.2725 6.6644C18.9366 4.30963 16.767 2.54421 14.1936 1.71826Z" fill="#A8A29E"/>
<path d="M26.8301 18.0001V5.54639H27.9637V16.9805H34.0826V18.0001H26.8301Z" fill="#78716C"/>
<path d="M47.9181 18.0001V12.6425C47.9181 11.7732 48.1655 11.1185 48.6601 10.6783C49.1547 10.2381 49.7605 10.018 50.4774 10.018C51.1998 10.018 51.7695 10.2326 52.1863 10.6616C52.6086 11.0907 52.8199 11.7008 52.8199 12.4921V18.0001H53.8953V12.4251C53.8953 11.6897 53.7507 11.0684 53.4618 10.5613C53.1783 10.0542 52.7921 9.66977 52.303 9.40788C51.8139 9.14598 51.2637 9.01503 50.6524 9.01503C50.0744 9.01503 49.5493 9.14041 49.0769 9.39116C48.6045 9.6419 48.2182 10.0264 47.9181 10.5446V5.54639H46.8511V18.0001H47.9181Z" fill="#78716C"/>
<path d="M58.9602 9.17377V10.1182H57.1263V16.0192C57.1263 16.3925 57.2068 16.66 57.3679 16.8215C57.5348 16.9775 57.8098 17.0555 58.1933 17.0555H58.9602V18H58.1098C56.7372 18 56.0509 17.3731 56.0509 16.1194V10.1182H54.5503V9.17377H56.0509V6.7666H57.1263V9.17377H58.9602Z" fill="#78716C"/>
<path fill-rule="evenodd" clip-rule="evenodd" d="M41.3865 21.5942C40.3805 21.5942 39.5553 21.3602 38.9105 20.8921C38.2659 20.4296 37.8797 19.7778 37.7519 18.9363H38.8522C38.9856 19.4768 39.269 19.8948 39.7025 20.1901C40.1415 20.4854 40.7028 20.633 41.3865 20.633C42.259 20.633 42.937 20.399 43.4205 19.9309C43.904 19.4684 44.1457 18.8248 44.1457 18.0002V16.3286H44.1374C43.8595 16.9024 43.4594 17.351 42.937 17.6743C42.4145 17.9974 41.82 18.159 41.1529 18.159C40.3971 18.159 39.7303 17.9696 39.1523 17.5906C38.5798 17.2062 38.1297 16.6712 37.8019 15.9859C37.4795 15.2949 37.3184 14.4954 37.3184 13.5871C37.3184 12.6788 37.4795 11.882 37.8019 11.1966C38.1297 10.5112 38.5827 9.97632 39.1607 9.59186C39.7386 9.20738 40.4028 9.01514 41.1529 9.01514C41.8143 9.01514 42.4146 9.17951 42.9536 9.50827C43.4927 9.83145 43.89 10.2912 44.1457 10.8874H44.1541V9.17395H45.2044V18.0002C45.2044 18.8193 45.0349 19.4935 44.6959 20.0229C44.3624 20.5578 43.9068 20.9534 43.3288 21.2097C42.7564 21.466 42.1089 21.5942 41.3865 21.5942ZM41.2948 17.1727C42.1784 17.1727 42.8842 16.8495 43.4121 16.2032C43.9457 15.5512 44.2125 14.6792 44.2125 13.5871C44.2125 12.495 43.9457 11.6229 43.4121 10.971C42.8842 10.319 42.1784 9.99304 41.2948 9.99304C40.4611 9.99304 39.7692 10.3051 39.219 10.9292C38.6744 11.5532 38.402 12.4392 38.402 13.5871C38.402 14.7349 38.6744 15.6208 39.219 16.245C39.7692 16.8634 40.4611 17.1727 41.2948 17.1727Z" fill="#78716C"/>
<path d="M35.1045 18.0001V9.17383H36.1715V18.0001H35.1045Z" fill="#78716C"/>
<path d="M35.0879 7.03403C35.2435 7.18447 35.4269 7.2597 35.6381 7.2597C35.8492 7.2597 36.0298 7.18447 36.1799 7.03403C36.3355 6.88357 36.4133 6.6997 36.4133 6.48239C36.4133 6.26507 36.3355 6.08119 36.1799 5.93075C36.0298 5.78029 35.8492 5.70508 35.6381 5.70508C35.4269 5.70508 35.2435 5.78029 35.0879 5.93075C34.9378 6.08119 34.8628 6.26507 34.8628 6.48239C34.8628 6.6997 34.9378 6.88357 35.0879 7.03403Z" fill="#78716C"/>
<path fill-rule="evenodd" clip-rule="evenodd" d="M61.3101 18.0001L65.7449 5.54639H68.5126L72.9308 18.0001H70.505L69.5129 15.0246H64.6945L63.6775 18.0001H61.3101ZM65.3115 13.2109H68.9127L68.3291 11.4556C68.1458 10.8817 67.9568 10.2827 67.7623 9.65862C67.5733 9.03455 67.3622 8.32967 67.1288 7.54399C66.8953 8.32967 66.6814 9.03455 66.4868 9.65862C66.2923 10.2827 66.1006 10.8817 65.9116 11.4556L65.3115 13.2109Z" fill="#78716C"/>
<path d="M75.7613 5.54639V18.0001H73.5605V5.54639H75.7613Z" fill="#78716C"/>
</g>
<defs>
<clipPath id="clip0_128_189">
<rect width="76" height="24" fill="white"/>
</clipPath>
</defs>
</svg>
