<svg width="900" height="900" viewBox="0 0 900 900" fill="none" xmlns="http://www.w3.org/2000/svg">
<path d="M369.047 30.2626L428.385 51.5952L503.629 26.7639L369.047 30.2626ZM368.066 30.4793L381.513 67.0643L427.561 51.868L368.066 30.4793ZM367.727 31.108L361.392 73.7061L381.005 67.2328L367.727 31.108ZM505.619 26.7666L490.733 73.8024L608.467 50.2015L505.619 26.7666ZM429.203 51.8894L490.169 73.8077L505.025 26.8682L429.203 51.8894ZM492.212 74.0512L601.194 83.7692L609.384 50.5654L492.212 74.0512ZM601.732 83.8174L637.735 87.0273L609.871 50.8221L601.732 83.8174ZM638.46 87.0915L643.599 87.5489L613.751 54.9843L638.46 87.0915ZM644.387 87.6211L680.404 90.831L611.098 51.2983L644.387 87.6211ZM367.248 30.6933L286.477 98.4278L360.825 73.8934L367.248 30.6933ZM250.648 72.572L252.755 109.555L285.103 98.8798L366.291 30.7976L250.648 72.572ZM644.922 88.2069L670.476 116.082L681.206 91.4409L644.922 88.2069ZM250.15 73.262L221.843 119.758L252.231 109.729L250.15 73.262ZM638.903 87.6692L666.965 124.134L670.241 116.62L644.133 88.1347L638.903 87.6692ZM252.787 110.109L253.65 125.257L283.996 99.8107L252.787 110.109ZM667.39 124.503L682.551 130.051L670.636 117.051L667.39 124.503ZM221.412 120.464L214.102 132.472L253.134 125.584L252.263 110.283L221.412 120.464ZM220.629 120.721L151.62 143.495L213.401 132.595L220.629 120.721ZM249.474 73.345L149.647 143.583L221.059 120.017L249.474 73.345ZM381.697 67.5699L410.452 145.809L489.83 74.2545L428.377 52.1623L381.697 67.5699ZM668.439 125.458L707.263 157.011L683.337 130.909L668.439 125.458ZM683.645 130.452L761.664 159.001L681.703 91.6442L670.869 116.516L683.645 130.452ZM710.107 159.325L744.365 187.168L762.584 159.906L684.431 131.308L710.107 159.325ZM712.586 162.027L740.68 192.679L744.062 187.615L712.586 162.027ZM361.304 74.2973L341.416 208.038L410.024 146.194L381.187 67.7357L361.304 74.2973ZM253.816 125.816L340.852 208.188L360.735 74.4845L285.367 99.356L253.816 125.816ZM253.72 126.461L258.709 215.25L340.432 208.517L253.72 126.461ZM341.686 208.514L435.497 215.501L410.224 146.734L341.686 208.514ZM213.73 133.079L159.647 221.91L252.645 126.212L213.73 133.079ZM148.315 144.624L158.353 223.01L213.03 133.202L148.315 144.624ZM253.183 126.429L158.874 223.475L258.175 215.293L253.183 126.429ZM601.601 84.3416L566.988 224.649L666.677 124.634L638.179 87.6024L601.601 84.3416ZM490.797 74.4631L566.411 224.756L601.063 84.2934L490.797 74.4631ZM436.083 215.544L566.044 225.219L490.26 74.5862L410.65 146.349L436.083 215.544ZM147.919 145.753L118.031 253.531L157.901 223.681L147.919 145.753ZM744.779 187.508L829.598 256.449L762.998 160.248L744.779 187.508ZM741.049 193.085L802.847 260.509L830.218 257.642L744.482 187.955L741.049 193.085ZM667.39 125.292L687.567 272.135L740.372 193.139L709.739 159.716L667.39 125.292ZM566.975 225.422L687.072 272.456L666.84 125.228L566.975 225.422ZM740.744 193.545L687.936 272.544L802.183 260.579L740.744 193.545ZM803.296 260.999L821.114 280.44L830.467 258.153L803.296 260.999ZM821.513 280.876L830.44 290.616L830.611 259.188L821.513 280.876ZM341.983 209.073L465.126 296.115L435.701 216.052L341.983 209.073ZM436.286 216.095L465.805 296.41L565.734 225.733L436.286 216.095ZM342.018 209.753L403.433 303.659L464.95 296.645L342.018 209.753ZM147.259 146.138L48.7778 305.379L117.331 254.055L147.259 146.138ZM48.551 306.219L101.95 309.509L117.095 254.897L48.551 306.219ZM102.496 309.544L109.111 309.95L157.323 224.781L117.796 254.373L102.496 309.544ZM109.705 309.988L160.885 313.144L157.949 224.759L109.705 309.988ZM830.97 291.196L853.021 315.255L831.146 259.242L830.97 291.196ZM258.739 215.785L264.538 318.994L340.502 209.049L258.739 215.785ZM158.82 224.015L264.012 319.152L258.204 215.83L158.82 224.015ZM341.036 209.215L264.87 319.454L402.839 303.726L341.036 209.215ZM161.422 313.176L263.57 319.473L158.473 224.422L161.422 313.176ZM688.401 273.033L802.381 325.088L820.887 280.986L802.635 261.069L688.401 273.033ZM567.149 226.064L629.871 326.636L686.907 272.964L567.149 226.064ZM102.349 310.07L95.9198 333.257L108.819 310.469L102.349 310.07ZM403.762 304.159L423.556 334.431L464.875 297.191L403.762 304.159ZM802.868 325.31L830.181 337.785L830.435 291.402L821.285 281.419L802.868 325.31ZM630.163 327.099L657.642 371.163L686.856 273.748L630.163 327.099ZM95.4131 335.236L163.866 402.837L160.903 313.679L109.413 310.507L95.4131 335.236ZM48.0195 306.721L25.343 409.915L94.8398 335.148L101.804 310.036L48.0195 306.721ZM423.85 334.883L498.38 448.851L465.511 297.338L423.85 334.883ZM830.713 338.615L830.106 449.014L875.837 428.998L865.78 354.629L830.713 338.615ZM465.971 296.947L498.987 449.14L566.015 226.19L465.971 296.947ZM566.582 226.163L499.49 449.33L629.476 327.011L566.582 226.163ZM499.517 450.039L627.149 472.837L657.436 371.845L629.762 327.474L499.517 450.039ZM264.565 320.027L251.867 489.162L423.152 334.792L403.165 304.226L264.565 320.027ZM164.419 403.383L251.327 489.21L264.028 320.037L161.438 313.714L164.419 403.383ZM423.449 335.244L252.402 489.4L498.495 450.009L423.449 335.244ZM658.019 371.768L732.097 490.548L687.351 273.962L658.019 371.768ZM687.768 273.333L732.747 491.061L802.175 325.582L687.768 273.333ZM802.662 325.804L733.167 491.446L829.571 449.249L830.176 338.371L802.662 325.804ZM627.679 472.933L732.116 491.591L657.813 372.45L627.679 472.933ZM164.444 404.158L167.976 510.454L251.025 489.662L164.444 404.158ZM95.4486 336.023L120.341 522.379L167.444 510.586L163.89 403.613L95.4486 336.023ZM830.103 449.6L829.657 530.88L875.596 429.688L830.103 449.6ZM733.343 491.955L829.117 531.733L829.566 449.835L733.343 491.955ZM829.729 532.014L848.991 542.425L875.232 431.785L829.729 532.014ZM94.9829 336.566L34.0602 543.977L119.82 522.51L94.9829 336.566ZM733.244 492.492L798.304 615.328L829.045 532.282L733.244 492.492ZM34.2734 544.474L132.903 620.466L119.892 523.043L34.2734 544.474ZM252.169 489.978L414.524 626.971L498.487 450.552L252.169 489.978ZM251.961 490.502L281.418 640.228L413.96 627.196L251.961 490.502ZM92.0561 648.272L136.818 649.767L133.005 621.218L34.5418 545.36L92.0561 648.272ZM167.994 511L172.615 650.139L251.057 490.205L167.994 511ZM133.507 620.926L172.099 650.661L167.462 511.134L120.414 522.912L133.507 620.926ZM251.442 490.636L172.837 650.907L280.883 640.282L251.442 490.636ZM137.36 649.783L171.561 650.923L133.606 621.683L137.36 649.783ZM849.352 543.228L822.579 656.125L864.24 551.268L849.352 543.228ZM829.622 532.565L821.93 656.537L848.866 542.963L829.622 532.565ZM798.641 615.961L821.261 658.672L829.005 533.927L798.641 615.961ZM798.395 616.636L782.277 660.175L821.031 659.378L798.395 616.636ZM732.985 493.142L741.033 661.026L781.702 660.186L798.058 616.002L732.985 493.142ZM732.485 493.883L693.198 662.013L740.498 661.037L732.485 493.883ZM627.524 473.45L570.435 663.813L732.126 492.137L627.524 473.45ZM499.34 450.55L569.839 663.931L626.994 473.356L499.34 450.55ZM415 627.218L569.453 664.45L498.902 450.924L415 627.218ZM732.175 492.864L570.483 664.541L692.647 662.024L732.175 492.864ZM173.441 651.383L293.234 703.049L280.988 640.809L173.441 651.383ZM415.192 627.817L467.099 710.352L569.023 664.897L415.192 627.817ZM570.879 665.065L678.468 722.699L692.522 662.561L570.879 665.065ZM414.743 628.103L390.318 744.596L466.607 710.571L414.743 628.103ZM293.83 703.303L389.756 744.676L414.281 627.704L281.522 640.758L293.83 703.303ZM72.2658 648.146L148.836 750.973L91.7366 648.796L72.2658 648.146ZM137.433 650.321L151.123 752.819L172.059 651.474L137.433 650.321ZM92.3612 648.818L150.617 753.059L136.89 650.302L92.3612 648.818ZM782.076 660.716L746.324 757.315L820.919 659.916L782.076 660.716ZM741.06 661.561L745.661 757.567L781.501 660.726L741.06 661.561ZM678.957 722.961L745.167 758.428L740.525 661.572L693.073 662.548L678.957 722.961ZM678.829 723.499L668.444 767.94L744.586 758.722L678.829 723.499ZM570.496 665.472L627.911 772.848L667.88 768.01L678.34 723.239L570.496 665.472ZM151.377 754.244L229.383 783.262L172.476 652.1L151.377 754.244ZM569.913 665.506L531.908 784.471L627.342 772.918L569.913 665.506ZM467.391 710.809L514.827 786.239L569.32 665.351L467.391 710.809ZM390.687 745.016L514.242 786.314L466.896 711.028L390.687 745.016ZM568.175 669.192L515.306 786.483L531.325 784.543L568.175 669.192ZM516.276 786.903L529.448 790.412L531.143 785.102L516.276 786.903ZM390.28 745.444L399.058 803.299L513.712 786.699L390.28 745.444ZM515.394 787.221L524.849 804.811L529.285 790.923L515.394 787.221ZM389.796 745.826L351.141 810.236L398.529 803.378L389.796 745.826ZM230.078 783.524L315.304 815.225L293.357 703.686L172.898 651.731L230.078 783.524ZM293.953 703.942L315.87 815.343L350.456 810.335L389.564 745.179L293.953 703.942ZM628.181 773.354L654.936 823.397L667.749 768.566L628.181 773.354ZM668.316 768.494L655.46 823.514L744.461 759.276L668.316 768.494ZM529.966 790.551L654.511 823.731L627.615 773.424L531.728 785.033L529.966 790.551ZM152.756 755.33L247.618 825.295L229.677 783.944L152.756 755.33ZM230.375 784.204L248.423 825.804L314.603 815.535L230.375 784.204ZM525.202 805.464L547.023 846.059L653.872 824.114L529.801 791.059L525.202 805.464ZM249.469 826.184L326.977 849.459L350.101 810.929L315.697 815.907L249.469 826.184ZM524.974 806.17L509.79 853.701L546.475 846.171L524.974 806.17ZM547.287 846.547L556.189 863.108L652.109 825.023L547.287 846.547ZM322.935 857.231L404.272 873.231L327.221 850.09L322.935 857.231ZM399.139 803.827L409.794 874.041L513.969 787.205L399.139 803.827ZM514.784 787.218L410.588 874.073L509.188 853.826L524.621 805.518L514.784 787.218ZM327.504 849.618L409.273 874.169L398.609 803.904L350.785 810.83L327.504 849.618ZM509.001 854.409L412.39 874.25L503.001 873.193L509.001 854.409ZM409.599 874.817L409.545 874.811L322.459 857.681L322.266 857.531L322.28 857.283L326.694 849.932L248.182 826.355L248.174 826.353L248.15 826.341L248.145 826.339H248.142H248.137L248.134 826.336L248.129 826.334L248.1 826.315L150.911 754.632L150.909 754.63H150.906L150.903 754.627L150.901 754.624L150.895 754.622V754.619H150.893L150.885 754.611L150.882 754.608L150.879 754.606L150.877 754.603V754.6H150.874V754.597L150.871 754.595H150.869V754.592L150.866 754.589H150.863V754.587L150.855 754.579L150.852 754.573L71.5053 648.02L71.4823 647.74L71.7289 647.595L91.4315 648.25L33.4388 544.479L33.4065 544.338V544.335V544.332V544.33L33.4169 544.274L94.5045 336.295L25.0674 410.998L24.7478 411.052L24.6099 410.757L47.5454 306.387L47.5788 306.302L47.5799 306.299H47.5807L147.788 144.263L147.828 144.214V144.212L147.85 144.193L147.855 144.188L147.868 144.18L250.215 72.168L250.223 72.1654L250.228 72.1627L250.231 72.16L250.284 72.1359L367.521 29.7866L367.561 29.7732L367.614 29.7678L505.423 26.1834H505.463H505.466L505.501 26.1887L609.799 49.9581L609.839 49.9688H609.842L609.882 49.9875L681.736 90.9755L681.776 91.0048L763.17 159.566L763.22 159.625L831.103 257.685L831.13 257.728V257.73L831.138 257.749L854.04 316.394L853.933 316.718L853.596 316.67L830.967 291.983L830.716 338.029L866.139 354.207L866.288 354.413L876.393 429.121L876.395 429.19L876.387 429.225L849.481 542.685L864.703 550.913L864.823 551.247L821.718 659.734L821.716 659.739L821.713 659.745V659.747V659.75L821.71 659.753V659.755L821.681 659.804L745.669 759.049V759.051L745.667 759.054L745.664 759.057V759.059H745.661V759.062L745.608 759.107L655.198 824.359L655.136 824.397L556.165 863.692L555.83 863.569L546.737 846.66L509.603 854.287L503.453 873.54L503.199 873.725L409.607 874.817H409.599Z" fill="#F1F0EF"/>
<path d="M344.095 208.737C344.095 207.049 342.729 205.682 341.042 205.682C339.357 205.682 337.991 207.049 337.991 208.737C337.991 210.422 339.357 211.791 341.042 211.791C342.729 211.791 344.095 210.422 344.095 208.737Z" fill="#F1F0EF"/>
<path d="M833.941 257.84C833.941 256.155 832.574 254.785 830.887 254.785C829.202 254.785 827.833 256.155 827.833 257.84C827.833 259.528 829.202 260.895 830.887 260.895C832.574 260.895 833.941 259.528 833.941 257.84Z" fill="#F1F0EF"/>
<path d="M856.844 316.491C856.844 314.805 855.478 313.436 853.794 313.436C852.106 313.436 850.74 314.805 850.74 316.491C850.74 318.178 852.106 319.545 853.794 319.545C855.478 319.545 856.844 318.178 856.844 316.491Z" fill="#F1F0EF"/>
<path d="M612.799 50.2205C612.799 48.5326 611.433 47.1631 609.745 47.1631C608.058 47.1631 606.692 48.5326 606.692 50.2205C606.692 51.9057 608.058 53.2726 609.745 53.2726C611.433 53.2726 612.799 51.9057 612.799 50.2205Z" fill="#F1F0EF"/>
<path d="M508.49 26.4512C508.49 24.7633 507.124 23.3964 505.437 23.3964C503.75 23.3964 502.383 24.7633 502.383 26.4512C502.383 28.139 503.75 29.5033 505.437 29.5033C507.124 29.5033 508.49 28.139 508.49 26.4512Z" fill="#F1F0EF"/>
<path d="M151.069 144.402C151.069 142.717 149.703 141.347 148.018 141.347C146.331 141.347 144.965 142.717 144.965 144.402C144.965 146.09 146.331 147.457 148.018 147.457C149.703 147.457 151.069 146.09 151.069 144.402Z" fill="#F1F0EF"/>
<path d="M98.134 335.282C98.134 333.597 96.7669 332.227 95.081 332.227C93.3941 332.227 92.0281 333.597 92.0281 335.282C92.0281 336.97 93.3941 338.337 95.081 338.337C96.7669 338.337 98.134 336.97 98.134 335.282Z" fill="#F1F0EF"/>
<path d="M161.238 223.802C161.238 222.114 159.871 220.747 158.184 220.747C156.5 220.747 155.131 222.114 155.131 223.802C155.131 225.487 156.5 226.856 158.184 226.856C159.871 226.856 161.238 225.487 161.238 223.802Z" fill="#F1F0EF"/>
<path d="M175.436 651.22C175.436 649.532 174.069 648.165 172.385 648.165C170.698 648.165 169.331 649.532 169.331 651.22C169.331 652.905 170.698 654.275 172.385 654.275C174.069 654.275 175.436 652.905 175.436 651.22Z" fill="#F1F0EF"/>
<path d="M393.002 745.054C393.002 743.366 391.636 741.999 389.949 741.999C388.262 741.999 386.895 743.366 386.895 745.054C386.895 746.739 388.262 748.108 389.949 748.108C391.636 748.108 393.002 746.739 393.002 745.054Z" fill="#F1F0EF"/>
<path d="M417.671 627.403C417.671 625.715 416.302 624.348 414.618 624.348C412.93 624.348 411.564 625.715 411.564 627.403C411.564 629.088 412.93 630.457 414.618 630.457C416.302 630.457 417.671 629.088 417.671 627.403Z" fill="#F1F0EF"/>
<path d="M175.436 651.22C175.436 649.532 174.069 648.165 172.385 648.165C170.698 648.165 169.331 649.532 169.331 651.22C169.331 652.905 170.698 654.275 172.385 654.275C174.069 654.275 175.436 652.905 175.436 651.22Z" fill="#F1F0EF"/>
<path d="M254.602 489.807C254.602 488.122 253.236 486.752 251.551 486.752C249.864 486.752 248.498 488.122 248.498 489.807C248.498 491.495 249.864 492.862 251.551 492.862C253.236 492.862 254.602 491.495 254.602 489.807Z" fill="#F1F0EF"/>
<path d="M318.713 815.645C318.713 813.956 317.344 812.59 315.659 812.59C313.972 812.59 312.606 813.956 312.606 815.645C312.606 817.33 313.972 818.697 315.659 818.697C317.344 818.697 318.713 817.33 318.713 815.645Z" fill="#F1F0EF"/>
<path d="M517.918 786.804C517.918 785.119 516.552 783.749 514.867 783.749C513.18 783.749 511.814 785.119 511.814 786.804C511.814 788.492 513.18 789.858 514.867 789.858C516.552 789.858 517.918 788.492 517.918 786.804Z" fill="#F1F0EF"/>
<path d="M412.652 874.55C412.652 872.861 411.286 871.495 409.599 871.495C407.914 871.495 406.548 872.861 406.548 874.55C406.548 876.237 407.914 877.604 409.599 877.604C411.286 877.604 412.652 876.237 412.652 874.55Z" fill="#F1F0EF"/>
<path d="M393.002 745.054C393.002 743.366 391.636 741.999 389.949 741.999C388.262 741.999 386.895 743.366 386.895 745.054C386.895 746.739 388.262 748.108 389.949 748.108C391.636 748.108 393.002 746.739 393.002 745.054Z" fill="#F1F0EF"/>
<path d="M325.563 857.422C325.563 855.734 324.197 854.367 322.509 854.367C320.822 854.367 319.456 855.734 319.456 857.422C319.456 859.107 320.822 860.476 322.509 860.476C324.197 860.476 325.563 859.107 325.563 857.422Z" fill="#F1F0EF"/>
<path d="M412.652 874.55C412.652 872.861 411.286 871.495 409.599 871.495C407.914 871.495 406.548 872.861 406.548 874.55C406.548 876.237 407.914 877.604 409.599 877.604C411.286 877.604 412.652 876.237 412.652 874.55Z" fill="#F1F0EF"/>
<path d="M251.314 826.101C251.314 824.414 249.947 823.046 248.26 823.046C246.573 823.046 245.207 824.414 245.207 826.101C245.207 827.789 246.573 829.155 248.26 829.155C249.947 829.155 251.314 827.789 251.314 826.101Z" fill="#F1F0EF"/>
<path d="M318.713 815.645C318.713 813.956 317.344 812.59 315.659 812.59C313.972 812.59 312.606 813.956 312.606 815.645C312.606 817.33 313.972 818.697 315.659 818.697C317.344 818.697 318.713 817.33 318.713 815.645Z" fill="#F1F0EF"/>
<path d="M154.12 754.416C154.12 752.728 152.754 751.361 151.066 751.361C149.382 751.361 148.016 752.728 148.016 754.416C148.016 756.104 149.382 757.471 151.066 757.471C152.754 757.471 154.12 756.104 154.12 754.416Z" fill="#F1F0EF"/>
<path d="M251.314 826.101C251.314 824.414 249.947 823.046 248.26 823.046C246.573 823.046 245.207 824.414 245.207 826.101C245.207 827.789 246.573 829.155 248.26 829.155C249.947 829.155 251.314 827.789 251.314 826.101Z" fill="#F1F0EF"/>
<path d="M175.436 651.22C175.436 649.532 174.069 648.165 172.385 648.165C170.698 648.165 169.331 649.532 169.331 651.22C169.331 652.905 170.698 654.275 172.385 654.275C174.069 654.275 175.436 652.905 175.436 651.22Z" fill="#F1F0EF"/>
<path d="M154.12 754.416C154.12 752.728 152.754 751.361 151.066 751.361C149.382 751.361 148.016 752.728 148.016 754.416C148.016 756.104 149.382 757.471 151.066 757.471C152.754 757.471 154.12 756.104 154.12 754.416Z" fill="#F1F0EF"/>
<path d="M74.7736 647.863C74.7736 646.175 73.4062 644.808 71.7206 644.808C70.0337 644.808 68.6676 646.175 68.6676 647.863C68.6676 649.551 70.0337 650.917 71.7206 650.917C73.4062 650.917 74.7736 649.551 74.7736 647.863Z" fill="#F1F0EF"/>
<path d="M175.436 651.22C175.436 649.532 174.069 648.165 172.385 648.165C170.698 648.165 169.331 649.532 169.331 651.22C169.331 652.905 170.698 654.275 172.385 654.275C174.069 654.275 175.436 652.905 175.436 651.22Z" fill="#F1F0EF"/>
<path d="M36.7258 544.351C36.7258 542.663 35.3587 541.296 33.6728 541.296C31.987 541.296 30.6199 542.663 30.6199 544.351C30.6199 546.039 31.987 547.406 33.6728 547.406C35.3587 547.406 36.7258 546.039 36.7258 544.351Z" fill="#F1F0EF"/>
<path d="M154.12 754.416C154.12 752.728 152.754 751.361 151.066 751.361C149.382 751.361 148.016 752.728 148.016 754.416C148.016 756.104 149.382 757.471 151.066 757.471C152.754 757.471 154.12 756.104 154.12 754.416Z" fill="#F1F0EF"/>
<path d="M98.134 335.282C98.134 333.597 96.7669 332.227 95.081 332.227C93.3941 332.227 92.0281 333.597 92.0281 335.282C92.0281 336.97 93.3941 338.337 95.081 338.337C96.7669 338.337 98.134 336.97 98.134 335.282Z" fill="#F1F0EF"/>
<path d="M254.602 489.807C254.602 488.122 253.236 486.752 251.551 486.752C249.864 486.752 248.498 488.122 248.498 489.807C248.498 491.495 249.864 492.862 251.551 492.862C253.236 492.862 254.602 491.495 254.602 489.807Z" fill="#F1F0EF"/>
<path d="M36.7258 544.351C36.7258 542.663 35.3587 541.296 33.6728 541.296C31.987 541.296 30.6199 542.663 30.6199 544.351C30.6199 546.039 31.987 547.406 33.6728 547.406C35.3587 547.406 36.7258 546.039 36.7258 544.351Z" fill="#F1F0EF"/>
<path d="M98.134 335.282C98.134 333.597 96.7669 332.227 95.081 332.227C93.3941 332.227 92.0281 333.597 92.0281 335.282C92.0281 336.97 93.3941 338.337 95.081 338.337C96.7669 338.337 98.134 336.97 98.134 335.282Z" fill="#F1F0EF"/>
<path d="M27.9252 410.816C27.9252 409.128 26.5578 407.762 24.8722 407.762C23.1853 407.762 21.8192 409.128 21.8192 410.816C21.8192 412.502 23.1853 413.868 24.8722 413.868C26.5578 413.868 27.9252 412.502 27.9252 410.816Z" fill="#F1F0EF"/>
<path d="M50.8605 306.441C50.8605 304.753 49.4944 303.386 47.8075 303.386C46.1216 303.386 44.7545 304.753 44.7545 306.441C44.7545 308.126 46.1216 309.493 47.8075 309.493C49.4944 309.493 50.8605 308.126 50.8605 306.441Z" fill="#F1F0EF"/>
<path d="M267.367 319.786C267.367 318.101 266.001 316.734 264.314 316.734C262.629 316.734 261.26 318.101 261.26 319.786C261.26 321.474 262.629 322.841 264.314 322.841C266.001 322.841 267.367 321.474 267.367 319.786Z" fill="#F1F0EF"/>
<path d="M254.602 489.807C254.602 488.122 253.236 486.752 251.551 486.752C249.864 486.752 248.498 488.122 248.498 489.807C248.498 491.495 249.864 492.862 251.551 492.862C253.236 492.862 254.602 491.495 254.602 489.807Z" fill="#F1F0EF"/>
<path d="M417.671 627.403C417.671 625.715 416.302 624.348 414.618 624.348C412.93 624.348 411.564 625.715 411.564 627.403C411.564 629.088 412.93 630.457 414.618 630.457C416.302 630.457 417.671 629.088 417.671 627.403Z" fill="#F1F0EF"/>
<path d="M517.918 786.804C517.918 785.119 516.552 783.749 514.867 783.749C513.18 783.749 511.814 785.119 511.814 786.804C511.814 788.492 513.18 789.858 514.867 789.858C516.552 789.858 517.918 788.492 517.918 786.804Z" fill="#F1F0EF"/>
<path d="M393.002 745.054C393.002 743.366 391.636 741.999 389.949 741.999C388.262 741.999 386.895 743.366 386.895 745.054C386.895 746.739 388.262 748.108 389.949 748.108C391.636 748.108 393.002 746.739 393.002 745.054Z" fill="#F1F0EF"/>
<path d="M572.905 664.819C572.905 663.134 571.539 661.767 569.852 661.767C568.167 661.767 566.798 663.134 566.798 664.819C566.798 666.507 568.167 667.874 569.852 667.874C571.539 667.874 572.905 666.507 572.905 664.819Z" fill="#F1F0EF"/>
<path d="M417.671 627.403C417.671 625.715 416.302 624.348 414.618 624.348C412.93 624.348 411.564 625.715 411.564 627.403C411.564 629.088 412.93 630.457 414.618 630.457C416.302 630.457 417.671 629.088 417.671 627.403Z" fill="#F1F0EF"/>
<path d="M502.001 450.207C502.001 448.52 500.632 447.153 498.947 447.153C497.26 447.153 495.894 448.52 495.894 450.207C495.894 451.895 497.26 453.262 498.947 453.262C500.632 453.262 502.001 451.895 502.001 450.207Z" fill="#F1F0EF"/>
<path d="M254.602 489.807C254.602 488.122 253.236 486.752 251.551 486.752C249.864 486.752 248.498 488.122 248.498 489.807C248.498 491.495 249.864 492.862 251.551 492.862C253.236 492.862 254.602 491.495 254.602 489.807Z" fill="#F1F0EF"/>
<path d="M468.728 296.83C468.728 295.145 467.359 293.775 465.674 293.775C463.987 293.775 462.621 295.145 462.621 296.83C462.621 298.518 463.987 299.885 465.674 299.885C467.359 299.885 468.728 298.518 468.728 296.83Z" fill="#F1F0EF"/>
<path d="M267.367 319.786C267.367 318.101 266.001 316.734 264.314 316.734C262.629 316.734 261.26 318.101 261.26 319.786C261.26 321.474 262.629 322.841 264.314 322.841C266.001 322.841 267.367 321.474 267.367 319.786Z" fill="#F1F0EF"/>
<path d="M161.238 223.802C161.238 222.114 159.871 220.747 158.184 220.747C156.5 220.747 155.131 222.114 155.131 223.802C155.131 225.487 156.5 226.856 158.184 226.856C159.871 226.856 161.238 225.487 161.238 223.802Z" fill="#F1F0EF"/>
<path d="M50.8605 306.441C50.8605 304.753 49.4944 303.386 47.8075 303.386C46.1216 303.386 44.7545 304.753 44.7545 306.441C44.7545 308.126 46.1216 309.493 47.8075 309.493C49.4944 309.493 50.8605 308.126 50.8605 306.441Z" fill="#F1F0EF"/>
<path d="M151.069 144.402C151.069 142.717 149.703 141.347 148.018 141.347C146.331 141.347 144.965 142.717 144.965 144.402C144.965 146.09 146.331 147.457 148.018 147.457C149.703 147.457 151.069 146.09 151.069 144.402Z" fill="#F1F0EF"/>
<path d="M161.238 223.802C161.238 222.114 159.871 220.747 158.184 220.747C156.5 220.747 155.131 222.114 155.131 223.802C155.131 225.487 156.5 226.856 158.184 226.856C159.871 226.856 161.238 225.487 161.238 223.802Z" fill="#F1F0EF"/>
<path d="M344.095 208.737C344.095 207.049 342.729 205.682 341.042 205.682C339.357 205.682 337.991 207.049 337.991 208.737C337.991 210.422 339.357 211.791 341.042 211.791C342.729 211.791 344.095 210.422 344.095 208.737Z" fill="#F1F0EF"/>
<path d="M267.367 319.786C267.367 318.101 266.001 316.734 264.314 316.734C262.629 316.734 261.26 318.101 261.26 319.786C261.26 321.474 262.629 322.841 264.314 322.841C266.001 322.841 267.367 321.474 267.367 319.786Z" fill="#F1F0EF"/>
<path d="M256.469 125.806C256.469 124.118 255.1 122.751 253.415 122.751C251.728 122.751 250.362 124.118 250.362 125.806C250.362 127.494 251.728 128.861 253.415 128.861C255.1 128.861 256.469 127.494 256.469 125.806Z" fill="#F1F0EF"/>
<path d="M161.238 223.802C161.238 222.114 159.871 220.747 158.184 220.747C156.5 220.747 155.131 222.114 155.131 223.802C155.131 225.487 156.5 226.856 158.184 226.856C159.871 226.856 161.238 225.487 161.238 223.802Z" fill="#F1F0EF"/>
<path d="M253.42 72.3878C253.42 70.7026 252.054 69.3356 250.37 69.3356C248.682 69.3356 247.316 70.7026 247.316 72.3878C247.316 74.0756 248.682 75.4425 250.37 75.4425C252.054 75.4425 253.42 74.0756 253.42 72.3878Z" fill="#F1F0EF"/>
<path d="M151.069 144.402C151.069 142.717 149.703 141.347 148.018 141.347C146.331 141.347 144.965 142.717 144.965 144.402C144.965 146.09 146.331 147.457 148.018 147.457C149.703 147.457 151.069 146.09 151.069 144.402Z" fill="#F1F0EF"/>
<path d="M256.469 125.806C256.469 124.118 255.1 122.751 253.415 122.751C251.728 122.751 250.362 124.118 250.362 125.806C250.362 127.494 251.728 128.861 253.415 128.861C255.1 128.861 256.469 127.494 256.469 125.806Z" fill="#F1F0EF"/>
<path d="M253.42 72.3878C253.42 70.7026 252.054 69.3356 250.37 69.3356C248.682 69.3356 247.316 70.7026 247.316 72.3878C247.316 74.0756 248.682 75.4425 250.37 75.4425C252.054 75.4425 253.42 74.0756 253.42 72.3878Z" fill="#F1F0EF"/>
<path d="M370.67 30.0356C370.67 28.3477 369.304 26.9808 367.617 26.9808C365.93 26.9808 364.563 28.3477 364.563 30.0356C364.563 31.7208 365.93 33.0876 367.617 33.0876C369.304 33.0876 370.67 31.7208 370.67 30.0356Z" fill="#F1F0EF"/>
<path d="M256.469 125.806C256.469 124.118 255.1 122.751 253.415 122.751C251.728 122.751 250.362 124.118 250.362 125.806C250.362 127.494 251.728 128.861 253.415 128.861C255.1 128.861 256.469 127.494 256.469 125.806Z" fill="#F1F0EF"/>
<path d="M344.095 208.737C344.095 207.049 342.729 205.682 341.042 205.682C339.357 205.682 337.991 207.049 337.991 208.737C337.991 210.422 339.357 211.791 341.042 211.791C342.729 211.791 344.095 210.422 344.095 208.737Z" fill="#F1F0EF"/>
<path d="M502.001 450.207C502.001 448.52 500.632 447.153 498.947 447.153C497.26 447.153 495.894 448.52 495.894 450.207C495.894 451.895 497.26 453.262 498.947 453.262C500.632 453.262 502.001 451.895 502.001 450.207Z" fill="#F1F0EF"/>
<path d="M572.905 664.819C572.905 663.134 571.539 661.767 569.852 661.767C568.167 661.767 566.798 663.134 566.798 664.819C566.798 666.507 568.167 667.874 569.852 667.874C571.539 667.874 572.905 666.507 572.905 664.819Z" fill="#F1F0EF"/>
<path d="M506.25 873.461C506.25 871.772 504.883 870.406 503.199 870.406C501.512 870.406 500.145 871.772 500.145 873.461C500.145 875.145 501.512 876.515 503.199 876.515C504.883 876.515 506.25 875.145 506.25 873.461Z" fill="#F1F0EF"/>
<path d="M412.652 874.55C412.652 872.861 411.286 871.495 409.599 871.495C407.914 871.495 406.548 872.861 406.548 874.55C406.548 876.237 407.914 877.604 409.599 877.604C411.286 877.604 412.652 876.237 412.652 874.55Z" fill="#F1F0EF"/>
<path d="M658.088 824.148C658.088 822.463 656.722 821.096 655.035 821.096C653.35 821.096 651.981 822.463 651.981 824.148C651.981 825.836 653.35 827.203 655.035 827.203C656.722 827.203 658.088 825.836 658.088 824.148Z" fill="#F1F0EF"/>
<path d="M572.905 664.819C572.905 663.134 571.539 661.767 569.852 661.767C568.167 661.767 566.798 663.134 566.798 664.819C566.798 666.507 568.167 667.874 569.852 667.874C571.539 667.874 572.905 666.507 572.905 664.819Z" fill="#F1F0EF"/>
<path d="M517.918 786.804C517.918 785.119 516.552 783.749 514.867 783.749C513.18 783.749 511.814 785.119 511.814 786.804C511.814 788.492 513.18 789.858 514.867 789.858C516.552 789.858 517.918 788.492 517.918 786.804Z" fill="#F1F0EF"/>
<path d="M559.119 863.446C559.119 861.758 557.753 860.392 556.066 860.392C554.379 860.392 553.012 861.758 553.012 863.446C553.012 865.133 554.379 866.501 556.066 866.501C557.753 866.501 559.119 865.133 559.119 863.446Z" fill="#F1F0EF"/>
<path d="M658.088 824.148C658.088 822.463 656.722 821.096 655.035 821.096C653.35 821.096 651.981 822.463 651.981 824.148C651.981 825.836 653.35 827.203 655.035 827.203C656.722 827.203 658.088 825.836 658.088 824.148Z" fill="#F1F0EF"/>
<path d="M517.918 786.804C517.918 785.119 516.552 783.749 514.867 783.749C513.18 783.749 511.814 785.119 511.814 786.804C511.814 788.492 513.18 789.858 514.867 789.858C516.552 789.858 517.918 788.492 517.918 786.804Z" fill="#F1F0EF"/>
<path d="M748.512 758.888C748.512 757.203 747.145 755.834 745.458 755.834C743.774 755.834 742.405 757.203 742.405 758.888C742.405 760.576 743.774 761.943 745.458 761.943C747.145 761.943 748.512 760.576 748.512 758.888Z" fill="#F1F0EF"/>
<path d="M735.715 491.96C735.715 490.272 734.349 488.905 732.661 488.905C730.974 488.905 729.608 490.272 729.608 491.96C729.608 493.645 730.974 495.012 732.661 495.012C734.349 495.012 735.715 493.645 735.715 491.96Z" fill="#F1F0EF"/>
<path d="M658.088 824.148C658.088 822.463 656.722 821.096 655.035 821.096C653.35 821.096 651.981 822.463 651.981 824.148C651.981 825.836 653.35 827.203 655.035 827.203C656.722 827.203 658.088 825.836 658.088 824.148Z" fill="#F1F0EF"/>
<path d="M748.512 758.888C748.512 757.203 747.145 755.834 745.458 755.834C743.774 755.834 742.405 757.203 742.405 758.888C742.405 760.576 743.774 761.943 745.458 761.943C747.145 761.943 748.512 760.576 748.512 758.888Z" fill="#F1F0EF"/>
<path d="M572.905 664.819C572.905 663.134 571.539 661.767 569.852 661.767C568.167 661.767 566.798 663.134 566.798 664.819C566.798 666.507 568.167 667.874 569.852 667.874C571.539 667.874 572.905 666.507 572.905 664.819Z" fill="#F1F0EF"/>
<path d="M824.523 659.638C824.523 657.95 823.157 656.583 821.47 656.583C819.785 656.583 818.419 657.95 818.419 659.638C818.419 661.323 819.785 662.693 821.47 662.693C823.157 662.693 824.523 661.323 824.523 659.638Z" fill="#F1F0EF"/>
<path d="M748.512 758.888C748.512 757.203 747.145 755.834 745.458 755.834C743.774 755.834 742.405 757.203 742.405 758.888C742.405 760.576 743.774 761.943 745.458 761.943C747.145 761.943 748.512 760.576 748.512 758.888Z" fill="#F1F0EF"/>
<path d="M832.435 532.132C832.435 530.444 831.069 529.077 829.382 529.077C827.697 529.077 826.328 530.444 826.328 532.132C826.328 533.82 827.697 535.187 829.382 535.187C831.069 535.187 832.435 533.82 832.435 532.132Z" fill="#F1F0EF"/>
<path d="M867.628 551.148C867.628 549.461 866.262 548.094 864.574 548.094C862.89 548.094 861.521 549.461 861.521 551.148C861.521 552.834 862.89 554.203 864.574 554.203C866.262 554.203 867.628 552.834 867.628 551.148Z" fill="#F1F0EF"/>
<path d="M824.523 659.638C824.523 657.95 823.157 656.583 821.47 656.583C819.785 656.583 818.419 657.95 818.419 659.638C818.419 661.323 819.785 662.693 821.47 662.693C823.157 662.693 824.523 661.323 824.523 659.638Z" fill="#F1F0EF"/>
<path d="M879.182 429.161C879.182 427.476 877.815 426.106 876.128 426.106C874.444 426.106 873.075 427.476 873.075 429.161C873.075 430.849 874.444 432.216 876.128 432.216C877.815 432.216 879.182 430.849 879.182 429.161Z" fill="#F1F0EF"/>
<path d="M832.435 532.132C832.435 530.444 831.069 529.077 829.382 529.077C827.697 529.077 826.328 530.444 826.328 532.132C826.328 533.82 827.697 535.187 829.382 535.187C831.069 535.187 832.435 533.82 832.435 532.132Z" fill="#F1F0EF"/>
<path d="M824.523 659.638C824.523 657.95 823.157 656.583 821.47 656.583C819.785 656.583 818.419 657.95 818.419 659.638C818.419 661.323 819.785 662.693 821.47 662.693C823.157 662.693 824.523 661.323 824.523 659.638Z" fill="#F1F0EF"/>
<path d="M735.715 491.96C735.715 490.272 734.349 488.905 732.661 488.905C730.974 488.905 729.608 490.272 729.608 491.96C729.608 493.645 730.974 495.012 732.661 495.012C734.349 495.012 735.715 493.645 735.715 491.96Z" fill="#F1F0EF"/>
<path d="M572.905 664.819C572.905 663.134 571.539 661.767 569.852 661.767C568.167 661.767 566.798 663.134 566.798 664.819C566.798 666.507 568.167 667.874 569.852 667.874C571.539 667.874 572.905 666.507 572.905 664.819Z" fill="#F1F0EF"/>
<path d="M690.452 272.871C690.452 271.183 689.083 269.816 687.399 269.816C685.712 269.816 684.345 271.183 684.345 272.871C684.345 274.556 685.712 275.925 687.399 275.925C689.083 275.925 690.452 274.556 690.452 272.871Z" fill="#F1F0EF"/>
<path d="M502.001 450.207C502.001 448.52 500.632 447.153 498.947 447.153C497.26 447.153 495.894 448.52 495.894 450.207C495.894 451.895 497.26 453.262 498.947 453.262C500.632 453.262 502.001 451.895 502.001 450.207Z" fill="#F1F0EF"/>
<path d="M735.715 491.96C735.715 490.272 734.349 488.905 732.661 488.905C730.974 488.905 729.608 490.272 729.608 491.96C729.608 493.645 730.974 495.012 732.661 495.012C734.349 495.012 735.715 493.645 735.715 491.96Z" fill="#F1F0EF"/>
<path d="M569.55 225.522C569.55 223.836 568.183 222.467 566.496 222.467C564.809 222.467 563.443 223.836 563.443 225.522C563.443 227.21 564.809 228.576 566.496 228.576C568.183 228.576 569.55 227.21 569.55 225.522Z" fill="#F1F0EF"/>
<path d="M468.728 296.83C468.728 295.145 467.359 293.775 465.674 293.775C463.987 293.775 462.621 295.145 462.621 296.83C462.621 298.518 463.987 299.885 465.674 299.885C467.359 299.885 468.728 298.518 468.728 296.83Z" fill="#F1F0EF"/>
<path d="M502.001 450.207C502.001 448.52 500.632 447.153 498.947 447.153C497.26 447.153 495.894 448.52 495.894 450.207C495.894 451.895 497.26 453.262 498.947 453.262C500.632 453.262 502.001 451.895 502.001 450.207Z" fill="#F1F0EF"/>
<path d="M569.55 225.522C569.55 223.836 568.183 222.467 566.496 222.467C564.809 222.467 563.443 223.836 563.443 225.522C563.443 227.21 564.809 228.576 566.496 228.576C568.183 228.576 569.55 227.21 569.55 225.522Z" fill="#F1F0EF"/>
<path d="M344.095 208.737C344.095 207.049 342.729 205.682 341.042 205.682C339.357 205.682 337.991 207.049 337.991 208.737C337.991 210.422 339.357 211.791 341.042 211.791C342.729 211.791 344.095 210.422 344.095 208.737Z" fill="#F1F0EF"/>
<path d="M468.728 296.83C468.728 295.145 467.359 293.775 465.674 293.775C463.987 293.775 462.621 295.145 462.621 296.83C462.621 298.518 463.987 299.885 465.674 299.885C467.359 299.885 468.728 298.518 468.728 296.83Z" fill="#F1F0EF"/>
<path d="M370.67 30.0356C370.67 28.3477 369.304 26.9808 367.617 26.9808C365.93 26.9808 364.563 28.3477 364.563 30.0356C364.563 31.7208 365.93 33.0876 367.617 33.0876C369.304 33.0876 370.67 31.7208 370.67 30.0356Z" fill="#F1F0EF"/>
<path d="M344.095 208.737C344.095 207.049 342.729 205.682 341.042 205.682C339.357 205.682 337.991 207.049 337.991 208.737C337.991 210.422 339.357 211.791 341.042 211.791C342.729 211.791 344.095 210.422 344.095 208.737Z" fill="#F1F0EF"/>
<path d="M493.394 74.1531C493.394 72.4679 492.027 71.0984 490.34 71.0984C488.656 71.0984 487.287 72.4679 487.287 74.1531C487.287 75.841 488.656 77.2079 490.34 77.2079C492.027 77.2079 493.394 75.841 493.394 74.1531Z" fill="#F1F0EF"/>
<path d="M508.49 26.4512C508.49 24.7633 507.124 23.3964 505.437 23.3964C503.75 23.3964 502.383 24.7633 502.383 26.4512C502.383 28.139 503.75 29.5033 505.437 29.5033C507.124 29.5033 508.49 28.139 508.49 26.4512Z" fill="#F1F0EF"/>
<path d="M370.67 30.0356C370.67 28.3477 369.304 26.9808 367.617 26.9808C365.93 26.9808 364.563 28.3477 364.563 30.0356C364.563 31.7208 365.93 33.0876 367.617 33.0876C369.304 33.0876 370.67 31.7208 370.67 30.0356Z" fill="#F1F0EF"/>
<path d="M493.394 74.1531C493.394 72.4679 492.027 71.0984 490.34 71.0984C488.656 71.0984 487.287 72.4679 487.287 74.1531C487.287 75.841 488.656 77.2079 490.34 77.2079C492.027 77.2079 493.394 75.841 493.394 74.1531Z" fill="#F1F0EF"/>
<path d="M569.55 225.522C569.55 223.836 568.183 222.467 566.496 222.467C564.809 222.467 563.443 223.836 563.443 225.522C563.443 227.21 564.809 228.576 566.496 228.576C568.183 228.576 569.55 227.21 569.55 225.522Z" fill="#F1F0EF"/>
<path d="M612.799 50.2205C612.799 48.5326 611.433 47.1631 609.745 47.1631C608.058 47.1631 606.692 48.5326 606.692 50.2205C606.692 51.9057 608.058 53.2726 609.745 53.2726C611.433 53.2726 612.799 51.9057 612.799 50.2205Z" fill="#F1F0EF"/>
<path d="M493.394 74.1531C493.394 72.4679 492.027 71.0984 490.34 71.0984C488.656 71.0984 487.287 72.4679 487.287 74.1531C487.287 75.841 488.656 77.2079 490.34 77.2079C492.027 77.2079 493.394 75.841 493.394 74.1531Z" fill="#F1F0EF"/>
<path d="M684.656 91.2084C684.656 89.5206 683.289 88.1537 681.602 88.1537C679.915 88.1537 678.548 89.5206 678.548 91.2084C678.548 92.8936 679.915 94.2605 681.602 94.2605C683.289 94.2605 684.656 92.8936 684.656 91.2084Z" fill="#F1F0EF"/>
<path d="M612.799 50.2205C612.799 48.5326 611.433 47.1631 609.745 47.1631C608.058 47.1631 606.692 48.5326 606.692 50.2205C606.692 51.9057 608.058 53.2726 609.745 53.2726C611.433 53.2726 612.799 51.9057 612.799 50.2205Z" fill="#F1F0EF"/>
<path d="M670.086 124.658C670.086 122.971 668.719 121.604 667.032 121.604C665.345 121.604 663.979 122.971 663.979 124.658C663.979 126.344 665.345 127.713 667.032 127.713C668.719 127.713 670.086 126.344 670.086 124.658Z" fill="#F1F0EF"/>
<path d="M684.656 91.2084C684.656 89.5206 683.289 88.1537 681.602 88.1537C679.915 88.1537 678.548 89.5206 678.548 91.2084C678.548 92.8936 679.915 94.2605 681.602 94.2605C683.289 94.2605 684.656 92.8936 684.656 91.2084Z" fill="#F1F0EF"/>
<path d="M766.049 159.772C766.049 158.084 764.683 156.717 762.996 156.717C761.309 156.717 759.942 158.084 759.942 159.772C759.942 161.46 761.309 162.827 762.996 162.827C764.683 162.827 766.049 161.46 766.049 159.772Z" fill="#F1F0EF"/>
<path d="M670.086 124.658C670.086 122.971 668.719 121.604 667.032 121.604C665.345 121.604 663.979 122.971 663.979 124.658C663.979 126.344 665.345 127.713 667.032 127.713C668.719 127.713 670.086 126.344 670.086 124.658Z" fill="#F1F0EF"/>
<path d="M569.55 225.522C569.55 223.836 568.183 222.467 566.496 222.467C564.809 222.467 563.443 223.836 563.443 225.522C563.443 227.21 564.809 228.576 566.496 228.576C568.183 228.576 569.55 227.21 569.55 225.522Z" fill="#F1F0EF"/>
<path d="M690.452 272.871C690.452 271.183 689.083 269.816 687.399 269.816C685.712 269.816 684.345 271.183 684.345 272.871C684.345 274.556 685.712 275.925 687.399 275.925C689.083 275.925 690.452 274.556 690.452 272.871Z" fill="#F1F0EF"/>
<path d="M735.715 491.96C735.715 490.272 734.349 488.905 732.661 488.905C730.974 488.905 729.608 490.272 729.608 491.96C729.608 493.645 730.974 495.012 732.661 495.012C734.349 495.012 735.715 493.645 735.715 491.96Z" fill="#F1F0EF"/>
<path d="M832.435 532.132C832.435 530.444 831.069 529.077 829.382 529.077C827.697 529.077 826.328 530.444 826.328 532.132C826.328 533.82 827.697 535.187 829.382 535.187C831.069 535.187 832.435 533.82 832.435 532.132Z" fill="#F1F0EF"/>
<path d="M833.941 257.84C833.941 256.155 832.574 254.785 830.887 254.785C829.202 254.785 827.833 256.155 827.833 257.84C827.833 259.528 829.202 260.895 830.887 260.895C832.574 260.895 833.941 259.528 833.941 257.84Z" fill="#F1F0EF"/>
<path d="M670.086 124.658C670.086 122.971 668.719 121.604 667.032 121.604C665.345 121.604 663.979 122.971 663.979 124.658C663.979 126.344 665.345 127.713 667.032 127.713C668.719 127.713 670.086 126.344 670.086 124.658Z" fill="#F1F0EF"/>
<path d="M766.049 159.772C766.049 158.084 764.683 156.717 762.996 156.717C761.309 156.717 759.942 158.084 759.942 159.772C759.942 161.46 761.309 162.827 762.996 162.827C764.683 162.827 766.049 161.46 766.049 159.772Z" fill="#F1F0EF"/>
<path d="M690.452 272.871C690.452 271.183 689.083 269.816 687.399 269.816C685.712 269.816 684.345 271.183 684.345 272.871C684.345 274.556 685.712 275.925 687.399 275.925C689.083 275.925 690.452 274.556 690.452 272.871Z" fill="#F1F0EF"/>
<path d="M833.941 257.84C833.941 256.155 832.574 254.785 830.887 254.785C829.202 254.785 827.833 256.155 827.833 257.84C827.833 259.528 829.202 260.895 830.887 260.895C832.574 260.895 833.941 259.528 833.941 257.84Z" fill="#F1F0EF"/>
<path d="M690.452 272.871C690.452 271.183 689.083 269.816 687.399 269.816C685.712 269.816 684.345 271.183 684.345 272.871C684.345 274.556 685.712 275.925 687.399 275.925C689.083 275.925 690.452 274.556 690.452 272.871Z" fill="#F1F0EF"/>
<path d="M869.077 354.448C869.077 352.762 867.711 351.396 866.024 351.396C864.339 351.396 862.973 352.762 862.973 354.448C862.973 356.136 864.339 357.502 866.024 357.502C867.711 357.502 869.077 356.136 869.077 354.448Z" fill="#F1F0EF"/>
<path d="M879.182 429.161C879.182 427.476 877.815 426.106 876.128 426.106C874.444 426.106 873.075 427.476 873.075 429.161C873.075 430.849 874.444 432.216 876.128 432.216C877.815 432.216 879.182 430.849 879.182 429.161Z" fill="#F1F0EF"/>
<path d="M735.715 491.96C735.715 490.272 734.349 488.905 732.661 488.905C730.974 488.905 729.608 490.272 729.608 491.96C729.608 493.645 730.974 495.012 732.661 495.012C734.349 495.012 735.715 493.645 735.715 491.96Z" fill="#F1F0EF"/>
<path d="M833.941 257.84C833.941 256.155 832.574 254.785 830.887 254.785C829.202 254.785 827.833 256.155 827.833 257.84C827.833 259.528 829.202 260.895 830.887 260.895C832.574 260.895 833.941 259.528 833.941 257.84Z" fill="#F1F0EF"/>
<path d="M253.835 55.8302L285.469 56.0041L309.287 34.1579L253.835 55.8302ZM335.063 56.2769L448.567 56.9029L428.08 10.0596L351.422 20.4329L335.063 56.2769ZM433.65 11.266L534.785 57.2184L545.285 37.7637L433.65 11.266ZM449.738 56.9082L532.515 57.3629L429.457 10.5384L449.738 56.9082ZM546.889 37.0442L660.005 63.8924L554.951 22.1182L546.889 37.0442ZM535.884 57.4298L660.829 65.187L546.365 38.0205L535.884 57.4298ZM253.725 56.9001L274.832 65.7623L284.309 57.0688L253.725 56.9001ZM251.661 57.1918L254.509 84.4038L273.964 66.5594L251.661 57.1918ZM275.915 66.2169L320.758 85.0484L333.403 57.3389L285.883 57.0767L275.915 66.2169ZM538.603 58.671L621.788 89.4834L665.099 66.5245L538.603 58.671ZM623.133 89.9809L667.318 106.346L666.508 66.9873L623.133 89.9809ZM668.396 106.747L766.643 143.137L667.586 67.2093L668.396 106.747ZM150.451 126.692L178.163 145.229L248.249 58.9305L150.451 126.692ZM179.056 145.828L183.968 149.113L253.527 85.3051L250.637 57.6865L179.056 145.828ZM668.42 107.895L669.27 149.158L767.14 144.461L668.42 107.895ZM450.206 57.9808L493.41 156.768L534.218 58.441L450.206 57.9808ZM535.314 58.5908L494.487 156.964L620.521 90.1549L535.314 58.5908ZM321.745 85.463L492.396 157.121L449.035 57.9728L334.576 57.3442L321.745 85.463ZM621.866 90.6524L495.79 157.483L668.201 149.209L667.342 107.496L621.866 90.6524ZM178.38 146.66L154.254 176.368L183.155 149.856L178.38 146.66ZM497.271 158.483L669.219 198.695L668.225 150.279L497.271 158.483ZM254.648 85.7278L266.923 203.026L320.314 86.0221L275.049 67.014L254.648 85.7278ZM184.882 149.723L265.945 203.954L253.666 86.6293L184.882 149.723ZM321.301 86.4366L267.52 204.294L491.626 157.956L321.301 86.4366ZM149.772 127.521L120.638 207.201L148.85 181.322L177.486 146.063L149.772 127.521ZM670.294 198.949L732.453 213.485L768.867 145.451L669.292 150.228L670.294 198.949ZM79.3848 210.834L104.666 221.855L118.924 208.772L147.959 129.364L79.3848 210.834ZM119.839 209.384L114.746 223.315L144.227 187.017L119.839 209.384ZM733.53 213.736L778.857 224.337L769.456 146.617L733.53 213.736ZM105.738 222.32L112.84 225.418L118.127 210.957L105.738 222.32ZM149.631 182.06L114.416 225.42L265.126 204.695L184.069 150.469L149.631 182.06ZM268.774 205.128L368.949 235.195L490.602 159.261L268.774 205.128ZM779.967 224.596L836.079 237.72L770.563 146.866L779.967 224.596ZM78.9816 211.824L75.7227 248.403L103.803 222.644L78.9816 211.824ZM75.5818 249.984L75.1599 254.716L112.104 226.263L104.876 223.112L75.5818 249.984ZM268.348 206.118L322.782 264.009L367.74 235.949L268.348 206.118ZM780.103 225.728L784.972 265.986L835.844 238.763L780.103 225.728ZM370.312 235.604L473.522 266.582L492.685 159.224L370.312 235.604ZM74.412 251.057L45.6026 277.482L74.0067 255.604L74.412 251.057ZM77.7626 213.434L38.2338 282.789L74.5529 249.476L77.7626 213.434ZM37.2825 285.24L70.6331 293.476L73.8773 257.054L37.2825 285.24ZM670.318 200.051L672.885 324.778L731.929 214.461L670.318 200.051ZM733.009 214.713L673.69 325.537L783.961 266.526L778.993 225.469L733.009 214.713ZM495.236 159.106L671.832 325.567L669.243 199.8L495.236 159.106ZM474.551 266.89L670.38 325.668L493.776 159.2L474.551 266.89ZM266.784 206.014L218.661 328.999L321.857 264.587L266.784 206.014ZM71.6829 293.735L215.834 329.328L113.101 226.843L75.0305 256.166L71.6829 293.735ZM114.289 226.517L217.375 329.352L265.763 205.687L114.289 226.517ZM839.096 244.42L860.724 349.82L877.361 340.87L839.096 244.42ZM673.757 326.706L795.967 365.779L784.098 267.668L673.757 326.706ZM797.087 366.14L802.387 367.833L836.515 239.619L785.111 267.125L797.087 366.14ZM803.405 368.157L817.98 372.819L859.74 350.353L837.283 240.898L803.405 368.157ZM797.229 367.306L798.884 380.986L802.109 368.869L797.229 367.306ZM803.13 369.195L799.523 382.749L816.673 373.523L803.13 369.195ZM681.131 330.186L798.042 382.928L796.109 366.948L681.131 330.186ZM819.395 373.271L867.604 388.687L859.965 351.444L819.395 373.271ZM323.528 264.806L449.859 399.159L473.332 267.641L369.104 236.358L323.528 264.806ZM218.859 330.136L448.441 399.216L322.603 265.384L218.859 330.136ZM474.364 267.952L450.88 399.512L670.615 326.854L474.364 267.952ZM36.7664 286.216L60.6555 405.48L70.5371 294.554L36.7664 286.216ZM71.5879 294.813L61.4763 408.308L216.04 330.481L71.5879 294.813ZM12.1004 393.216L60.1562 408.436L36.0437 288.051L12.1004 393.216ZM673.452 327.894L720.118 432.625L797.558 383.886L673.452 327.894ZM218.907 331.267L291.635 434.179L448.062 400.219L218.907 331.267ZM217.998 331.834L208.102 464.85L290.563 434.516L217.998 331.834ZM12.3052 394.401L37.8194 471.778L60.1678 409.559L12.3052 394.401ZM292.416 435.105L330.841 477.775L447.484 401.438L292.416 435.105ZM672.543 328.482L634.478 486.53L719.204 433.2L672.543 328.482ZM451.629 400.393L633.286 486.918L671.647 327.632L451.629 400.393ZM869.021 390.263L888.93 487.295L887.872 396.289L869.021 390.263ZM799.518 383.968L888.577 490.901L867.853 389.888L818.087 373.975L799.518 383.968ZM61.7261 409.383L135.678 491.49L206.997 465.254L216.971 331.211L61.7261 409.383ZM292.121 436.376L299.196 498.485L329.935 478.369L292.121 436.376ZM799.486 385.603L816.531 503.428L888.513 492.495L799.486 385.603ZM720.559 433.612L755.389 511.771L797.705 385.057L720.559 433.612ZM635.056 487.432L754.544 512.504L719.645 434.187L635.056 487.432ZM798.48 386.114L756.242 512.584L815.472 503.588L798.48 386.114ZM38.3624 473.426L54.2016 521.46L134.596 491.886L61.0597 410.242L38.3624 473.426ZM12.0993 397.191L15.641 533.521L37.2311 473.413L12.0993 397.191ZM37.7763 475.06L16.0705 535.484L53.1957 521.831L37.7763 475.06ZM17.3312 536.161L60.0172 542.517L53.531 522.848L17.3312 536.161ZM757.006 513.55L822.614 552.954L815.625 504.648L757.006 513.55ZM291.031 436.234L202.23 561.966L298.194 499.14L291.031 436.234ZM208.014 466.019L200.869 562.033L289.974 435.873L208.014 466.019ZM136.449 492.346L199.754 562.632L206.912 466.428L136.449 492.346ZM61.2017 542.69L198.8 563.172L135.368 492.744L54.5359 522.476L61.2017 542.69ZM823.799 553.668L863.569 577.555L888.775 493.536L816.681 504.487L823.799 553.668ZM864.513 578.125L871.417 582.269L886.89 503.54L864.513 578.125ZM755.707 514.018L713.327 612.361L827.94 589.796L822.809 554.324L755.707 514.018ZM16.4956 537.119L85.3236 619.26L60.3923 543.653L16.4956 537.119ZM634.254 488.357L647.706 625.284L712.054 612.613L754.71 513.633L634.254 488.357ZM201.153 563.932L314.504 642.313L298.33 500.333L201.153 563.932ZM200.818 565.002L207.727 648.928L313.582 642.976L200.818 565.002ZM87.1806 621.478L114.359 653.914L199.099 564.298L61.5766 543.83L87.1806 621.478ZM199.757 565.138L115.646 654.109L206.661 648.989L199.757 565.138ZM331.566 478.58L490.38 654.944L449.8 401.2L331.566 478.58ZM88.0863 624.225L98.2666 655.099L113.241 654.245L88.0863 624.225ZM450.885 401.222L491.541 655.409L632.794 487.868L450.885 401.222ZM633.243 488.997L492.586 655.826L646.652 625.493L633.243 488.997ZM315.651 642.92L489.907 656.016L330.659 479.172L299.333 499.675L315.651 642.92ZM16.7076 539.036L59.399 657.316L97.1615 655.16L86.2301 622.007L16.7076 539.036ZM823.996 555.035L829.074 590.146L839.537 657.643L863.248 578.612L823.996 555.035ZM828.331 592.332L796.445 678.114L838.777 659.732L828.331 592.332ZM60.7744 658.309L107.608 686.847L97.5072 656.214L60.7744 658.309ZM109.019 687.703L120.882 694.934L113.891 655.278L98.6134 656.15L109.019 687.703ZM647.81 626.354L658.639 736.564L711.541 613.803L647.81 626.354ZM712.813 613.554L659.337 737.65L795.084 678.705L827.708 590.933L712.813 613.554ZM492.854 656.867L657.684 737.775L646.759 626.563L492.854 656.867ZM491.995 657.635L513.338 742.965L656.15 738.217L491.995 657.635ZM490.91 657.701L403.16 746.627L512.244 742.999L490.91 657.701ZM315.67 643.998L309.154 749.754L401.607 746.677L490.003 657.094L315.67 643.998ZM122.098 695.677L212.014 750.462L115.15 656.257L122.098 695.677ZM115.579 655.182L215.142 752.011L206.749 650.054L115.579 655.182ZM207.816 649.995L216.225 752.116L313.9 644.027L207.816 649.995ZM314.541 644.913L217.032 752.814L308.082 749.788L314.541 644.913ZM109.535 689.271L131.775 756.716L121.13 696.338L109.535 689.271ZM795.929 679.507L766.982 757.385L837.761 661.342L795.929 679.507ZM660.072 738.498L764.811 760.148L794.568 680.099L660.072 738.498ZM60.9448 659.665L131.951 760.667L108.126 688.415L60.9448 659.665ZM122.347 697.079L134.026 763.332L214.211 753.054L122.347 697.079ZM658.823 739.332L657.65 774.598L761.964 760.654L658.823 739.332ZM657.719 740.322L628.315 778.52L656.575 774.74L657.719 740.322ZM513.605 744.027L525.667 792.242L626.812 778.72L657.195 739.252L513.605 744.027ZM136.285 764.121L245.912 794.548L215.551 753.961L136.285 764.121ZM217.709 753.865L304.793 803.196L308.015 750.861L217.709 753.865ZM247.597 795.016L304.325 810.76L304.718 804.383L217.749 755.117L247.597 795.016ZM305.378 811.055L327.162 817.097L305.755 804.969L305.378 811.055ZM402.067 747.734L332.691 818.042L524.597 792.384L512.512 744.064L402.067 747.734ZM305.827 803.785L331.119 818.111L400.513 747.785L309.09 750.826L305.827 803.785ZM657.612 775.682L656.099 821.15L762.445 761.668L657.612 775.682ZM656.056 822.399L655.406 841.894L758.271 765.228L656.056 822.399ZM137.058 765.445L299.231 865.821L246.96 795.95L137.058 765.445ZM248.645 796.418L300.908 866.275L304.258 811.852L248.645 796.418ZM627.39 779.723L549.681 880.67L655.008 821.76L656.537 775.826L627.39 779.723ZM525.926 793.287L547.918 881.207L625.885 779.924L525.926 793.287ZM333.777 818.975L546.921 881.632L524.859 793.43L333.777 818.975ZM301.91 867.34L407.615 890.586L330.943 819.258L305.311 812.146L301.91 867.34ZM409.414 892.065L409.299 892.052L301.245 868.288L301.148 868.258L301.06 868.213L133.315 764.385L133.227 764.319H133.224L133.216 764.311L133.211 764.305L133.208 764.303L133.203 764.297L133.2 764.292H133.197L133.144 764.225L58.5987 658.188L58.5405 658.084L58.5268 658.049L14.6793 536.568L14.6782 536.562H14.6761L14.675 536.557L14.6699 536.543L14.6688 536.538L14.6678 536.535L14.6656 536.533V536.53L14.6646 536.527V536.525L14.6635 536.522V536.519L14.6614 536.517L14.6448 536.386L10.9359 393.604L10.941 393.502V393.497L10.9503 393.451L35.5538 285.387L35.6124 285.229L78.049 210.773L78.0655 210.746L78.0688 210.74L78.0698 210.738H78.072L78.073 210.735L78.1073 210.69L149.093 126.355L149.205 126.256L250.723 55.9158L250.787 55.8756L250.792 55.873L250.848 55.849L311.563 32.117L312.213 32.3337L312.119 33.0104L287.041 56.0147L333.889 56.2716L350.569 19.7214L350.986 19.4111L428.329 8.94416L428.422 8.94141L428.54 8.95487L545.814 36.7901L554.234 21.1899C554.365 20.9518 554.643 20.8503 554.903 20.9466L667.225 65.6124L667.254 65.6232L667.257 65.6258L667.364 65.6926L770.103 144.44L770.18 144.512L770.183 144.515L770.22 144.563L837.777 238.247L837.817 238.305L837.82 238.308L837.85 238.378L878.529 340.918C878.631 341.172 878.526 341.459 878.288 341.587L860.946 350.917L868.775 389.059L888.564 395.388L888.938 395.891L890.067 492.865L890.064 492.934L890.053 492.993L872.321 583.224L872.013 583.609L871.521 583.582L864.195 579.179L839.884 660.208L839.868 660.253V660.256L839.793 660.384L765.592 761.071L765.507 761.167L765.504 761.17L765.501 761.173L765.496 761.176V761.178H765.493L765.49 761.181L765.488 761.184L765.485 761.186H765.482L765.466 761.2L655.152 843.413L654.586 843.459L654.299 842.967L654.965 823.01L547.929 882.877L547.509 882.921L333.237 819.93L409.778 891.136L409.887 891.776L409.414 892.065Z" fill="#D9D6D5"/>
<path d="M257.503 56.3515C257.503 59.9252 254.608 62.8221 251.035 62.8221C247.46 62.8221 244.565 59.9252 244.565 56.3515C244.565 52.7751 247.46 49.8781 251.035 49.8781C254.608 49.8781 257.503 52.7751 257.503 56.3515Z" fill="#D9D6D5"/>
<path d="M316.678 32.6169C316.678 35.3373 314.475 37.5388 311.758 37.5388C309.039 37.5388 306.835 35.3373 306.835 32.6169C306.835 29.8992 309.039 27.6951 311.758 27.6951C314.475 27.6951 316.678 29.8992 316.678 32.6169Z" fill="#D9D6D5"/>
<path d="M42.5475 285.493C42.5475 289.067 39.6502 291.964 36.0782 291.964C32.5052 291.964 29.6089 289.067 29.6089 285.493C29.6089 281.92 32.5052 279.02 36.0782 279.02C39.6502 279.02 42.5475 281.92 42.5475 285.493Z" fill="#D9D6D5"/>
<path d="M17.9389 393.576C17.9389 397.15 15.0426 400.047 11.4696 400.047C7.89629 400.047 5 397.15 5 393.576C5 390.003 7.89629 387.103 11.4696 387.103C15.0426 387.103 17.9389 390.003 17.9389 393.576Z" fill="#D9D6D5"/>
<path d="M140.058 763.928C140.058 767.502 137.163 770.398 133.588 770.398C130.015 770.398 127.12 767.502 127.12 763.928C127.12 760.351 130.015 757.454 133.588 757.454C137.163 757.454 140.058 760.351 140.058 763.928Z" fill="#D9D6D5"/>
<path d="M337.681 818.778C337.681 822.353 334.785 825.251 331.213 825.251C327.638 825.251 324.742 822.353 324.742 818.778C324.742 815.203 327.638 812.307 331.213 812.307C334.785 812.307 337.681 815.203 337.681 818.778Z" fill="#D9D6D5"/>
<path d="M222.262 753.391C222.262 756.965 219.364 759.865 215.792 759.865C212.22 759.865 209.321 756.965 209.321 753.391C209.321 749.818 212.22 746.918 215.792 746.918C219.364 746.918 222.262 749.818 222.262 753.391Z" fill="#D9D6D5"/>
<path d="M664.781 738.679C664.781 742.253 661.882 745.153 658.31 745.153C654.738 745.153 651.84 742.253 651.84 738.679C651.84 735.106 654.738 732.206 658.31 732.206C661.882 732.206 664.781 735.106 664.781 738.679Z" fill="#D9D6D5"/>
<path d="M761.929 513.242C761.929 516.816 759.033 519.715 755.458 519.715C751.886 519.715 748.99 516.816 748.99 513.242C748.99 509.668 751.886 506.771 755.458 506.771C759.033 506.771 761.929 509.668 761.929 513.242Z" fill="#D9D6D5"/>
<path d="M640.12 487.683C640.12 491.257 637.224 494.154 633.652 494.154C630.077 494.154 627.181 491.257 627.181 487.683C627.181 484.107 630.077 481.21 633.652 481.21C637.224 481.21 640.12 484.107 640.12 487.683Z" fill="#D9D6D5"/>
<path d="M664.781 738.679C664.781 742.253 661.882 745.153 658.31 745.153C654.738 745.153 651.84 742.253 651.84 738.679C651.84 735.106 654.738 732.206 658.31 732.206C661.882 732.206 664.781 735.106 664.781 738.679Z" fill="#D9D6D5"/>
<path d="M497.667 656.647C497.667 660.224 494.768 663.121 491.196 663.121C487.624 663.121 484.725 660.224 484.725 656.647C484.725 653.074 487.624 650.177 491.196 650.177C494.768 650.177 497.667 653.074 497.667 656.647Z" fill="#D9D6D5"/>
<path d="M835.013 590.221C835.013 593.795 832.117 596.694 828.545 596.694C824.97 596.694 822.074 593.795 822.074 590.221C822.074 586.647 824.97 583.748 828.545 583.748C832.117 583.748 835.013 586.647 835.013 590.221Z" fill="#D9D6D5"/>
<path d="M805.157 383.805C805.157 387.381 802.258 390.278 798.686 390.278C795.114 390.278 792.215 387.381 792.215 383.805C792.215 380.231 795.114 377.334 798.686 377.334C802.258 377.334 805.157 380.231 805.157 383.805Z" fill="#D9D6D5"/>
<path d="M896 492.88C896 496.454 893.104 499.354 889.529 499.354C885.957 499.354 883.062 496.454 883.062 492.88C883.062 489.307 885.957 486.41 889.529 486.41C893.104 486.41 896 489.307 896 492.88Z" fill="#D9D6D5"/>
<path d="M761.929 513.242C761.929 516.816 759.033 519.715 755.458 519.715C751.886 519.715 748.99 516.816 748.99 513.242C748.99 509.668 751.886 506.771 755.458 506.771C759.033 506.771 761.929 509.668 761.929 513.242Z" fill="#D9D6D5"/>
<path d="M876.703 583.122C876.703 585.834 874.508 588.03 871.796 588.03C869.088 588.03 866.89 585.834 866.89 583.122C866.89 580.412 869.088 578.213 871.796 578.213C874.508 578.213 876.703 580.412 876.703 583.122Z" fill="#D9D6D5"/>
<path d="M896 492.88C896 496.454 893.104 499.354 889.529 499.354C885.957 499.354 883.062 496.454 883.062 492.88C883.062 489.307 885.957 486.41 889.529 486.41C893.104 486.41 896 489.307 896 492.88Z" fill="#D9D6D5"/>
<path d="M845.839 660.058C845.839 663.631 842.943 666.528 839.371 666.528C835.799 666.528 832.9 663.631 832.9 660.058C832.9 656.484 835.799 653.584 839.371 653.584C842.943 653.584 845.839 656.484 845.839 660.058Z" fill="#D9D6D5"/>
<path d="M835.013 590.221C835.013 593.795 832.117 596.694 828.545 596.694C824.97 596.694 822.074 593.795 822.074 590.221C822.074 586.647 824.97 583.748 828.545 583.748C832.117 583.748 835.013 586.647 835.013 590.221Z" fill="#D9D6D5"/>
<path d="M771.622 760.766C771.622 764.34 768.726 767.24 765.154 767.24C761.579 767.24 758.683 764.34 758.683 760.766C758.683 757.192 761.579 754.296 765.154 754.296C768.726 754.296 771.622 757.192 771.622 760.766Z" fill="#D9D6D5"/>
<path d="M846.58 660.058C846.58 664.041 843.353 667.27 839.371 667.27C835.39 667.27 832.163 664.041 832.163 660.058C832.163 656.075 835.39 652.846 839.371 652.846C843.353 652.846 846.58 656.075 846.58 660.058Z" fill="#D9D6D5"/>
<path d="M664.781 738.679C664.781 742.253 661.882 745.153 658.31 745.153C654.738 745.153 651.84 742.253 651.84 738.679C651.84 735.106 654.738 732.206 658.31 732.206C661.882 732.206 664.781 735.106 664.781 738.679Z" fill="#D9D6D5"/>
<path d="M771.622 760.766C771.622 764.34 768.726 767.24 765.154 767.24C761.579 767.24 758.683 764.34 758.683 760.766C758.683 757.192 761.579 754.296 765.154 754.296C768.726 754.296 771.622 757.192 771.622 760.766Z" fill="#D9D6D5"/>
<path d="M662.58 842.985C662.58 847.265 659.112 850.731 654.834 850.731C650.559 850.731 647.091 847.265 647.091 842.985C647.091 838.706 650.559 835.236 654.834 835.236C659.112 835.236 662.58 838.706 662.58 842.985Z" fill="#D9D6D5"/>
<path d="M668.163 738.679C668.163 744.123 663.751 748.536 658.31 748.536C652.869 748.536 648.457 744.123 648.457 738.679C648.457 733.236 652.869 728.822 658.31 728.822C663.751 728.822 668.163 733.236 668.163 738.679Z" fill="#D9D6D5"/>
<path d="M554.135 882.408C554.135 885.982 551.239 888.882 547.667 888.882C544.095 888.882 541.197 885.982 541.197 882.408C541.197 878.835 544.095 875.935 547.667 875.935C551.239 875.935 554.135 878.835 554.135 882.408Z" fill="#D9D6D5"/>
<path d="M771.622 760.766C771.622 764.34 768.726 767.24 765.154 767.24C761.579 767.24 758.683 764.34 758.683 760.766C758.683 757.192 761.579 754.296 765.154 754.296C768.726 754.296 771.622 757.192 771.622 760.766Z" fill="#D9D6D5"/>
<path d="M337.681 818.778C337.681 822.353 334.785 825.251 331.213 825.251C327.638 825.251 324.742 822.353 324.742 818.778C324.742 815.203 327.638 812.307 331.213 812.307C334.785 812.307 337.681 815.203 337.681 818.778Z" fill="#D9D6D5"/>
<path d="M497.667 656.647C497.667 660.224 494.768 663.121 491.196 663.121C487.624 663.121 484.725 660.224 484.725 656.647C484.725 653.074 487.624 650.177 491.196 650.177C494.768 650.177 497.667 653.074 497.667 656.647Z" fill="#D9D6D5"/>
<path d="M554.135 882.408C554.135 885.982 551.239 888.882 547.667 888.882C544.095 888.882 541.197 885.982 541.197 882.408C541.197 878.835 544.095 875.935 547.667 875.935C551.239 875.935 554.135 878.835 554.135 882.408Z" fill="#D9D6D5"/>
<path d="M342.149 818.777C342.149 824.82 337.253 829.721 331.213 829.721C325.173 829.721 320.277 824.82 320.277 818.777C320.277 812.737 325.173 807.836 331.213 807.836C337.253 807.836 342.149 812.737 342.149 818.777Z" fill="#D9D6D5"/>
<path d="M415.882 891.527C415.882 895.101 412.986 898 409.412 898C405.839 898 402.944 895.101 402.944 891.527C402.944 887.954 405.839 885.056 409.412 885.056C412.986 885.056 415.882 887.954 415.882 891.527Z" fill="#D9D6D5"/>
<path d="M307.82 867.76C307.82 871.337 304.924 874.234 301.349 874.234C297.777 874.234 294.881 871.337 294.881 867.76C294.881 864.187 297.777 861.29 301.349 861.29C304.924 861.29 307.82 864.187 307.82 867.76Z" fill="#D9D6D5"/>
<path d="M321.638 643.422C321.638 646.996 318.742 649.893 315.17 649.893C311.595 649.893 308.699 646.996 308.699 643.422C308.699 639.849 311.595 636.949 315.17 636.949C318.742 636.949 321.638 639.849 321.638 643.422Z" fill="#D9D6D5"/>
<path d="M497.667 656.647C497.667 660.224 494.768 663.121 491.196 663.121C487.624 663.121 484.725 660.224 484.725 656.647C484.725 653.074 487.624 650.177 491.196 650.177C494.768 650.177 497.667 653.074 497.667 656.647Z" fill="#D9D6D5"/>
<path d="M640.12 487.683C640.12 491.257 637.224 494.154 633.652 494.154C630.077 494.154 627.181 491.257 627.181 487.683C627.181 484.107 630.077 481.21 633.652 481.21C637.224 481.21 640.12 484.107 640.12 487.683Z" fill="#D9D6D5"/>
<path d="M805.157 383.805C805.157 387.381 802.258 390.278 798.686 390.278C795.114 390.278 792.215 387.381 792.215 383.805C792.215 380.231 795.114 377.334 798.686 377.334C802.258 377.334 805.157 380.231 805.157 383.805Z" fill="#D9D6D5"/>
<path d="M764.161 513.242C764.161 518.051 760.266 521.949 755.458 521.949C750.653 521.949 746.755 518.051 746.755 513.242C746.755 508.435 750.653 504.535 755.458 504.535C760.266 504.535 764.161 508.435 764.161 513.242Z" fill="#D9D6D5"/>
<path d="M678.861 326.829C678.861 330.406 675.965 333.302 672.393 333.302C668.818 333.302 665.923 330.406 665.923 326.829C665.923 323.255 668.818 320.358 672.393 320.358C675.965 320.358 678.861 323.255 678.861 326.829Z" fill="#D9D6D5"/>
<path d="M643.965 487.683C643.965 493.381 639.347 498 633.652 498C627.957 498 623.339 493.381 623.339 487.683C623.339 481.985 627.957 477.366 633.652 477.366C639.347 477.366 643.965 481.985 643.965 487.683Z" fill="#D9D6D5"/>
<path d="M456.666 400.301C456.666 403.875 453.77 406.775 450.198 406.775C446.623 406.775 443.728 403.875 443.728 400.301C443.728 396.728 446.623 393.828 450.198 393.828C453.77 393.828 456.666 396.728 456.666 400.301Z" fill="#D9D6D5"/>
<path d="M501.356 656.647C501.356 662.262 496.808 666.812 491.196 666.812C485.584 666.812 481.035 662.262 481.035 656.647C481.035 651.035 485.584 646.483 491.196 646.483C496.808 646.483 501.356 651.035 501.356 656.647Z" fill="#D9D6D5"/>
<path d="M297.87 434.778C297.87 438.352 294.974 441.249 291.402 441.249C287.83 441.249 284.932 438.352 284.932 434.778C284.932 431.205 287.83 428.305 291.402 428.305C294.974 428.305 297.87 431.205 297.87 434.778Z" fill="#D9D6D5"/>
<path d="M321.638 643.422C321.638 646.996 318.742 649.893 315.17 649.893C311.595 649.893 308.699 646.996 308.699 643.422C308.699 639.849 311.595 636.949 315.17 636.949C318.742 636.949 321.638 639.849 321.638 643.422Z" fill="#D9D6D5"/>
<path d="M222.262 753.391C222.262 756.965 219.364 759.865 215.792 759.865C212.22 759.865 209.321 756.965 209.321 753.391C209.321 749.818 212.22 746.918 215.792 746.918C219.364 746.918 222.262 749.818 222.262 753.391Z" fill="#D9D6D5"/>
<path d="M309.271 867.76C309.271 872.139 305.726 875.686 301.349 875.686C296.974 875.686 293.429 872.139 293.429 867.76C293.429 863.384 296.974 859.837 301.349 859.837C305.726 859.837 309.271 863.384 309.271 867.76Z" fill="#D9D6D5"/>
<path d="M140.058 763.928C140.058 767.502 137.163 770.398 133.588 770.398C130.015 770.398 127.12 767.502 127.12 763.928C127.12 760.351 130.015 757.454 133.588 757.454C137.163 757.454 140.058 760.351 140.058 763.928Z" fill="#D9D6D5"/>
<path d="M222.262 753.391C222.262 756.965 219.364 759.865 215.792 759.865C212.22 759.865 209.321 756.965 209.321 753.391C209.321 749.818 212.22 746.918 215.792 746.918C219.364 746.918 222.262 749.818 222.262 753.391Z" fill="#D9D6D5"/>
<path d="M206.663 563.918C206.663 567.492 203.768 570.389 200.195 570.389C196.62 570.389 193.725 567.492 193.725 563.918C193.725 560.342 196.62 557.445 200.195 557.445C203.768 557.445 206.663 560.342 206.663 563.918Z" fill="#D9D6D5"/>
<path d="M321.638 643.422C321.638 646.996 318.742 649.893 315.17 649.893C311.595 649.893 308.699 646.996 308.699 643.422C308.699 639.849 311.595 636.949 315.17 636.949C318.742 636.949 321.638 639.849 321.638 643.422Z" fill="#D9D6D5"/>
<path d="M120.804 654.716C120.804 658.29 117.908 661.189 114.335 661.189C110.761 661.189 107.865 658.29 107.865 654.716C107.865 651.142 110.761 648.245 114.335 648.245C117.908 648.245 120.804 651.142 120.804 654.716Z" fill="#D9D6D5"/>
<path d="M222.262 753.391C222.262 756.965 219.364 759.865 215.792 759.865C212.22 759.865 209.321 756.965 209.321 753.391C209.321 749.818 212.22 746.918 215.792 746.918C219.364 746.918 222.262 749.818 222.262 753.391Z" fill="#D9D6D5"/>
<path d="M65.4996 657.872C65.4996 661.446 62.6033 664.343 59.0303 664.343C55.457 664.343 52.5607 661.446 52.5607 657.872C52.5607 654.299 55.457 651.399 59.0303 651.399C62.6033 651.399 65.4996 654.299 65.4996 657.872Z" fill="#D9D6D5"/>
<path d="M140.058 763.928C140.058 767.502 137.163 770.398 133.588 770.398C130.015 770.398 127.12 767.502 127.12 763.928C127.12 760.351 130.015 757.454 133.588 757.454C137.163 757.454 140.058 760.351 140.058 763.928Z" fill="#D9D6D5"/>
<path d="M120.804 654.716C120.804 658.29 117.908 661.189 114.335 661.189C110.761 661.189 107.865 658.29 107.865 654.716C107.865 651.142 110.761 648.245 114.335 648.245C117.908 648.245 120.804 651.142 120.804 654.716Z" fill="#D9D6D5"/>
<path d="M65.4996 657.872C65.4996 661.446 62.6033 664.343 59.0303 664.343C55.457 664.343 52.5607 661.446 52.5607 657.872C52.5607 654.299 55.457 651.399 59.0303 651.399C62.6033 651.399 65.4996 654.299 65.4996 657.872Z" fill="#D9D6D5"/>
<path d="M21.65 536.383C21.65 539.956 18.7526 542.853 15.1806 542.853C11.6073 542.853 8.70996 539.956 8.70996 536.383C8.70996 532.806 11.6073 529.909 15.1806 529.909C18.7526 529.909 21.65 532.806 21.65 536.383Z" fill="#D9D6D5"/>
<path d="M122.807 654.716C122.807 659.397 119.013 663.193 114.335 663.193C109.657 663.193 105.863 659.397 105.863 654.716C105.863 650.035 109.657 646.242 114.335 646.242C119.013 646.242 122.807 650.035 122.807 654.716Z" fill="#D9D6D5"/>
<path d="M206.663 563.918C206.663 567.492 203.768 570.389 200.195 570.389C196.62 570.389 193.725 567.492 193.725 563.918C193.725 560.342 196.62 557.445 200.195 557.445C203.768 557.445 206.663 560.342 206.663 563.918Z" fill="#D9D6D5"/>
<path d="M456.666 400.301C456.666 403.875 453.77 406.775 450.198 406.775C446.623 406.775 443.728 403.875 443.728 400.301C443.728 396.728 446.623 393.828 450.198 393.828C453.77 393.828 456.666 396.728 456.666 400.301Z" fill="#D9D6D5"/>
<path d="M678.861 326.829C678.861 330.406 675.965 333.302 672.393 333.302C668.818 333.302 665.923 330.406 665.923 326.829C665.923 323.255 668.818 320.358 672.393 320.358C675.965 320.358 678.861 323.255 678.861 326.829Z" fill="#D9D6D5"/>
<path d="M892.369 395.896C892.369 398.089 890.594 399.865 888.404 399.865C886.211 399.865 884.436 398.089 884.436 395.896C884.436 393.705 886.211 391.929 888.404 391.929C890.594 391.929 892.369 393.705 892.369 395.896Z" fill="#D9D6D5"/>
<path d="M896 492.88C896 496.454 893.104 499.354 889.529 499.354C885.957 499.354 883.062 496.454 883.062 492.88C883.062 489.307 885.957 486.41 889.529 486.41C893.104 486.41 896 489.307 896 492.88Z" fill="#D9D6D5"/>
<path d="M843.82 238.565C843.82 242.141 840.925 245.038 837.35 245.038C833.777 245.038 830.882 242.141 830.882 238.565C830.882 234.991 833.777 232.094 837.35 232.094C840.925 232.094 843.82 234.991 843.82 238.565Z" fill="#D9D6D5"/>
<path d="M678.861 326.829C678.861 330.406 675.965 333.302 672.393 333.302C668.818 333.302 665.923 330.406 665.923 326.829C665.923 323.255 668.818 320.358 672.393 320.358C675.965 320.358 678.861 323.255 678.861 326.829Z" fill="#D9D6D5"/>
<path d="M805.157 383.805C805.157 387.381 802.258 390.278 798.686 390.278C795.114 390.278 792.215 387.381 792.215 383.805C792.215 380.231 795.114 377.334 798.686 377.334C802.258 377.334 805.157 380.231 805.157 383.805Z" fill="#D9D6D5"/>
<path d="M884.505 341.116C884.505 344.69 881.607 347.589 878.034 347.589C874.462 347.589 871.566 344.69 871.566 341.116C871.566 337.542 874.462 334.643 878.034 334.643C881.607 334.643 884.505 337.542 884.505 341.116Z" fill="#D9D6D5"/>
<path d="M843.82 238.565C843.82 242.141 840.925 245.038 837.35 245.038C833.777 245.038 830.882 242.141 830.882 238.565C830.882 234.991 833.777 232.094 837.35 232.094C840.925 232.094 843.82 234.991 843.82 238.565Z" fill="#D9D6D5"/>
<path d="M805.157 383.805C805.157 387.381 802.258 390.278 798.686 390.278C795.114 390.278 792.215 387.381 792.215 383.805C792.215 380.231 795.114 377.334 798.686 377.334C802.258 377.334 805.157 380.231 805.157 383.805Z" fill="#D9D6D5"/>
<path d="M499.894 158.132C499.894 161.706 496.998 164.603 493.423 164.603C489.851 164.603 486.955 161.706 486.955 158.132C486.955 154.556 489.851 151.659 493.423 151.659C496.998 151.659 499.894 154.556 499.894 158.132Z" fill="#D9D6D5"/>
<path d="M843.82 238.565C843.82 242.141 840.925 245.038 837.35 245.038C833.777 245.038 830.882 242.141 830.882 238.565C830.882 234.991 833.777 232.094 837.35 232.094C840.925 232.094 843.82 234.991 843.82 238.565Z" fill="#D9D6D5"/>
<path d="M678.861 326.829C678.861 330.406 675.965 333.302 672.393 333.302C668.818 333.302 665.923 330.406 665.923 326.829C665.923 323.255 668.818 320.358 672.393 320.358C675.965 320.358 678.861 323.255 678.861 326.829Z" fill="#D9D6D5"/>
<path d="M673.495 66.1096C673.495 69.6833 670.599 72.5803 667.027 72.5803C663.452 72.5803 660.556 69.6833 660.556 66.1096C660.556 62.5359 663.452 59.6363 667.027 59.6363C670.599 59.6363 673.495 62.5359 673.495 66.1096Z" fill="#D9D6D5"/>
<path d="M774.902 144.87C774.902 147.7 772.611 149.993 769.785 149.993C766.956 149.993 764.664 147.7 764.664 144.87C764.664 142.043 766.956 139.75 769.785 139.75C772.611 139.75 774.902 142.043 774.902 144.87Z" fill="#D9D6D5"/>
<path d="M541.485 57.911C541.485 61.4847 538.59 64.3843 535.017 64.3843C531.445 64.3843 528.547 61.4847 528.547 57.911C528.547 54.3373 531.445 51.4377 535.017 51.4377C538.59 51.4377 541.485 54.3373 541.485 57.911Z" fill="#D9D6D5"/>
<path d="M561.173 21.4437C561.173 25.0201 558.277 27.9171 554.705 27.9171C551.13 27.9171 548.234 25.0201 548.234 21.4437C548.234 17.87 551.13 14.9731 554.705 14.9731C558.277 14.9731 561.173 17.87 561.173 21.4437Z" fill="#D9D6D5"/>
<path d="M625.869 90.1064C625.869 92.2597 624.123 94.0063 621.97 94.0063C619.818 94.0063 618.072 92.2597 618.072 90.1064C618.072 87.953 619.818 86.2063 621.97 86.2063C624.123 86.2063 625.869 87.953 625.869 90.1064Z" fill="#D9D6D5"/>
<path d="M671.765 107.226C671.765 109.302 670.083 110.984 668.008 110.984C665.936 110.984 664.254 109.302 664.254 107.226C664.254 105.153 665.936 103.47 668.008 103.47C670.083 103.47 671.765 105.153 671.765 107.226Z" fill="#D9D6D5"/>
<path d="M672.952 199.209C672.952 201.284 671.27 202.967 669.195 202.967C667.121 202.967 665.441 201.284 665.441 199.209C665.441 197.133 667.121 195.45 669.195 195.45C671.27 195.45 672.952 197.133 672.952 199.209Z" fill="#D9D6D5"/>
<path d="M672.626 149.332C672.626 151.408 670.944 153.09 668.872 153.09C666.797 153.09 665.115 151.408 665.115 149.332C665.115 147.259 666.797 145.576 668.872 145.576C670.944 145.576 672.626 147.259 672.626 149.332Z" fill="#D9D6D5"/>
<path d="M736.054 214.183C736.054 216.256 734.372 217.938 732.3 217.938C730.225 217.938 728.543 216.256 728.543 214.183C728.543 212.107 730.225 210.424 732.3 210.424C734.372 210.424 736.054 212.107 736.054 214.183Z" fill="#D9D6D5"/>
<path d="M782.977 224.703C782.977 226.779 781.298 228.461 779.223 228.461C777.148 228.461 775.466 226.779 775.466 224.703C775.466 222.627 777.148 220.945 779.223 220.945C781.298 220.945 782.977 222.627 782.977 224.703Z" fill="#D9D6D5"/>
<path d="M788.64 266.791C788.64 268.864 786.961 270.546 784.886 270.546C782.811 270.546 781.13 268.864 781.13 266.791C781.13 264.715 782.811 263.032 784.886 263.032C786.961 263.032 788.64 264.715 788.64 266.791Z" fill="#D9D6D5"/>
<path d="M800.213 365.974C800.213 368.047 798.531 369.729 796.459 369.729C794.384 369.729 792.702 368.047 792.702 365.974C792.702 363.898 794.384 362.216 796.459 362.216C798.531 362.216 800.213 363.898 800.213 365.974Z" fill="#D9D6D5"/>
<path d="M822.05 373.552C822.05 375.628 820.368 377.31 818.293 377.31C816.221 377.31 814.539 375.628 814.539 373.552C814.539 371.476 816.221 369.794 818.293 369.794C820.368 369.794 822.05 371.476 822.05 373.552Z" fill="#D9D6D5"/>
<path d="M724.009 432.847C724.009 434.92 722.327 436.603 720.255 436.603C718.18 436.603 716.498 434.92 716.498 432.847C716.498 430.771 718.18 429.089 720.255 429.089C722.327 429.089 724.009 430.771 724.009 432.847Z" fill="#D9D6D5"/>
<path d="M819.823 504.177C819.823 506.252 818.141 507.935 816.066 507.935C813.991 507.935 812.309 506.252 812.309 504.177C812.309 502.103 813.991 500.421 816.066 500.421C818.141 500.421 819.823 502.103 819.823 504.177Z" fill="#D9D6D5"/>
<path d="M826.951 554.11C826.951 556.185 825.269 557.868 823.197 557.868C821.122 557.868 819.44 556.185 819.44 554.11C819.44 552.034 821.122 550.351 823.197 550.351C825.269 550.351 826.951 552.034 826.951 554.11Z" fill="#D9D6D5"/>
<path d="M716.88 612.511C716.88 614.587 715.199 616.269 713.124 616.269C711.049 616.269 709.367 614.587 709.367 612.511C709.367 610.438 711.049 608.755 713.124 608.755C715.199 608.755 716.88 610.438 716.88 612.511Z" fill="#D9D6D5"/>
<path d="M651.371 626.779C651.371 628.852 649.69 630.535 647.615 630.535C645.54 630.535 643.858 628.852 643.858 626.779C643.858 624.703 645.54 623.021 647.615 623.021C649.69 623.021 651.371 624.703 651.371 626.779Z" fill="#D9D6D5"/>
<path d="M529.266 793.515C529.266 795.591 527.584 797.274 525.509 797.274C523.437 797.274 521.755 795.591 521.755 793.515C521.755 791.439 523.437 789.757 525.509 789.757C527.584 789.757 529.266 791.439 529.266 793.515Z" fill="#D9D6D5"/>
<path d="M516.343 743.582C516.343 745.658 514.661 747.341 512.587 747.341C510.512 747.341 508.83 745.658 508.83 743.582C508.83 741.509 510.512 739.827 512.587 739.827C514.661 739.827 516.343 741.509 516.343 743.582Z" fill="#D9D6D5"/>
<path d="M405.379 747.595C405.379 749.67 403.698 751.353 401.623 751.353C399.548 751.353 397.866 749.67 397.866 747.595C397.866 745.522 399.548 743.839 401.623 743.839C403.698 743.839 405.379 745.522 405.379 747.595Z" fill="#D9D6D5"/>
<path d="M308.229 811.792C308.229 813.869 306.547 815.551 304.475 815.551C302.4 815.551 300.718 813.869 300.718 811.792C300.718 809.719 302.4 808.037 304.475 808.037C306.547 808.037 308.229 809.719 308.229 811.792Z" fill="#D9D6D5"/>
<path d="M251.188 795.743C251.188 797.819 249.506 799.501 247.431 799.501C245.359 799.501 243.677 797.819 243.677 795.743C243.677 793.67 245.359 791.988 247.431 791.988C249.506 791.988 251.188 793.67 251.188 795.743Z" fill="#D9D6D5"/>
<path d="M312.686 750.716C312.686 752.792 311.004 754.475 308.929 754.475C306.857 754.475 305.175 752.792 305.175 750.716C305.175 748.641 306.857 746.958 308.929 746.958C311.004 746.958 312.686 748.641 312.686 750.716Z" fill="#D9D6D5"/>
<path d="M126.855 695.434C126.855 697.509 125.173 699.192 123.098 699.192C121.026 699.192 119.344 697.509 119.344 695.434C119.344 693.361 121.026 691.678 123.098 691.678C125.173 691.678 126.855 693.361 126.855 695.434Z" fill="#D9D6D5"/>
<path d="M112.149 688.303C112.149 690.376 110.467 692.058 108.393 692.058C106.318 692.058 104.638 690.376 104.638 688.303C104.638 686.227 106.318 684.544 108.393 684.544C110.467 684.544 112.149 686.227 112.149 688.303Z" fill="#D9D6D5"/>
<path d="M101.453 655.757C101.453 657.832 99.7717 659.515 97.6974 659.515C95.623 659.515 93.9425 657.832 93.9425 655.757C93.9425 653.681 95.623 651.998 97.6974 651.998C99.7717 651.998 101.453 653.681 101.453 655.757Z" fill="#D9D6D5"/>
<path d="M90.3119 622.767C90.3119 624.84 88.6314 626.522 86.5571 626.522C84.4827 626.522 82.8011 624.84 82.8011 622.767C82.8011 620.691 84.4827 619.009 86.5571 619.009C88.6314 619.009 90.3119 620.691 90.3119 622.767Z" fill="#D9D6D5"/>
<path d="M64.4657 543.41C64.4657 545.485 62.7841 547.168 60.7098 547.168C58.6354 547.168 56.9539 545.485 56.9539 543.41C56.9539 541.334 58.6354 539.651 60.7098 539.651C62.7841 539.651 64.4657 541.334 64.4657 543.41Z" fill="#D9D6D5"/>
<path d="M57.7811 521.563C57.7811 523.639 56.0996 525.322 54.0252 525.322C51.9509 525.322 50.2693 523.639 50.2693 521.563C50.2693 519.49 51.9509 517.808 54.0252 517.808C56.0996 517.808 57.7811 519.49 57.7811 521.563Z" fill="#D9D6D5"/>
<path d="M210.634 649.516C210.634 651.589 208.952 653.271 206.88 653.271C204.805 653.271 203.123 651.589 203.123 649.516C203.123 647.44 204.805 645.758 206.88 645.758C208.952 645.758 210.634 647.44 210.634 649.516Z" fill="#D9D6D5"/>
<path d="M139.334 492.139C139.334 494.215 137.652 495.898 135.577 495.898C133.502 495.898 131.82 494.215 131.82 492.139C131.82 490.066 133.502 488.384 135.577 488.384C137.652 488.384 139.334 490.066 139.334 492.139Z" fill="#D9D6D5"/>
<path d="M42.183 472.524C42.183 474.6 40.5025 476.282 38.4282 476.282C36.3538 476.282 34.6722 474.6 34.6722 472.524C34.6722 470.448 36.3538 468.766 38.4282 468.766C40.5025 468.766 42.183 470.448 42.183 472.524Z" fill="#D9D6D5"/>
<path d="M75.5495 294.751C75.5495 296.827 73.8679 298.507 71.7936 298.507C69.7203 298.507 68.0387 296.827 68.0387 294.751C68.0387 292.676 69.7203 290.993 71.7936 290.993C73.8679 290.993 75.5495 292.676 75.5495 294.751Z" fill="#D9D6D5"/>
<path d="M154.04 180.958C154.04 183.033 152.358 184.716 150.283 184.716C148.208 184.716 146.526 183.033 146.526 180.958C146.526 178.882 148.208 177.199 150.283 177.199C152.358 177.199 154.04 178.882 154.04 180.958Z" fill="#D9D6D5"/>
<path d="M78.7258 249.615C78.7258 251.688 77.0442 253.37 74.9698 253.37C72.8955 253.37 71.215 251.688 71.215 249.615C71.215 247.539 72.8955 245.857 74.9698 245.857C77.0442 245.857 78.7258 247.539 78.7258 249.615Z" fill="#D9D6D5"/>
<path d="M187.463 150.196C187.463 152.272 185.781 153.954 183.706 153.954C181.631 153.954 179.949 152.272 179.949 150.196C179.949 148.12 181.631 146.438 183.706 146.438C185.781 146.438 187.463 148.12 187.463 150.196Z" fill="#D9D6D5"/>
<path d="M123.291 209.491C123.291 211.564 121.609 213.247 119.534 213.247C117.459 213.247 115.777 211.564 115.777 209.491C115.777 207.415 117.459 205.733 119.534 205.733C121.609 205.733 123.291 207.415 123.291 209.491Z" fill="#D9D6D5"/>
<path d="M324.718 85.7409C324.718 87.8166 323.036 89.4991 320.961 89.4991C318.889 89.4991 317.207 87.8166 317.207 85.7409C317.207 83.6678 318.889 81.9853 320.961 81.9853C323.036 81.9853 324.718 83.6678 324.718 85.7409Z" fill="#D9D6D5"/>
<path d="M338.087 56.5735C338.087 58.6492 336.405 60.3291 334.33 60.3291C332.258 60.3291 330.576 58.6492 330.576 56.5735C330.576 54.4978 332.258 52.8152 334.33 52.8152C336.405 52.8152 338.087 54.4978 338.087 56.5735Z" fill="#D9D6D5"/>
<path d="M278.816 67.2732C278.816 69.3489 277.135 71.0288 275.062 71.0288C272.988 71.0288 271.306 69.3489 271.306 67.2732C271.306 65.1975 272.988 63.5149 275.062 63.5149C277.135 63.5149 278.816 65.1975 278.816 67.2732Z" fill="#D9D6D5"/>
<path d="M258.319 85.9977C258.319 88.0734 256.637 89.7533 254.562 89.7533C252.487 89.7533 250.805 88.0734 250.805 85.9977C250.805 83.9219 252.487 82.2394 254.562 82.2394C256.637 82.2394 258.319 83.9219 258.319 85.9977Z" fill="#D9D6D5"/>
<path d="M290.405 56.1268C290.405 58.2025 288.723 59.885 286.648 59.885C284.573 59.885 282.891 58.2025 282.891 56.1268C282.891 54.0511 284.573 52.3712 286.648 52.3712C288.723 52.3712 290.405 54.0511 290.405 56.1268Z" fill="#D9D6D5"/>
<path d="M453.062 57.0203C453.062 59.0933 451.38 60.7759 449.305 60.7759C447.233 60.7759 445.551 59.0933 445.551 57.0203C445.551 54.9445 447.233 53.2621 449.305 53.2621C451.38 53.2621 453.062 54.9445 453.062 57.0203Z" fill="#D9D6D5"/>
<path d="M372.4 236.24C372.4 238.313 370.719 239.996 368.646 239.996C366.571 239.996 364.89 238.313 364.89 236.24C364.89 234.164 366.571 232.482 368.646 232.482C370.719 232.482 372.4 234.164 372.4 236.24Z" fill="#D9D6D5"/>
<path d="M326.502 264.771C326.502 266.847 324.82 268.529 322.745 268.529C320.67 268.529 318.988 266.847 318.988 264.771C318.988 262.698 320.67 261.015 322.745 261.015C324.82 261.015 326.502 262.698 326.502 264.771Z" fill="#D9D6D5"/>
<path d="M477.573 267.002C477.573 269.075 475.891 270.757 473.816 270.757C471.741 270.757 470.059 269.075 470.059 267.002C470.059 264.926 471.741 263.244 473.816 263.244C475.891 263.244 477.573 264.926 477.573 267.002Z" fill="#D9D6D5"/>
<path d="M549.766 37.4023C549.766 39.478 548.084 41.1605 546.009 41.1605C543.935 41.1605 542.253 39.478 542.253 37.4023C542.253 35.3266 543.935 33.6467 546.009 33.6467C548.084 33.6467 549.766 35.3266 549.766 37.4023Z" fill="#D9D6D5"/>
<path d="M673.495 66.1096C673.495 69.6833 670.599 72.5803 667.027 72.5803C663.452 72.5803 660.556 69.6833 660.556 66.1096C660.556 62.5359 663.452 59.6363 667.027 59.6363C670.599 59.6363 673.495 62.5359 673.495 66.1096Z" fill="#D9D6D5"/>
<path d="M434.877 9.4734C434.877 13.0471 431.981 15.9441 428.409 15.9441C424.837 15.9441 421.938 13.0471 421.938 9.4734C421.938 5.8997 424.837 3.0001 428.409 3.0001C431.981 3.0001 434.877 5.8997 434.877 9.4734Z" fill="#D9D6D5"/>
<path d="M541.485 57.911C541.485 61.4847 538.59 64.3843 535.017 64.3843C531.445 64.3843 528.547 61.4847 528.547 57.911C528.547 54.3373 531.445 51.4377 535.017 51.4377C538.59 51.4377 541.485 54.3373 541.485 57.911Z" fill="#D9D6D5"/>
<path d="M676.837 66.1096C676.837 71.529 672.444 75.924 667.027 75.924C661.607 75.924 657.214 71.529 657.214 66.1096C657.214 60.6875 661.607 56.2926 667.027 56.2926C672.444 56.2926 676.837 60.6875 676.837 66.1096Z" fill="#D9D6D5"/>
<path d="M499.894 158.132C499.894 161.706 496.998 164.603 493.423 164.603C489.851 164.603 486.955 161.706 486.955 158.132C486.955 154.556 489.851 151.659 493.423 151.659C496.998 151.659 499.894 154.556 499.894 158.132Z" fill="#D9D6D5"/>
<path d="M694.982 326.829C694.982 339.31 684.869 349.429 672.393 349.429C659.917 349.429 649.802 339.31 649.802 326.829C649.802 314.348 659.917 304.231 672.393 304.231C684.869 304.231 694.982 314.348 694.982 326.829Z" fill="#D9D6D5"/>
<path d="M273.065 205.032C273.065 208.606 270.167 211.505 266.594 211.505C263.022 211.505 260.124 208.606 260.124 205.032C260.124 201.458 263.022 198.559 266.594 198.559C270.167 198.559 273.065 201.458 273.065 205.032Z" fill="#D9D6D5"/>
<path d="M456.666 400.301C456.666 403.875 453.77 406.775 450.198 406.775C446.623 406.775 443.728 403.875 443.728 400.301C443.728 396.728 446.623 393.828 450.198 393.828C453.77 393.828 456.666 396.728 456.666 400.301Z" fill="#D9D6D5"/>
<path d="M499.894 158.132C499.894 161.706 496.998 164.603 493.423 164.603C489.851 164.603 486.955 161.706 486.955 158.132C486.955 154.556 489.851 151.659 493.423 151.659C496.998 151.659 499.894 154.556 499.894 158.132Z" fill="#D9D6D5"/>
<path d="M224.043 330.307C224.043 333.883 221.147 336.78 217.575 336.78C214 336.78 211.104 333.883 211.104 330.307C211.104 326.733 214 323.836 217.575 323.836C221.147 323.836 224.043 326.733 224.043 330.307Z" fill="#D9D6D5"/>
<path d="M297.87 434.778C297.87 438.352 294.974 441.249 291.402 441.249C287.83 441.249 284.932 438.352 284.932 434.778C284.932 431.205 287.83 428.305 291.402 428.305C294.974 428.305 297.87 431.205 297.87 434.778Z" fill="#D9D6D5"/>
<path d="M467.578 400.301C467.578 409.904 459.797 417.688 450.198 417.688C440.599 417.688 432.816 409.904 432.816 400.301C432.816 390.698 440.599 382.914 450.198 382.914C459.797 382.914 467.578 390.698 467.578 400.301Z" fill="#D9D6D5"/>
<path d="M224.043 330.307C224.043 333.883 221.147 336.78 217.575 336.78C214 336.78 211.104 333.883 211.104 330.307C211.104 326.733 214 323.836 217.575 323.836C221.147 323.836 224.043 326.733 224.043 330.307Z" fill="#D9D6D5"/>
<path d="M206.663 563.918C206.663 567.492 203.768 570.389 200.195 570.389C196.62 570.389 193.725 567.492 193.725 563.918C193.725 560.342 196.62 557.445 200.195 557.445C203.768 557.445 206.663 560.342 206.663 563.918Z" fill="#D9D6D5"/>
<path d="M300.258 434.778C300.258 439.671 296.293 443.638 291.402 443.638C286.512 443.638 282.547 439.671 282.547 434.778C282.547 429.886 286.512 425.919 291.402 425.919C296.293 425.919 300.258 429.886 300.258 434.778Z" fill="#D9D6D5"/>
<path d="M21.65 536.383C21.65 539.956 18.7526 542.853 15.1806 542.853C11.6073 542.853 8.70996 539.956 8.70996 536.383C8.70996 532.806 11.6073 529.909 15.1806 529.909C18.7526 529.909 21.65 532.806 21.65 536.383Z" fill="#D9D6D5"/>
<path d="M219.835 563.918C219.835 574.768 211.04 583.566 200.195 583.566C189.348 583.566 180.556 574.768 180.556 563.918C180.556 553.066 189.348 544.271 200.195 544.271C211.04 544.271 219.835 553.066 219.835 563.918Z" fill="#D9D6D5"/>
<path d="M67.3275 409.217C67.3275 412.793 64.4312 415.69 60.8581 415.69C57.2848 415.69 54.3885 412.793 54.3885 409.217C54.3885 405.643 57.2848 402.746 60.8581 402.746C64.4312 402.746 67.3275 405.643 67.3275 409.217Z" fill="#D9D6D5"/>
<path d="M17.9389 393.576C17.9389 397.15 15.0426 400.047 11.4696 400.047C7.89629 400.047 5 397.15 5 393.576C5 390.003 7.89629 387.103 11.4696 387.103C15.0426 387.103 17.9389 390.003 17.9389 393.576Z" fill="#D9D6D5"/>
<path d="M21.65 536.383C21.65 539.956 18.7526 542.853 15.1806 542.853C11.6073 542.853 8.70996 539.956 8.70996 536.383C8.70996 532.806 11.6073 529.909 15.1806 529.909C18.7526 529.909 21.65 532.806 21.65 536.383Z" fill="#D9D6D5"/>
<path d="M67.3275 409.217C67.3275 412.793 64.4312 415.69 60.8581 415.69C57.2848 415.69 54.3885 412.793 54.3885 409.217C54.3885 405.643 57.2848 402.746 60.8581 402.746C64.4312 402.746 67.3275 405.643 67.3275 409.217Z" fill="#D9D6D5"/>
<path d="M224.043 330.307C224.043 333.883 221.147 336.78 217.575 336.78C214 336.78 211.104 333.883 211.104 330.307C211.104 326.733 214 323.836 217.575 323.836C221.147 323.836 224.043 326.733 224.043 330.307Z" fill="#D9D6D5"/>
<path d="M42.5475 285.493C42.5475 289.067 39.6502 291.964 36.0782 291.964C32.5052 291.964 29.6089 289.067 29.6089 285.493C29.6089 281.92 32.5052 279.02 36.0782 279.02C39.6502 279.02 42.5475 281.92 42.5475 285.493Z" fill="#D9D6D5"/>
<path d="M67.3275 409.217C67.3275 412.793 64.4312 415.69 60.8581 415.69C57.2848 415.69 54.3885 412.793 54.3885 409.217C54.3885 405.643 57.2848 402.746 60.8581 402.746C64.4312 402.746 67.3275 405.643 67.3275 409.217Z" fill="#D9D6D5"/>
<path d="M42.5475 285.493C42.5475 289.067 39.6502 291.964 36.0782 291.964C32.5052 291.964 29.6089 289.067 29.6089 285.493C29.6089 281.92 32.5052 279.02 36.0782 279.02C39.6502 279.02 42.5475 281.92 42.5475 285.493Z" fill="#D9D6D5"/>
<path d="M119.617 226.134C119.617 229.708 116.718 232.605 113.146 232.605C109.574 232.605 106.677 229.708 106.677 226.134C106.677 222.561 109.574 219.661 113.146 219.661C116.718 219.661 119.617 222.561 119.617 226.134Z" fill="#D9D6D5"/>
<path d="M83.6461 211.037C83.6461 213.872 81.3485 216.17 78.5147 216.17C75.6799 216.17 73.3823 213.872 73.3823 211.037C73.3823 208.202 75.6799 205.904 78.5147 205.904C81.3485 205.904 83.6461 208.202 83.6461 211.037Z" fill="#D9D6D5"/>
<path d="M232.257 330.307C232.257 338.42 225.685 344.997 217.575 344.997C209.465 344.997 202.891 338.42 202.891 330.307C202.891 322.194 209.465 315.619 217.575 315.619C225.685 315.619 232.257 322.194 232.257 330.307Z" fill="#D9D6D5"/>
<path d="M273.065 205.032C273.065 208.606 270.167 211.505 266.594 211.505C263.022 211.505 260.124 208.606 260.124 205.032C260.124 201.458 263.022 198.559 266.594 198.559C270.167 198.559 273.065 201.458 273.065 205.032Z" fill="#D9D6D5"/>
<path d="M499.894 158.132C499.894 161.706 496.998 164.603 493.423 164.603C489.851 164.603 486.955 161.706 486.955 158.132C486.955 154.556 489.851 151.659 493.423 151.659C496.998 151.659 499.894 154.556 499.894 158.132Z" fill="#D9D6D5"/>
<path d="M543.873 57.911C543.873 62.8034 539.908 66.7704 535.017 66.7704C530.124 66.7704 526.159 62.8034 526.159 57.911C526.159 53.0186 530.124 49.049 535.017 49.049C539.908 49.049 543.873 53.0186 543.873 57.911Z" fill="#D9D6D5"/>
<path d="M257.503 56.3515C257.503 59.9252 254.608 62.8221 251.035 62.8221C247.46 62.8221 244.565 59.9252 244.565 56.3515C244.565 52.7751 247.46 49.8781 251.035 49.8781C254.608 49.8781 257.503 52.7751 257.503 56.3515Z" fill="#D9D6D5"/>
<path d="M273.065 205.032C273.065 208.606 270.167 211.505 266.594 211.505C263.022 211.505 260.124 208.606 260.124 205.032C260.124 201.458 263.022 198.559 266.594 198.559C270.167 198.559 273.065 201.458 273.065 205.032Z" fill="#D9D6D5"/>
<path d="M153.946 126.699C153.946 129.155 151.957 131.145 149.502 131.145C147.048 131.145 145.058 129.155 145.058 126.699C145.058 124.244 147.048 122.254 149.502 122.254C151.957 122.254 153.946 124.244 153.946 126.699Z" fill="#D9D6D5"/>
<path d="M257.503 56.3515C257.503 59.9252 254.608 62.8221 251.035 62.8221C247.46 62.8221 244.565 59.9252 244.565 56.3515C244.565 52.7751 247.46 49.8781 251.035 49.8781C254.608 49.8781 257.503 52.7751 257.503 56.3515Z" fill="#D9D6D5"/>
<path d="M273.065 205.032C273.065 208.606 270.167 211.505 266.594 211.505C263.022 211.505 260.124 208.606 260.124 205.032C260.124 201.458 263.022 198.559 266.594 198.559C270.167 198.559 273.065 201.458 273.065 205.032Z" fill="#D9D6D5"/>
<path d="M357.526 19.9431C357.526 23.5168 354.63 26.4137 351.055 26.4137C347.483 26.4137 344.587 23.5168 344.587 19.9431C344.587 16.3694 347.483 13.4698 351.055 13.4698C354.63 13.4698 357.526 16.3694 357.526 19.9431Z" fill="#D9D6D5"/>
<path d="M505.196 158.132C505.196 164.635 499.926 169.907 493.423 169.907C486.923 169.907 481.653 164.635 481.653 158.132C481.653 151.627 486.923 146.355 493.423 146.355C499.926 146.355 505.196 151.627 505.196 158.132Z" fill="#D9D6D5"/>
<path d="M434.877 9.4734C434.877 13.0471 431.981 15.9441 428.409 15.9441C424.837 15.9441 421.938 13.0471 421.938 9.4734C421.938 5.8997 424.837 3.0001 428.409 3.0001C431.981 3.0001 434.877 5.8997 434.877 9.4734Z" fill="#D9D6D5"/>
<path d="M260.324 56.3515C260.324 61.4847 256.167 65.6442 251.035 65.6442C245.904 65.6442 241.744 61.4847 241.744 56.3515C241.744 51.2183 245.904 47.0561 251.035 47.0561C256.167 47.0561 260.324 51.2183 260.324 56.3515Z" fill="#D9D6D5"/>
</svg>
