<svg width="64" height="64" viewBox="0 0 64 64" fill="none" xmlns="http://www.w3.org/2000/svg">
<g clip-path="url(#clip0_1090_78)">
<mask id="mask0_1090_78" style="mask-type:luminance" maskUnits="userSpaceOnUse" x="0" y="0" width="64" height="64">
<path d="M64 0H0V64H64V0Z" fill="white"/>
</mask>
<g mask="url(#mask0_1090_78)">
<path d="M16 18C17.1046 18 18 17.1046 18 16C18 14.8954 17.1046 14 16 14C14.8954 14 14 14.8954 14 16C14 17.1046 14.8954 18 16 18Z" fill="white" fill-opacity="0.3"/>
<path d="M48 18C49.1046 18 50 17.1046 50 16C50 14.8954 49.1046 14 48 14C46.8954 14 46 14.8954 46 16C46 17.1046 46.8954 18 48 18Z" fill="white" fill-opacity="0.3"/>
<path d="M16 50C17.1046 50 18 49.1046 18 48C18 46.8954 17.1046 46 16 46C14.8954 46 14 46.8954 14 48C14 49.1046 14.8954 50 16 50Z" fill="white" fill-opacity="0.3"/>
<path d="M48 50C49.1046 50 50 49.1046 50 48C50 46.8954 49.1046 46 48 46C46.8954 46 46 46.8954 46 48C46 49.1046 46.8954 50 48 50Z" fill="white" fill-opacity="0.3"/>
</g>
</g>
<defs>
<clipPath id="clip0_1090_78">
<rect width="64" height="64" fill="white"/>
</clipPath>
</defs>
</svg>
